<?xml version="1.0" encoding="UTF-8" standalone="no"?>
<svg
   xmlns:dc="http://purl.org/dc/elements/1.1/"
   xmlns:cc="http://creativecommons.org/ns#"
   xmlns:rdf="http://www.w3.org/1999/02/22-rdf-syntax-ns#"
   xmlns:svg="http://www.w3.org/2000/svg"
   xmlns="http://www.w3.org/2000/svg"
   xmlns:sodipodi="http://sodipodi.sourceforge.net/DTD/sodipodi-0.dtd"
   xmlns:inkscape="http://www.inkscape.org/namespaces/inkscape"
   width="301.11484mm"
   height="213.63968mm"
   viewBox="0 0 301.11484 213.63968"
   version="1.1"
   id="svg7087"
   inkscape:version="0.92.4 (5da689c313, 2019-01-14)"
   sodipodi:docname="duino.svg">
  <defs
     id="defs7081" />
  <sodipodi:namedview
     id="base"
     pagecolor="#ffffff"
     bordercolor="#666666"
     borderopacity="1.0"
     inkscape:pageopacity="0.0"
     inkscape:pageshadow="2"
     inkscape:zoom="0.21"
     inkscape:cx="1299.0384"
     inkscape:cy="18.21688"
     inkscape:document-units="mm"
     inkscape:current-layer="layer1"
     inkscape:document-rotation="0"
     showgrid="false"
     inkscape:window-width="1920"
     inkscape:window-height="1001"
     inkscape:window-x="0"
     inkscape:window-y="26"
     inkscape:window-maximized="1"
     showborder="false"
     fit-margin-top="0"
     fit-margin-left="0"
     fit-margin-right="0"
     fit-margin-bottom="0" />
  <metadata
     id="metadata7084">
    <rdf:RDF>
      <cc:Work
         rdf:about="">
        <dc:format>image/svg+xml</dc:format>
        <dc:type
           rdf:resource="http://purl.org/dc/dcmitype/StillImage" />
        <dc:title />
      </cc:Work>
    </rdf:RDF>
  </metadata>
  <g
     inkscape:label="Capa 1"
     inkscape:groupmode="layer"
     id="layer1"
     transform="translate(-416.23119,-212.4873)">
    <rect
       style="opacity:0.5;fill:#ee3d8f;fill-opacity:1;stroke:none;stroke-width:0.603141;stroke-miterlimit:4;stroke-dasharray:none;stroke-opacity:0"
       id="rect2397"
       width="278.84653"
       height="79.670441"
       x="429.16531"
       y="327.89233"
       ry="6.9943132" />
    <rect
       style="fill:#ee3d8f;fill-opacity:1;stroke:#9195d6;stroke-width:0.02021311;stroke-miterlimit:4;stroke-dasharray:none;stroke-opacity:0"
       id="rect983-0-9"
       width="148.96107"
       height="20.752289"
       x="482.74973"
       y="276.04987"
       ry="6.9939213" />
    <text
       xml:space="preserve"
       style="font-style:normal;font-weight:normal;font-size:20.4482975px;line-height:1.25;font-family:sans-serif;letter-spacing:0px;word-spacing:0px;fill:#ffffff;fill-opacity:1;stroke:none;stroke-width:0.51120543"
       x="490.25259"
       y="293.32922"
       id="text1061-2-0-0-8-4"><tspan
         sodipodi:role="line"
         id="tspan1059-5-1-6-9-8"
         x="490.25259"
         y="293.32922"
         style="font-style:normal;font-variant:normal;font-weight:normal;font-stretch:normal;font-family:'Liberation Sans';-inkscape-font-specification:'Liberation Sans';fill:#ffffff;stroke-width:0.51120543"><tspan
           style="font-style:normal;font-variant:normal;font-weight:bold;font-stretch:normal;font-family:Amatic;-inkscape-font-specification:'Amatic Bold';stroke-width:0.51120543"
           id="tspan1698-1">Huayra duino <tspan
   style="font-style:normal;font-variant:normal;font-weight:normal;font-stretch:condensed;font-family:Amatic;-inkscape-font-specification:'Amatic Condensed';stroke-width:0.51120543"
   id="tspan886">La Rioja</tspan>  </tspan></tspan></text>
    <g
       style="display:inline"
       id="g45275-2-4-8-6-3-8-2"
       transform="matrix(0,1.0150202,-1.0150202,0,1301.3961,191.24346)">
      <path
         d="m 113.8342,742.94106 c 0.50342,0 0.9117,0.40827 0.9117,0.91169 0,0.50393 -0.40828,0.9122 -0.9117,0.9122 -0.50342,0 -0.91169,-0.40827 -0.91169,-0.9122 0,-0.50342 0.40827,-0.91169 0.91169,-0.91169"
         style="fill:#e7408a;fill-opacity:1;fill-rule:nonzero;stroke:none;stroke-width:0.503421"
         id="path3498-3-2-8-7-9-4-49-6-9"
         inkscape:connector-curvature="0" />
      <path
         d="m 113.8342,734.43259 c 0.50342,0 0.9117,0.40827 0.9117,0.91169 0,0.50393 -0.40828,0.9122 -0.9117,0.9122 -0.50342,0 -0.91169,-0.40827 -0.91169,-0.9122 0,-0.50342 0.40827,-0.91169 0.91169,-0.91169"
         style="fill:#f19106;fill-opacity:1;fill-rule:nonzero;stroke:none;stroke-width:0.503421"
         id="path3510-5-2-6-6-6-3-0-7-3"
         inkscape:connector-curvature="0" />
      <path
         d="m 105.36852,742.65593 c 0.50343,0 0.9112,0.40827 0.9112,0.91119 0,0.50342 -0.40777,0.91119 -0.9112,0.91119 -0.50342,0 -0.91119,-0.40777 -0.91119,-0.91119 0,-0.50292 0.40777,-0.91119 0.91119,-0.91119"
         style="fill:#f19106;fill-opacity:1;fill-rule:nonzero;stroke:none;stroke-width:0.503421"
         id="path3514-0-5-7-3-4-0-2-0-9"
         inkscape:connector-curvature="0" />
      <path
         d="m 109.59172,744.97712 c 0.50342,0 0.91119,0.40827 0.91119,0.9112 0,0.50291 -0.40777,0.91119 -0.91119,0.91119 -0.50342,0 -0.91119,-0.40828 -0.91119,-0.91119 0,-0.50293 0.40777,-0.9112 0.91119,-0.9112"
         style="fill:#dddc08;fill-opacity:1;fill-rule:nonzero;stroke:none;stroke-width:0.503421"
         id="path3518-3-0-2-1-3-3-0-48-0"
         inkscape:connector-curvature="0" />
      <path
         d="m 109.59172,753.48555 c 0.50342,0 0.91119,0.40827 0.91119,0.91119 0,0.50291 -0.40777,0.91119 -0.91119,0.91119 -0.50342,0 -0.91119,-0.40828 -0.91119,-0.91119 0,-0.50292 0.40777,-0.91119 0.91119,-0.91119"
         style="fill:#9b86bd;fill-opacity:1;fill-rule:nonzero;stroke:none;stroke-width:0.503421"
         id="path3538-7-3-5-7-3-0-1-4-8"
         inkscape:connector-curvature="0" />
      <path
         d="m 109.59172,732.21363 c 0.50342,0 0.91119,0.40827 0.91119,0.91119 0,0.50292 -0.40777,0.9112 -0.91119,0.9112 -0.50342,0 -0.91119,-0.40828 -0.91119,-0.9112 0,-0.50292 0.40777,-0.91119 0.91119,-0.91119"
         style="fill:#57b6b0;fill-opacity:1;fill-rule:nonzero;stroke:none;stroke-width:0.503421"
         id="path3550-6-2-9-5-3-9-9-8-8"
         inkscape:connector-curvature="0" />
      <path
         d="m 105.36852,738.40172 c 0.50343,0 0.9112,0.40827 0.9112,0.91119 0,0.50292 -0.40777,0.91119 -0.9112,0.91119 -0.50342,0 -0.91119,-0.40827 -0.91119,-0.91119 0,-0.50292 0.40777,-0.91119 0.91119,-0.91119"
         style="fill:#57b6b0;fill-opacity:1;fill-rule:nonzero;stroke:none;stroke-width:0.503421"
         id="path3554-5-7-4-9-8-2-6-1-5"
         inkscape:connector-curvature="0" />
      <path
         d="m 113.8342,747.19527 c 0.50342,0 0.9117,0.40828 0.9117,0.9117 0,0.50392 -0.40828,0.9122 -0.9117,0.9122 -0.50342,0 -0.91169,-0.40828 -0.91169,-0.9122 0,-0.50342 0.40827,-0.9117 0.91169,-0.9117"
         style="fill:#57b6b0;fill-opacity:1;fill-rule:nonzero;stroke:none;stroke-width:0.503421"
         id="path3558-8-6-1-6-6-5-21-6-0"
         inkscape:connector-curvature="0" />
      <path
         d="m 109.59172,736.37214 c 0.50342,0 0.91119,0.40828 0.91119,0.9112 0,0.50291 -0.40777,0.91119 -0.91119,0.91119 -0.50342,0 -0.91119,-0.40828 -0.91119,-0.91119 0,-0.50292 0.40777,-0.9112 0.91119,-0.9112"
         style="fill:#ffd102;fill-opacity:1;fill-rule:nonzero;stroke:none;stroke-width:0.503421"
         id="path3566-7-3-4-2-0-4-2-8-9"
         inkscape:connector-curvature="0" />
      <path
         d="m 105.36852,729.80937 c 0.49638,0 0.89861,0.40223 0.89861,0.8986 0,0.49638 -0.40223,0.89862 -0.89861,0.89862 -0.49637,0 -0.8986,-0.40224 -0.8986,-0.89862 0,-0.49637 0.40223,-0.8986 0.8986,-0.8986"
         style="fill:#49b9eb;fill-opacity:1;fill-rule:nonzero;stroke:none;stroke-width:0.503421"
         id="path3582-7-85-9-1-4-0-0-5-6"
         inkscape:connector-curvature="0" />
      <path
         d="m 113.8342,730.09456 c 0.49637,0 0.89911,0.40273 0.89911,0.89911 0,0.49687 -0.40274,0.89961 -0.89911,0.89961 -0.49637,0 -0.89911,-0.40274 -0.89911,-0.89961 0,-0.49638 0.40274,-0.89911 0.89911,-0.89911"
         style="fill:#49b9eb;fill-opacity:1;fill-rule:nonzero;stroke:none;stroke-width:0.503421"
         id="path3586-2-5-6-7-8-5-7-2-3"
         inkscape:connector-curvature="0" />
      <path
         d="m 105.36852,734.14242 c 0.49638,0 0.89861,0.40223 0.89861,0.8986 0,0.49638 -0.40223,0.89861 -0.89861,0.89861 -0.49637,0 -0.8986,-0.40223 -0.8986,-0.89861 0,-0.49637 0.40223,-0.8986 0.8986,-0.8986"
         style="fill:#49b9eb;fill-opacity:1;fill-rule:nonzero;stroke:none;stroke-width:0.503421"
         id="path3602-8-8-6-8-8-9-3-19-8"
         inkscape:connector-curvature="0" />
      <path
         d="m 109.59172,740.71782 c 0.49637,0 0.89861,0.40224 0.89861,0.89861 0,0.49638 -0.40224,0.89861 -0.89861,0.89861 -0.49637,0 -0.8986,-0.40223 -0.8986,-0.89861 0,-0.49637 0.40223,-0.89861 0.8986,-0.89861"
         style="fill:#49b9eb;fill-opacity:1;fill-rule:nonzero;stroke:none;stroke-width:0.503421"
         id="path3606-8-5-5-5-8-4-1-9-5"
         inkscape:connector-curvature="0" />
      <path
         d="m 113.8342,738.70744 c 0.49637,0 0.89911,0.40273 0.89911,0.89911 0,0.49688 -0.40274,0.89961 -0.89911,0.89961 -0.49637,0 -0.89911,-0.40273 -0.89911,-0.89961 0,-0.49638 0.40274,-0.89911 0.89911,-0.89911"
         style="fill:#49b9eb;fill-opacity:1;fill-rule:nonzero;stroke:none;stroke-width:0.503421"
         id="path3614-9-45-9-7-9-6-1-6-6"
         inkscape:connector-curvature="0" />
      <path
         d="m 109.59172,749.22121 c 0.49637,0 0.89861,0.40224 0.89861,0.89861 0,0.49638 -0.40224,0.89861 -0.89861,0.89861 -0.49637,0 -0.8986,-0.40223 -0.8986,-0.89861 0,-0.49637 0.40223,-0.89861 0.8986,-0.89861"
         style="fill:#49b9eb;fill-opacity:1;fill-rule:nonzero;stroke:none;stroke-width:0.503421"
         id="path3622-4-6-7-4-7-9-9-0-1"
         inkscape:connector-curvature="0" />
      <path
         d="m 105.36852,746.98203 c 0.49638,0 0.89861,0.40223 0.89861,0.8986 0,0.49638 -0.40223,0.89861 -0.89861,0.89861 -0.49637,0 -0.8986,-0.40223 -0.8986,-0.89861 0,-0.49637 0.40223,-0.8986 0.8986,-0.8986"
         style="fill:#49b9eb;fill-opacity:1;fill-rule:nonzero;stroke:none;stroke-width:0.503421"
         id="path3638-2-6-9-1-7-2-0-6-1"
         inkscape:connector-curvature="0" />
    </g>
    <rect
       style="fill:#09a5ce;fill-opacity:1;stroke:#9195d6;stroke-width:0.0162655;stroke-miterlimit:4;stroke-dasharray:none;stroke-opacity:0"
       id="rect2291-2-1-7-5-6-9-1-7-7-5"
       width="104.90215"
       height="15.89457"
       x="548.19696"
       y="333.87299"
       ry="0" />
    <rect
       style="fill:#09a5ce;fill-opacity:1;stroke:#9195d6;stroke-width:0.0142887;stroke-miterlimit:4;stroke-dasharray:none;stroke-opacity:0"
       id="rect2291-2-1-7-5-6-9-1-7-7-1-9"
       width="80.942642"
       height="15.896547"
       x="579.73712"
       y="362.61118"
       ry="0" />
    <text
       xml:space="preserve"
       style="font-style:normal;font-weight:normal;font-size:10.5833px;line-height:1.25;font-family:sans-serif;letter-spacing:0px;word-spacing:0px;fill:#ffffff;fill-opacity:1;stroke:none;stroke-width:0.264583"
       x="432.57346"
       y="345.40689"
       id="text1678-8"><tspan
         sodipodi:role="line"
         x="432.57346"
         y="345.40689"
         style="font-style:normal;font-variant:normal;font-weight:normal;font-stretch:normal;font-size:11.2889px;font-family:'Liberation Sans';-inkscape-font-specification:'Liberation Sans';fill:#ffffff;stroke-width:0.264583"
         id="tspan2139">Es una aplicación para <tspan
   style="font-style:normal;font-variant:normal;font-weight:bold;font-stretch:normal;font-family:'Liberation Sans';-inkscape-font-specification:'Liberation Sans Bold'"
   id="tspan2159">programar Arduino </tspan>en forma </tspan><tspan
         sodipodi:role="line"
         x="432.57346"
         y="359.51801"
         style="font-style:normal;font-variant:normal;font-weight:normal;font-stretch:normal;font-size:11.2889px;font-family:'Liberation Sans';-inkscape-font-specification:'Liberation Sans';fill:#ffffff;stroke-width:0.264583"
         id="tspan2143">visual a través de bloques. Arduino es una plataforma </tspan><tspan
         sodipodi:role="line"
         x="432.57346"
         y="373.62915"
         style="font-style:normal;font-variant:normal;font-weight:normal;font-stretch:normal;font-size:11.2889px;font-family:'Liberation Sans';-inkscape-font-specification:'Liberation Sans';fill:#ffffff;stroke-width:0.264583"
         id="tspan2145">de prototipado electrónico de <tspan
   style="font-style:normal;font-variant:normal;font-weight:bold;font-stretch:normal;font-family:'Liberation Sans';-inkscape-font-specification:'Liberation Sans Bold'"
   id="tspan2155">código abierto</tspan> utilizada </tspan><tspan
         sodipodi:role="line"
         x="432.57346"
         y="387.74026"
         style="font-style:normal;font-variant:normal;font-weight:normal;font-stretch:normal;font-size:11.2889px;font-family:'Liberation Sans';-inkscape-font-specification:'Liberation Sans';fill:#ffffff;stroke-width:0.264583"
         id="tspan2147">comúnmente para proyectos de ciencia, <tspan
   style="font-style:normal;font-variant:normal;font-weight:bold;font-stretch:normal;font-family:'Liberation Sans';-inkscape-font-specification:'Liberation Sans Bold'"
   id="tspan2157">electrónica </tspan></tspan><tspan
         sodipodi:role="line"
         x="432.57346"
         y="401.85138"
         style="font-style:normal;font-variant:normal;font-weight:bold;font-stretch:normal;font-size:11.2889px;font-family:'Liberation Sans';-inkscape-font-specification:'Liberation Sans Bold';fill:#ffffff;stroke-width:0.264583"
         id="tspan2149">interactiva y robótica.</tspan><tspan
         sodipodi:role="line"
         x="432.57346"
         y="415.15775"
         id="tspan2141" /><tspan
         sodipodi:role="line"
         x="432.57346"
         y="428.38684"
         id="tspan1688-1" /><tspan
         sodipodi:role="line"
         x="432.57346"
         y="441.61597"
         id="tspan1690-7" /></text>
    <rect
       style="fill:#da8205;fill-opacity:1;stroke:#9195d6;stroke-width:0.01877858;stroke-miterlimit:4;stroke-dasharray:none;stroke-opacity:0"
       id="rect2291-2-1-7-5-6-9-1-7-8"
       width="105.1841"
       height="21.128706"
       x="511.9151"
       y="375.51001"
       ry="0"
       transform="rotate(-7.8081725)" />
    <text
       xml:space="preserve"
       style="font-style:normal;font-variant:normal;font-weight:bold;font-stretch:normal;font-size:18.15015984px;line-height:1.25;font-family:'Liberation Sans';-inkscape-font-specification:'Liberation Sans Bold';letter-spacing:0px;word-spacing:0px;fill:#ffffff;fill-opacity:1;stroke:none;stroke-width:0.45375347"
       x="517.39771"
       y="394.29999"
       id="text1702-5"
       transform="rotate(-7.8081725)"><tspan
         sodipodi:role="line"
         id="tspan1700-7"
         x="517.39771"
         y="394.29999"
         style="font-style:normal;font-variant:normal;font-weight:bold;font-stretch:normal;font-family:Amatic;-inkscape-font-specification:'Amatic Bold';fill:#ffffff;stroke-width:0.45375347">¡NUEVA APLICACIÓN!</tspan></text>
    <g
       id="g2247"
       transform="translate(471.37281,-112.81552)">
      <g
         style="fill:#ffffff;fill-opacity:1"
         transform="matrix(0.22406051,0,0,0.22406051,5.3482017,295.71216)"
         id="g5017-5-7-1-1-6-2">
        <path
           d="m 182.9526,325.29643 -0.005,3.65056 -11.53188,0.0532 c -6.98616,0.0322 -7.34066,7.57844 -7.34066,7.57844 l -3.74312,0.0172 c 0,0 -0.60492,-11.20587 10.82231,-11.26237 l 11.79873,-0.037 z"
           id="_121601064-35-7-4-9-8-3-7-5-8-6-9-1-5-6-2-0-0-5-7-8"
           style="fill:#ffffff;fill-opacity:1;fill-rule:nonzero;stroke-width:1.0572"
           inkscape:connector-curvature="0"
           sodipodi:nodetypes="ccsccccc" />
        <path
           d="m 79.766861,325.27969 h 3.813691 c 0,0 0.44752,7.96272 8.0353,8.19011 8.07777,-0.24636 8.11947,-8.19011 8.11947,-8.19011 h 3.811388 c 0,0 -0.39287,10.4627 -11.268038,11.32743 -12.531471,0.22016 -12.511811,-11.32743 -12.511811,-11.32743 z"
           id="_121605664-7-0-6-4-4-9-9-3-4-7-0-6-00-7-0-1-2-8-3-5-9-6-9-5-8"
           style="fill:#ffffff;fill-opacity:1;fill-rule:nonzero;stroke-width:1.06895"
           inkscape:connector-curvature="0"
           sodipodi:nodetypes="ccccccc" />
        <path
           style="opacity:1;fill:#ffffff;fill-opacity:1;fill-rule:nonzero;stroke:none;stroke-width:0.382;stroke-linecap:round;stroke-linejoin:miter;stroke-miterlimit:4;stroke-dasharray:none;stroke-dashoffset:0;stroke-opacity:1;paint-order:fill markers stroke"
           d="m 53.432886,319.90265 v 16.59642 l -5.16e-4,0.0796 h 5.16e-4 3.678845 c 0,0 0.02548,-0.4545 0.167949,-1.1498 0.453677,-2.21406 2.092792,-6.86734 7.86722,-7.04038 8.077761,0.24635 8.119401,8.19018 8.119401,8.19018 h 3.811654 c 0,0 -0.392877,-10.46274 -11.268049,-11.32748 -3.978849,-0.0699 -6.688909,1.04855 -8.539529,2.60501 l 0.01344,-7.95351 z"
           id="rect4782-2-4-3-1-8-6-9"
           inkscape:connector-curvature="0" />
        <g
           style="fill:#ffffff;fill-opacity:1"
           transform="translate(36.297884,79.42451)"
           id="g4846-0-7-6-5-4-9-2">
          <g
             style="fill:#ffffff;fill-opacity:1"
             id="g4826-61-4-0-9-8-8-8">
            <path
               d="m 70.255421,257.15412 h 3.813675 c 0,0 0.447518,-7.96272 8.035306,-8.19011 8.077762,0.24636 8.119467,8.19011 8.119467,8.19011 h 3.811391 c 0,0 -0.392875,-10.4627 -11.268046,-11.32743 -12.531453,-0.22016 -12.511793,11.32743 -12.511793,11.32743 z"
               id="_121605664-7-0-6-4-4-9-9-3-4-7-0-6-00-7-0-1-2-8-5-5-4-6-4-1-7-8"
               style="fill:#ffffff;fill-opacity:1;fill-rule:nonzero;stroke-width:1.06895"
               inkscape:connector-curvature="0"
               sodipodi:nodetypes="ccccccc" />
            <circle
               style="opacity:1;fill:#ffffff;fill-opacity:1;fill-rule:nonzero;stroke:none;stroke-width:0.415012;stroke-linecap:round;stroke-linejoin:miter;stroke-miterlimit:4;stroke-dasharray:none;stroke-dashoffset:0;stroke-opacity:1;paint-order:fill markers stroke"
               id="path4822-5-3-26-9-0-2-8"
               cx="82.14534"
               cy="254.81009"
               r="2.3438838" />
          </g>
        </g>
        <path
           style="opacity:1;fill:#ffffff;fill-opacity:1;fill-rule:nonzero;stroke:none;stroke-width:0.382;stroke-linecap:round;stroke-linejoin:miter;stroke-miterlimit:4;stroke-dasharray:none;stroke-dashoffset:0;stroke-opacity:1;paint-order:fill markers stroke"
           d="m 156.48369,341.95571 v -16.59642 l 5.3e-4,-0.0796 h -5.3e-4 -3.67885 c 0,0 -0.0255,0.4545 -0.16794,1.1498 -0.45368,2.21406 -2.09279,6.86734 -7.86722,7.04038 -8.07777,-0.24635 -8.11941,-8.19018 -8.11941,-8.19018 h -3.81165 c 0,0 0.39288,10.46274 11.26805,11.32748 3.97885,0.0699 6.68892,-1.04855 8.53953,-2.60501 l -0.0134,7.95351 z"
           id="rect4782-0-4-0-1-0-3-8-6"
           inkscape:connector-curvature="0" />
        <g
           style="fill:#ffffff;fill-opacity:1"
           transform="translate(35.355658,79.42451)"
           id="g4876-7-7-8-9-0-2-8">
          <g
             style="fill:#ffffff;fill-opacity:1"
             id="g4846-3-6-8-7-1-4-9-3"
             transform="translate(80.030828)">
            <g
               style="fill:#ffffff;fill-opacity:1"
               id="g4826-6-5-6-9-7-4-9-8">
              <path
                 sodipodi:nodetypes="ccccccc"
                 inkscape:connector-curvature="0"
                 style="fill:#ffffff;fill-opacity:1;fill-rule:nonzero;stroke-width:1.06895"
                 id="_121605664-7-0-6-4-4-9-9-3-4-7-0-6-00-7-0-1-2-8-5-1-6-8-2-7-4-6-3"
                 d="m 70.255421,257.15412 h 3.813675 c 0,0 0.447518,-7.96272 8.035306,-8.19011 8.077762,0.24636 8.119467,8.19011 8.119467,8.19011 h 3.811391 c 0,0 -0.392875,-10.4627 -11.268046,-11.32743 -12.531453,-0.22016 -12.511793,11.32743 -12.511793,11.32743 z" />
              <circle
                 r="2.3438838"
                 cy="254.81009"
                 cx="82.14534"
                 id="path4822-0-9-8-0-1-4-0-3"
                 style="opacity:1;fill:#ffffff;fill-opacity:1;fill-rule:nonzero;stroke:none;stroke-width:0.415012;stroke-linecap:round;stroke-linejoin:miter;stroke-miterlimit:4;stroke-dasharray:none;stroke-dashoffset:0;stroke-opacity:1;paint-order:fill markers stroke" />
            </g>
          </g>
        </g>
      </g>
      <text
         inkscape:export-ydpi="94"
         inkscape:export-xdpi="94"
         id="text6517-9-1-7-94-0-5-1-3-2-3"
         y="382.8476"
         x="34.727985"
         style="font-style:normal;font-variant:normal;font-weight:bold;font-stretch:normal;font-size:12.273px;line-height:125%;font-family:'Open Sans';-inkscape-font-specification:'Open Sans Bold';text-align:center;letter-spacing:0px;word-spacing:0px;text-anchor:middle;fill:#ffffff;fill-opacity:1;stroke:none;stroke-width:0.306824px;stroke-linecap:butt;stroke-linejoin:miter;stroke-opacity:1"
         xml:space="preserve"><tspan
           id="tspan6519-0-9-3-9-7-5-8-6-6-0"
           style="font-style:normal;font-variant:normal;font-weight:bold;font-stretch:normal;font-size:12.273px;font-family:'Open Sans';-inkscape-font-specification:'Open Sans Bold';fill:#ffffff;fill-opacity:1;stroke:none;stroke-width:0.306824px;stroke-opacity:1"
           y="382.8476"
           x="36.322037"
           sodipodi:role="line">duino </tspan></text>
      <g
         style="fill:#ffffff"
         transform="matrix(1.2675071,0,0,1.2675071,5.0555516,104.01098)"
         id="g11418-2-1-3">
        <path
           inkscape:connector-curvature="0"
           style="opacity:1;fill:#ffffff;fill-opacity:1;stroke:none;stroke-width:1.05948;stroke-linecap:round;stroke-linejoin:round;stroke-miterlimit:4;stroke-dasharray:none;stroke-dashoffset:0;stroke-opacity:1;paint-order:fill markers stroke"
           d="m 109.25,84.613281 -8.54688,25.691409 c -1.717276,1.05071 -2.746769,2.828 -2.789058,4.85156 -0.01282,0.60256 0.182141,1.52974 0.445313,2.22656 l -5.263672,7.23828 c -0.847977,-0.10939 -1.705262,-0.18997 -2.578125,-0.22461 h -0.002 c -0.939563,-0.0373 -1.868256,-0.0165 -2.789063,0.0488 l -3.02539,-8.92969 c 0.982492,-2.54649 0.05223,-5.43681 -2.261719,-6.88476 -0.872198,-0.54572 -1.832719,-0.81825 -2.792969,-0.86133 l -19.216796,-18.958983 13.375,23.539063 c -0.369288,1.98019 0.262065,3.93427 1.738281,5.32031 0.500342,0.47006 1.490221,1.01146 2.226562,1.24805 l 1.927735,7.40234 c -2.343661,0.93984 -4.555434,2.18566 -6.587891,3.67188 l -9.238281,-5.45703 c -0.05373,-0.23235 -0.104246,-0.46679 -0.185547,-0.68164 -0.995154,-2.63052 -3.740495,-4.15005 -6.476563,-3.58399 -0.453435,0.0938 -0.873311,0.25193 -1.27539,0.43945 L 56,120.5625 l -25.316406,-9.85156 22.15039,16.72265 0.03516,-0.0762 c 0.154906,0.546 0.363808,1.09147 0.583984,1.44727 1.092673,1.76394 2.944763,2.78257 5.019531,2.76367 0.475545,-0.004 1.147654,-0.15154 1.751953,-0.34961 l 6.753907,4.60742 c -2.10684,2.58903 -3.794317,5.45563 -4.953125,8.42578 l -8.154297,0.13672 c -0.231266,-0.32506 -0.472722,-0.62692 -0.69336,-0.82617 -1.15471,-1.04318 -2.602828,-1.56662 -4.09375,-1.51172 -0.496973,0.0183 -0.999154,0.10123 -1.496093,0.25 -0.734854,0.21997 -1.882602,0.92684 -2.404297,1.48047 -0.163707,0.17376 -0.312427,0.35608 -0.451172,0.54297 l -0.01367,-0.16797 -26.585938,7.9707 27.074219,-0.42578 c 1.733087,1.80272 4.476309,2.28854 6.753907,1.0918 0.392048,-0.20598 0.76057,-0.49068 1.109374,-0.80274 l 7.19336,0.33594 c -1.83e-4,0.005 1.79e-4,0.009 0,0.0137 2.765439,0.099 5.548917,0.20435 8.33789,0.31055 0.466251,-11.45737 10.126154,-20.37261 21.583985,-19.91797 11.463048,0.45487 20.392458,10.11501 19.937498,21.57813 3.05691,0.12302 4.49806,0.25027 7.91601,0.38672 9.1e-4,-0.0229 10e-4,-0.0455 0.002,-0.0684 l 10.81054,-2.17969 c 2.47811,1.21509 5.46748,0.50861 7.09961,-1.70899 0.43162,-0.58651 0.72326,-1.23014 0.90625,-1.89257 l 22.31055,-14.26172 -25.31641,7.64453 c -0.29041,-0.1496 -0.57402,-0.28009 -0.8125,-0.34961 -1.99189,-0.58114 -4.05228,-0.10093 -5.58202,1.30078 -0.47482,0.435 -1.04404,1.29455 -1.35547,1.99219 l -8.93945,1.02148 c -0.70049,-2.78589 -1.79323,-5.41486 -3.22266,-7.82031 l 7.03125,-4.82227 c 2.61762,0.004 4.93078,-1.74912 5.55469,-4.31445 0.17201,-0.70734 0.19198,-1.4122 0.10547,-2.09375 l 15.08593,-21.76367 -20.4121,16.81641 c -0.32478,-0.0258 -0.63656,-0.0355 -0.88281,-0.008 -2.06199,0.23203 -3.77754,1.46838 -4.64844,3.35157 -0.30413,0.6569 -0.51645,1.86284 -0.48242,2.63476 l -6.50391,3.80664 c -2.18011,-2.02941 -4.67874,-3.71942 -7.42579,-4.98828 l 3.96289,-6.36133 c 0.0466,-0.0145 0.0988,-0.0194 0.14454,-0.0352 2.65922,-0.91559 4.26072,-3.61336 3.77733,-6.36524 -0.17791,-1.01264 -0.61674,-1.90824 -1.22656,-2.65039 z M 79.529297,110.61914 c 0.37357,0.0194 0.749816,0.11339 1.111328,0.28906 0.746789,0.3628 1.219049,0.90856 1.466797,1.69727 0.247321,0.7889 0.172713,1.50804 -0.232422,2.23242 -0.538636,0.96291 -1.516767,1.51302 -2.591797,1.45899 -2.106198,-0.10583 -3.375225,-2.28936 -2.408203,-4.14454 0.225165,-0.43215 0.540216,-0.78281 0.910156,-1.03906 0.508451,-0.35244 1.121524,-0.52656 1.744141,-0.49414 z m -0.07813,1.27148 c -0.303371,-0.005 -0.709607,0.14231 -1.001953,0.34376 -0.09747,0.0669 -0.182333,0.14082 -0.246094,0.21679 -0.725771,0.85572 -0.29377,2.228 0.792969,2.51563 0.410921,0.109 1.127741,-0.0532 1.429687,-0.32227 0.430662,-0.38355 0.633385,-1.11222 0.462891,-1.65625 -0.18254,-0.58114 -0.847285,-1.0901 -1.4375,-1.09766 z m 24.158213,0.46876 c 0.23148,-0.002 0.45877,0.0244 0.67772,0.0762 0.96345,0.22726 1.76753,0.95453 2.06445,1.98437 0.22993,0.79771 0.13912,1.51274 -0.28125,2.22461 -0.42054,0.71191 -1.00499,1.13663 -1.81445,1.32031 -1.07593,0.24401 -2.13919,-0.11428 -2.81835,-0.94922 -1.3307,-1.63618 -0.55693,-4.03982 1.46875,-4.5625 0.23592,-0.061 0.47162,-0.0913 0.70313,-0.0937 z m -0.0371,1.28124 c -1.12157,0.0332 -1.85087,1.27112 -1.33789,2.27149 0.19405,0.37818 0.79319,0.80306 1.19531,0.84766 0.57304,0.0632 1.25116,-0.27294 1.54101,-0.76368 0.30976,-0.52456 0.24256,-1.36078 -0.14648,-1.80468 -0.19982,-0.22859 -0.58033,-0.43128 -0.92578,-0.51368 -0.11513,-0.0272 -0.22726,-0.0402 -0.32617,-0.0371 z M 58.625,123.01953 c 0.368929,0.0353 0.729677,0.15217 1.091797,0.35156 0.724214,0.39893 1.165324,0.9698 1.373047,1.77344 0.276351,1.06802 -0.04924,2.14181 -0.863282,2.8457 -1.595466,1.37946 -4.020051,0.6789 -4.603515,-1.33007 -0.136252,-0.46802 -0.150535,-0.94006 -0.06055,-1.38086 0.198195,-0.96987 0.901425,-1.79341 1.921875,-2.1211 0.395195,-0.12695 0.771696,-0.17395 1.140625,-0.13867 z m -0.460938,1.30859 c -0.328781,0.0366 -0.645314,0.16024 -0.861328,0.36133 -0.222285,0.20667 -0.414517,0.59369 -0.486328,0.94141 -0.02003,0.11641 -0.03301,0.22872 -0.02734,0.32812 0.06696,1.12014 1.326453,1.81089 2.310547,1.26758 0.372227,-0.20541 0.778421,-0.81735 0.810547,-1.2207 0.04586,-0.5746 -0.31129,-1.24048 -0.810547,-1.51563 -0.266789,-0.14694 -0.606764,-0.19873 -0.935547,-0.16211 z m 62.513668,0.71485 c 0.24229,-0.0238 0.49575,-0.0162 0.75391,0.0254 0.48112,0.0776 0.9118,0.26492 1.27148,0.53516 0.79157,0.5944 1.23657,1.58199 1.09571,2.64453 -0.10908,0.82299 -0.47982,1.44403 -1.15039,1.92773 -0.67062,0.48359 -1.37421,0.63852 -2.18946,0.48242 -1.08343,-0.20776 -1.91569,-0.96286 -2.20312,-2 -0.49293,-1.77835 0.72589,-3.44848 2.42187,-3.61523 z m 0.15235,1.27734 c -0.78416,0.0908 -1.45346,0.78743 -1.40039,1.64649 0.0265,0.4241 0.40324,1.05403 0.7539,1.25586 0.49963,0.28762 1.2564,0.25132 1.71875,-0.082 0.494,-0.35636 0.76629,-1.14831 0.58789,-1.71093 -0.0914,-0.28904 -0.3595,-0.62783 -0.64257,-0.8418 -0.0945,-0.0714 -0.19095,-0.12823 -0.28321,-0.16601 -0.1301,-0.0524 -0.26125,-0.0867 -0.39257,-0.10157 -0.11492,-0.013 -0.22978,-0.013 -0.3418,0 z m 10.64258,18.17188 c 0.46708,0.0194 0.94243,0.15763 1.38672,0.43359 0.41386,0.25716 0.73877,0.5984 0.96679,0.98633 0.50115,0.85376 0.5302,1.93722 -0.01,2.86328 -0.41795,0.71728 -0.99756,1.14652 -1.80274,1.33399 -0.80529,0.18764 -1.51511,0.0583 -2.20703,-0.4004 -0.91957,-0.60948 -1.39458,-1.6256 -1.25976,-2.69336 0.19794,-1.56927 1.52454,-2.58155 2.92578,-2.52343 z m -82.300785,0.41015 c 1.400798,-0.0676 2.736303,0.93335 2.945313,2.5 0.142336,1.06674 -0.326938,2.08722 -1.242188,2.70313 -0.68869,0.46352 -1.398519,0.598 -2.205078,0.41601 -0.806468,-0.18217 -1.389529,-0.60789 -1.8125,-1.32226 -0.546115,-0.92224 -0.524537,-2.00413 -0.0293,-2.86133 0.224957,-0.38959 0.548891,-0.73411 0.960937,-0.99414 0.44235,-0.27907 0.91588,-0.41888 1.382813,-0.44141 z m 82.224605,0.88868 c -0.63752,-0.003 -1.27147,0.37528 -1.50195,1.03906 -0.13946,0.40154 -0.033,1.12796 0.21289,1.44922 0.35003,0.45792 1.06207,0.71519 1.61719,0.58593 0.59339,-0.13829 1.15078,-0.76369 1.20312,-1.35156 0.0272,-0.30232 -0.0885,-0.71962 -0.26953,-1.02539 -0.0601,-0.10205 -0.12625,-0.19217 -0.19726,-0.26172 -0.29954,-0.29555 -0.68194,-0.43382 -1.06446,-0.43554 z m -82.138668,0.4082 c -0.382469,0.004 -0.765079,0.14571 -1.0625,0.44336 -0.07015,0.0703 -0.136427,0.16124 -0.195312,0.26367 -0.176806,0.30803 -0.289057,0.72528 -0.259766,1.02734 0.05647,0.58753 0.616743,1.20767 1.210938,1.3418 0.555961,0.12548 1.266479,-0.13708 1.613281,-0.59766 0.243515,-0.32315 0.3455,-1.05061 0.203125,-1.45117 -0.235157,-0.66208 -0.872314,-1.03468 -1.509766,-1.02734 z"
           transform="matrix(0.26458333,0,0,0.26458333,0,164.70831)"
           id="path6194-2-3-8-7-5-6-7-4-8-2-8-2-4-1-7-91-3-7" />
        <path
           style="fill:#ffffff;fill-opacity:1;stroke:none;stroke-width:0.0275096;stroke-opacity:1"
           d="m 25.583483,202.42108 c 0.487448,0.80442 0.457564,1.82373 -0.120059,2.60835 -0.678666,0.92216 -1.93137,1.21137 -2.955436,0.68246 -0.46225,-0.23875 -0.887162,-0.69324 -1.078643,-1.15363 -0.21064,-0.50645 -0.236505,-1.1199 -0.06952,-1.65044 0.09356,-0.29737 0.390892,-0.7631 0.622678,-0.97545 0.62692,-0.57442 1.470928,-0.77115 2.287232,-0.53301 0.301752,0.088 0.774361,0.37447 0.989743,0.59983 0.12556,0.13139 0.233571,0.27292 0.323835,0.42189 z m -0.990699,0.63006 c -0.09344,-0.15898 -0.226746,-0.29859 -0.396372,-0.40397 -0.728308,-0.45235 -1.659574,-10e-4 -1.76777,0.85608 -0.05525,0.43758 0.13971,0.85428 0.516564,1.10403 0.283571,0.18796 0.57466,0.24068 0.904664,0.16379 0.329997,-0.0769 0.567754,-0.25282 0.739036,-0.54678 0.221155,-0.37948 0.209258,-0.8233 0.0039,-1.17315 z m -0.478622,0.23655 c 0.07347,0.12567 0.120956,0.29607 0.109811,0.41994 -0.02155,0.24092 -0.2497,0.49717 -0.492875,0.55384 -0.227489,0.053 -0.519049,-0.0528 -0.662473,-0.2405 -0.100738,-0.13175 -0.14446,-0.42936 -0.0873,-0.59393 0.151102,-0.43521 0.724778,-0.5698 1.052094,-0.24679 0.0291,0.0285 0.05633,0.0655 0.08083,0.1074 z"
           id="path5668-6-2-3-0-5-3-3-7-3-8-3-4-58-9-1-3-2-2-2-9"
           inkscape:connector-curvature="0"
           sodipodi:nodetypes="ccccccccsccccccccccccccccc"
           inkscape:transform-center-x="4.6577415"
           inkscape:transform-center-y="-20.273645" />
      </g>
    </g>
  </g>
</svg>
