<?xml version="1.0" encoding="UTF-8" standalone="no"?>
<svg
   xmlns:dc="http://purl.org/dc/elements/1.1/"
   xmlns:cc="http://creativecommons.org/ns#"
   xmlns:rdf="http://www.w3.org/1999/02/22-rdf-syntax-ns#"
   xmlns:svg="http://www.w3.org/2000/svg"
   xmlns="http://www.w3.org/2000/svg"
   xmlns:xlink="http://www.w3.org/1999/xlink"
   xmlns:sodipodi="http://sodipodi.sourceforge.net/DTD/sodipodi-0.dtd"
   xmlns:inkscape="http://www.inkscape.org/namespaces/inkscape"
   width="300.99777mm"
   height="201.7204mm"
   viewBox="0 0 300.99777 201.7204"
   version="1.1"
   id="svg3489"
   sodipodi:docname="hechizos.svg"
   inkscape:version="0.92.4 (5da689c313, 2019-01-14)">
  <defs
     id="defs3483">
    <filter
       inkscape:collect="always"
       style="color-interpolation-filters:sRGB"
       id="filter5767-5-3"
       x="-0.0744"
       width="1.1488"
       y="-0.0744"
       height="1.1488">
      <feGaussianBlur
         inkscape:collect="always"
         stdDeviation="8.0786163"
         id="feGaussianBlur5769-8-5" />
    </filter>
    <radialGradient
       inkscape:collect="always"
       xlink:href="#linearGradient2828"
       id="radialGradient2832-6-0-4-4"
       cx="198.52496"
       cy="313.85855"
       fx="198.52496"
       fy="313.85855"
       r="98.074326"
       gradientUnits="userSpaceOnUse"
       gradientTransform="matrix(0.41874885,-0.00889938,0.00860123,0.40472008,97.667174,202.75318)" />
    <linearGradient
       inkscape:collect="always"
       id="linearGradient2828">
      <stop
         style="stop-color:#01b0ae;stop-opacity:1;"
         offset="0"
         id="stop2824" />
      <stop
         style="stop-color:#01b0ae;stop-opacity:0;"
         offset="1"
         id="stop2826" />
    </linearGradient>
    <linearGradient
       inkscape:collect="always"
       xlink:href="#linearGradient2194"
       id="linearGradient3546"
       gradientUnits="userSpaceOnUse"
       gradientTransform="matrix(0.19191926,0.12768005,-0.12768005,0.19191926,69.901681,129.51199)"
       x1="1036.6483"
       y1="-281.79459"
       x2="1005.6518"
       y2="-189.78697" />
    <linearGradient
       inkscape:collect="always"
       id="linearGradient2194">
      <stop
         style="stop-color:#01bbb9;stop-opacity:1;"
         offset="0"
         id="stop2190" />
      <stop
         style="stop-color:#01bbb9;stop-opacity:0;"
         offset="1"
         id="stop2192" />
    </linearGradient>
    <linearGradient
       inkscape:collect="always"
       xlink:href="#linearGradient2208"
       id="linearGradient3552"
       gradientUnits="userSpaceOnUse"
       x1="1056.5255"
       y1="-287.45227"
       x2="1012.6717"
       y2="-215.19157" />
    <linearGradient
       inkscape:collect="always"
       id="linearGradient2208">
      <stop
         style="stop-color:#01bbb9;stop-opacity:1"
         offset="0"
         id="stop2204" />
      <stop
         style="stop-color:#07e2e1;stop-opacity:0;"
         offset="1"
         id="stop2206" />
    </linearGradient>
    <linearGradient
       inkscape:collect="always"
       xlink:href="#linearGradient2194"
       id="linearGradient3558"
       gradientUnits="userSpaceOnUse"
       x1="1036.6483"
       y1="-281.79459"
       x2="1005.6518"
       y2="-189.78697" />
    <linearGradient
       inkscape:collect="always"
       xlink:href="#linearGradient2194"
       id="linearGradient533"
       gradientUnits="userSpaceOnUse"
       gradientTransform="matrix(0.19191926,0.12768005,-0.12768005,0.19191926,69.901681,129.51199)"
       x1="1036.6483"
       y1="-281.79459"
       x2="1005.6518"
       y2="-189.78697" />
    <linearGradient
       inkscape:collect="always"
       xlink:href="#linearGradient2208"
       id="linearGradient535"
       gradientUnits="userSpaceOnUse"
       x1="1056.5255"
       y1="-287.45227"
       x2="1012.6717"
       y2="-215.19157" />
    <linearGradient
       inkscape:collect="always"
       xlink:href="#linearGradient2208"
       id="linearGradient537"
       gradientUnits="userSpaceOnUse"
       x1="1056.5255"
       y1="-287.45227"
       x2="1012.6717"
       y2="-215.19157" />
    <linearGradient
       inkscape:collect="always"
       xlink:href="#linearGradient2208"
       id="linearGradient539"
       gradientUnits="userSpaceOnUse"
       x1="1056.5255"
       y1="-287.45227"
       x2="1012.6717"
       y2="-215.19157" />
    <linearGradient
       inkscape:collect="always"
       xlink:href="#linearGradient2194"
       id="linearGradient541"
       gradientUnits="userSpaceOnUse"
       x1="1036.6483"
       y1="-281.79459"
       x2="1005.6518"
       y2="-189.78697" />
    <linearGradient
       inkscape:collect="always"
       xlink:href="#linearGradient2194"
       id="linearGradient543"
       gradientUnits="userSpaceOnUse"
       x1="1036.6483"
       y1="-281.79459"
       x2="1005.6518"
       y2="-189.78697" />
    <linearGradient
       inkscape:collect="always"
       xlink:href="#linearGradient2194"
       id="linearGradient545"
       gradientUnits="userSpaceOnUse"
       x1="1036.6483"
       y1="-281.79459"
       x2="1005.6518"
       y2="-189.78697" />
    <linearGradient
       inkscape:collect="always"
       xlink:href="#linearGradient2208"
       id="linearGradient547"
       gradientUnits="userSpaceOnUse"
       x1="1056.5255"
       y1="-287.45227"
       x2="1012.6717"
       y2="-215.19157" />
    <linearGradient
       inkscape:collect="always"
       xlink:href="#linearGradient2208"
       id="linearGradient549"
       gradientUnits="userSpaceOnUse"
       x1="1056.5255"
       y1="-287.45227"
       x2="1012.6717"
       y2="-215.19157" />
    <linearGradient
       inkscape:collect="always"
       xlink:href="#linearGradient2208"
       id="linearGradient551"
       gradientUnits="userSpaceOnUse"
       x1="1056.5255"
       y1="-287.45227"
       x2="1012.6717"
       y2="-215.19157" />
    <linearGradient
       inkscape:collect="always"
       xlink:href="#linearGradient2194"
       id="linearGradient553"
       gradientUnits="userSpaceOnUse"
       x1="1036.6483"
       y1="-281.79459"
       x2="1005.6518"
       y2="-189.78697" />
    <linearGradient
       inkscape:collect="always"
       xlink:href="#linearGradient2194"
       id="linearGradient555"
       gradientUnits="userSpaceOnUse"
       x1="1036.6483"
       y1="-281.79459"
       x2="1005.6518"
       y2="-189.78697" />
    <linearGradient
       inkscape:collect="always"
       xlink:href="#linearGradient2194"
       id="linearGradient557"
       gradientUnits="userSpaceOnUse"
       x1="1036.6483"
       y1="-281.79459"
       x2="1005.6518"
       y2="-189.78697" />
    <linearGradient
       inkscape:collect="always"
       xlink:href="#linearGradient2194"
       id="linearGradient559"
       gradientUnits="userSpaceOnUse"
       x1="1036.6483"
       y1="-281.79459"
       x2="1005.6518"
       y2="-189.78697" />
    <linearGradient
       inkscape:collect="always"
       xlink:href="#linearGradient2194"
       id="linearGradient561"
       gradientUnits="userSpaceOnUse"
       x1="1036.6483"
       y1="-281.79459"
       x2="1005.6518"
       y2="-189.78697" />
    <linearGradient
       inkscape:collect="always"
       xlink:href="#linearGradient2208"
       id="linearGradient563"
       gradientUnits="userSpaceOnUse"
       x1="1056.5255"
       y1="-287.45227"
       x2="1012.6717"
       y2="-215.19157" />
    <linearGradient
       inkscape:collect="always"
       xlink:href="#linearGradient2208"
       id="linearGradient565"
       gradientUnits="userSpaceOnUse"
       x1="1056.5255"
       y1="-287.45227"
       x2="1012.6717"
       y2="-215.19157" />
    <linearGradient
       inkscape:collect="always"
       xlink:href="#linearGradient2208"
       id="linearGradient567"
       gradientUnits="userSpaceOnUse"
       x1="1056.5255"
       y1="-287.45227"
       x2="1012.6717"
       y2="-215.19157" />
    <linearGradient
       inkscape:collect="always"
       xlink:href="#linearGradient2208"
       id="linearGradient569"
       gradientUnits="userSpaceOnUse"
       x1="1056.5255"
       y1="-287.45227"
       x2="1012.6717"
       y2="-215.19157" />
    <linearGradient
       inkscape:collect="always"
       xlink:href="#linearGradient2208"
       id="linearGradient571"
       gradientUnits="userSpaceOnUse"
       x1="1056.5255"
       y1="-287.45227"
       x2="1012.6717"
       y2="-215.19157" />
  </defs>
  <sodipodi:namedview
     id="base"
     pagecolor="#ffffff"
     bordercolor="#666666"
     borderopacity="1.0"
     inkscape:pageopacity="0.0"
     inkscape:pageshadow="2"
     inkscape:zoom="0.7"
     inkscape:cx="309.24624"
     inkscape:cy="330.58158"
     inkscape:document-units="mm"
     inkscape:current-layer="layer1"
     inkscape:document-rotation="0"
     showgrid="false"
     showborder="false"
     inkscape:window-width="1920"
     inkscape:window-height="1001"
     inkscape:window-x="0"
     inkscape:window-y="26"
     inkscape:window-maximized="1"
     fit-margin-top="0"
     fit-margin-left="0"
     fit-margin-right="0"
     fit-margin-bottom="0" />
  <metadata
     id="metadata3486">
    <rdf:RDF>
      <cc:Work
         rdf:about="">
        <dc:format>image/svg+xml</dc:format>
        <dc:type
           rdf:resource="http://purl.org/dc/dcmitype/StillImage" />
        <dc:title />
      </cc:Work>
    </rdf:RDF>
  </metadata>
  <g
     inkscape:label="Capa 1"
     inkscape:groupmode="layer"
     id="layer1"
     transform="translate(701.51253,248.49246)">
    <rect
       style="opacity:0.5;fill:#ee3d8f;fill-opacity:1;stroke:none;stroke-width:0.828858;stroke-miterlimit:4;stroke-dasharray:none;stroke-opacity:0"
       id="rect2397-6"
       width="274.25742"
       height="152.97633"
       x="-686.7981"
       y="-207.15419"
       ry="13.429879" />
    <rect
       style="fill:#09a5ce;fill-opacity:1;stroke:#9195d6;stroke-width:0.0183997;stroke-miterlimit:4;stroke-dasharray:none;stroke-opacity:0"
       id="rect2291-2-1-7-5-6-9-1-7-7-1-1-8"
       width="176.92776"
       height="12.059346"
       x="-612.13763"
       y="-197.76691"
       ry="0" />
    <rect
       style="fill:#09a5ce;fill-opacity:1;stroke:#9195d6;stroke-width:0.016728;stroke-miterlimit:4;stroke-dasharray:none;stroke-opacity:0"
       id="rect2291-2-1-7-5-6-9-1-7-7-1-1-5-4"
       width="146.21826"
       height="12.060982"
       x="-609.77161"
       y="-133.13995"
       ry="0" />
    <rect
       style="fill:#09a5ce;fill-opacity:1;stroke:#9195d6;stroke-width:0.0204219;stroke-miterlimit:4;stroke-dasharray:none;stroke-opacity:0"
       id="rect2291-2-1-7-5-6-9-1-7-7-1-1-8-8"
       width="217.98904"
       height="12.05737"
       x="-676.65906"
       y="-68.884796"
       ry="0" />
    <text
       xml:space="preserve"
       style="font-style:normal;font-weight:normal;font-size:8.21484px;line-height:1.25;font-family:sans-serif;letter-spacing:0px;word-spacing:0px;fill:#ffffff;fill-opacity:1;stroke:none;stroke-width:0.205371"
       x="-660.50616"
       y="-192.87735"
       id="text1678-8-5"
       transform="scale(1.0225856,0.97791326)"><tspan
         sodipodi:role="line"
         x="-660.50616"
         y="-192.87735"
         style="font-style:normal;font-variant:normal;font-weight:normal;font-stretch:normal;font-size:8.76253px;font-family:'Liberation Sans';-inkscape-font-specification:'Liberation Sans';fill:#ffffff;stroke-width:0.205371"
         id="tspan2760">Presentamos el <tspan
   style="font-style:normal;font-variant:normal;font-weight:bold;font-stretch:normal;font-family:'Liberation Sans';-inkscape-font-specification:'Liberation Sans Bold';stroke-width:0.205371"
   id="tspan2808">Libro Vivo de Hechizos de Huayra Linux, </tspan></tspan><tspan
         sodipodi:role="line"
         x="-660.50616"
         y="-181.92419"
         style="font-style:normal;font-variant:normal;font-weight:normal;font-stretch:normal;font-size:8.76253px;font-family:'Liberation Sans';-inkscape-font-specification:'Liberation Sans';fill:#ffffff;stroke-width:0.205371"
         id="tspan2762">un manual integral que incluye desde los fundamentos </tspan><tspan
         sodipodi:role="line"
         x="-660.50616"
         y="-170.97102"
         style="font-style:normal;font-variant:normal;font-weight:normal;font-stretch:normal;font-size:8.76253px;font-family:'Liberation Sans';-inkscape-font-specification:'Liberation Sans';fill:#ffffff;stroke-width:0.205371"
         id="tspan2764">filosóficos y el marco teórico del proyecto hasta indicaciones </tspan><tspan
         sodipodi:role="line"
         x="-660.50616"
         y="-160.01787"
         style="font-style:normal;font-variant:normal;font-weight:normal;font-stretch:normal;font-size:8.76253px;font-family:'Liberation Sans';-inkscape-font-specification:'Liberation Sans';fill:#ffffff;stroke-width:0.205371"
         id="tspan2766">técnicas de <tspan
   style="font-style:normal;font-variant:normal;font-weight:bold;font-stretch:normal;font-family:'Liberation Sans';-inkscape-font-specification:'Liberation Sans Bold';stroke-width:0.205371"
   id="tspan2112">cómo instalar el sistema operativo, cómo agregar </tspan></tspan><tspan
         sodipodi:role="line"
         x="-660.50616"
         y="-149.0647"
         style="font-style:normal;font-variant:normal;font-weight:bold;font-stretch:normal;font-size:8.76253px;font-family:'Liberation Sans';-inkscape-font-specification:'Liberation Sans Bold';fill:#ffffff;stroke-width:0.205371"
         id="tspan2768">aplicaciones y cómo mantenerlo actualizado.</tspan><tspan
         sodipodi:role="line"
         x="-660.50616"
         y="-138.11154"
         style="font-style:normal;font-variant:normal;font-weight:normal;font-stretch:normal;font-size:8.76253px;font-family:'Liberation Sans';-inkscape-font-specification:'Liberation Sans';fill:#ffffff;stroke-width:0.205371"
         id="tspan2794"> </tspan><tspan
         sodipodi:role="line"
         x="-660.50616"
         y="-127.15837"
         style="font-style:normal;font-variant:normal;font-weight:normal;font-stretch:normal;font-size:8.76253px;font-family:'Liberation Sans';-inkscape-font-specification:'Liberation Sans';fill:#ffffff;stroke-width:0.205371"
         id="tspan2772">Un libro lleno de <tspan
   style="font-style:normal;font-variant:normal;font-weight:bold;font-stretch:normal;font-family:'Liberation Sans';-inkscape-font-specification:'Liberation Sans Bold';stroke-width:0.205371"
   id="tspan2810">secretos, atajos, trucos, y recetas</tspan> para </tspan><tspan
         sodipodi:role="line"
         x="-660.50616"
         y="-116.20521"
         style="font-style:normal;font-variant:normal;font-weight:normal;font-stretch:normal;font-size:8.76253px;font-family:'Liberation Sans';-inkscape-font-specification:'Liberation Sans';fill:#ffffff;stroke-width:0.205371"
         id="tspan2774">dominar como nunca antes el <tspan
   style="font-style:normal;font-variant:normal;font-weight:bold;font-stretch:normal;font-family:'Liberation Sans';-inkscape-font-specification:'Liberation Sans Bold';stroke-width:0.205371"
   id="tspan2812">sistema operativo Huayra Linux </tspan></tspan><tspan
         sodipodi:role="line"
         x="-660.50616"
         y="-105.25204"
         style="font-style:normal;font-variant:normal;font-weight:normal;font-stretch:normal;font-size:8.76253px;font-family:'Liberation Sans';-inkscape-font-specification:'Liberation Sans';fill:#ffffff;stroke-width:0.205371"
         id="tspan2802">y aprovechar al máximo todas sus virtudes.</tspan><tspan
         sodipodi:role="line"
         x="-660.50616"
         y="-94.923561"
         id="tspan2814"
         style="stroke-width:0.205371" /><tspan
         sodipodi:role="line"
         x="-660.50616"
         y="-84.030334"
         style="font-style:normal;font-variant:normal;font-weight:normal;font-stretch:normal;font-size:8.76253px;font-family:'Liberation Sans';-inkscape-font-specification:'Liberation Sans';fill:#ffffff;stroke-width:0.205371"
         id="tspan2756">¿Por qué un libro de hechizos? Porque <tspan
   style="font-style:normal;font-variant:normal;font-weight:bold;font-stretch:normal;font-family:'Liberation Sans';-inkscape-font-specification:'Liberation Sans Bold';stroke-width:0.205371"
   id="tspan4738">no hay que dejar </tspan></tspan><tspan
         sodipodi:role="line"
         x="-660.50616"
         y="-73.077171"
         style="font-style:normal;font-variant:normal;font-weight:normal;font-stretch:normal;font-size:8.76253px;font-family:'Liberation Sans';-inkscape-font-specification:'Liberation Sans';fill:#ffffff;stroke-width:0.205371"
         id="tspan2778"><tspan
   style="font-style:normal;font-variant:normal;font-weight:bold;font-stretch:normal;font-family:'Liberation Sans';-inkscape-font-specification:'Liberation Sans Bold';stroke-width:0.205371"
   id="tspan4740">de jugar,</tspan> y si hay que lidiar con lo desconocido, </tspan><tspan
         sodipodi:role="line"
         x="-660.50616"
         y="-62.124008"
         style="font-style:normal;font-variant:normal;font-weight:bold;font-stretch:normal;font-size:8.76253px;font-family:'Liberation Sans';-inkscape-font-specification:'Liberation Sans Bold';fill:#ffffff;stroke-width:0.205371"
         id="tspan2806">¡qué mejor que un poco de magia de nuestro lado!</tspan><tspan
         sodipodi:role="line"
         x="-660.50616"
         y="-51.795525"
         id="tspan2758"
         style="stroke-width:0.205371" /><tspan
         sodipodi:role="line"
         x="-660.50616"
         y="-41.526974"
         id="tspan2141-8"
         style="stroke-width:0.205371" /><tspan
         sodipodi:role="line"
         x="-660.50616"
         y="-31.258425"
         id="tspan1688-1-1"
         style="stroke-width:0.205371" /><tspan
         sodipodi:role="line"
         x="-660.50616"
         y="-20.989876"
         id="tspan1690-7-2"
         style="stroke-width:0.205371" /></text>
    <g
       id="g4852"
       transform="matrix(0.79373886,0,0,0.75906387,-702.52946,-710.88897)">
      <circle
         inkscape:export-ydpi="90"
         inkscape:export-xdpi="90"
         inkscape:export-filename="/home/carito/Escritorio/icono.png"
         r="33.644981"
         cy="643.37708"
         cx="50.863781"
         id="path5346-6-2-0-6"
         style="opacity:1;fill:#0da5a1;fill-opacity:1;stroke:none;stroke-width:0.131632;stroke-miterlimit:4;stroke-dasharray:none;stroke-opacity:1" />
      <circle
         inkscape:export-ydpi="90"
         inkscape:export-xdpi="90"
         inkscape:export-filename="/home/carito/Escritorio/icono.png"
         transform="matrix(0.22520756,0,0,0.22520756,-3.6740313,267.47882)"
         r="130.30026"
         cy="1666.9026"
         cx="239.58392"
         id="path5346-6-2-7-4-5"
         style="opacity:0.459;fill:#000000;fill-opacity:1;stroke:none;stroke-width:0.509782;stroke-miterlimit:4;stroke-dasharray:none;stroke-opacity:1;filter:url(#filter5767-5-3)" />
      <g
         inkscape:export-ydpi="90"
         inkscape:export-xdpi="90"
         inkscape:export-filename="/home/carito/Escritorio/icono.png"
         transform="matrix(0.22520756,0,0,0.22520756,-5.4756853,267.47882)"
         id="g5876-2-9">
        <circle
           style="opacity:1;fill:#658365;fill-opacity:1;stroke:#222b00;stroke-width:0.455255;stroke-miterlimit:4;stroke-dasharray:none;stroke-opacity:1"
           id="path5346-0-9-0"
           cx="249.88646"
           cy="1668.3235"
           r="116.36295" />
        <g
           id="g10264-6-6-7"
           transform="matrix(1.3643645,0,0,1.3643645,-0.675326,1220.8803)"
           inkscape:export-filename="/home/carito/Escritorio/mandala.png"
           inkscape:export-xdpi="90"
           inkscape:export-ydpi="90">
          <g
             id="g3924-1-1-6">
            <path
               style="fill:none;stroke:#000000;stroke-width:0.455416px;stroke-linecap:butt;stroke-linejoin:miter;stroke-opacity:1"
               d="m 236.7241,274.75474 -48.36297,49.36858"
               id="path2919-4-4-3-5-04-3"
               inkscape:connector-curvature="0"
               sodipodi:nodetypes="cc" />
            <path
               style="fill:none;stroke:#000000;stroke-width:0.455416px;stroke-linecap:butt;stroke-linejoin:miter;stroke-opacity:1"
               d="M 130.6022,276.40357 235.57808,380.7213"
               id="path2919-3-5-2-7"
               inkscape:connector-curvature="0" />
            <circle
               style="opacity:0.813;fill:#000000;fill-opacity:1;stroke:#000000;stroke-width:0.708628;stroke-miterlimit:4;stroke-dasharray:none;stroke-opacity:1"
               id="path1725-8-4-2-6"
               cx="183.95091"
               cy="328.01129"
               r="80.014214" />
            <rect
               style="opacity:0.813;fill:none;fill-opacity:0.174825;stroke:#4faf75;stroke-width:0.408;stroke-miterlimit:4;stroke-dasharray:none;stroke-opacity:0.964706"
               id="rect1742-3-6-7-20-1"
               width="89.533745"
               height="89.533745"
               x="283.50049"
               y="137.5802"
               transform="matrix(0.00351205,0.99999383,0.99999383,-0.00351205,0,0)" />
            <circle
               style="opacity:0.813;fill:url(#radialGradient2832-6-0-4-4);fill-opacity:1;stroke:#00aa44;stroke-width:0.389381;stroke-miterlimit:4;stroke-dasharray:none;stroke-opacity:0.964706"
               id="path1761-7-5-7-0-6-5-5"
               cx="183.49883"
               cy="328.01129"
               r="44.469971" />
            <path
               style="fill:none;stroke:#000000;stroke-width:0.455416px;stroke-linecap:butt;stroke-linejoin:miter;stroke-opacity:1"
               d="m 175.62415,327.51962 -67.00846,0.9833"
               id="path2919-4-47-4-5-5-0"
               inkscape:connector-curvature="0"
               sodipodi:nodetypes="cc" />
            <circle
               style="opacity:0.813;fill:none;fill-opacity:1;stroke:#008066;stroke-width:0.664783;stroke-miterlimit:4;stroke-dasharray:none;stroke-opacity:1"
               id="path1725-2-8-6-2-6"
               cx="183.49883"
               cy="328.01129"
               r="75.063499" />
            <rect
               style="opacity:0.813;fill:none;fill-opacity:0.206294;stroke:#00ff66;stroke-width:0.308;stroke-miterlimit:4;stroke-dasharray:none;stroke-opacity:1"
               id="rect1742-8-9-9-5"
               width="89.533745"
               height="89.533745"
               x="-146.18259"
               y="-406.43759"
               transform="matrix(0.70948147,-0.70472409,-0.70472409,-0.70948147,0,0)" />
            <path
               style="fill:none;stroke:#000000;stroke-width:0.455416px;stroke-linecap:butt;stroke-linejoin:miter;stroke-opacity:1"
               d="m 179.1412,332.84046 -47.38722,47.38722"
               id="path2919-4-8-37-0-0"
               inkscape:connector-curvature="0"
               sodipodi:nodetypes="cc" />
            <g
               id="g2755-9-4-2-8"
               transform="matrix(0.33281399,0,0,0.33281399,117.37335,223.55993)">
              <path
                 sodipodi:nodetypes="ccccccccccccccccccccccccccccccccccccccccc"
                 inkscape:connector-curvature="0"
                 id="path5108-2-5-3-2-7-7-2-7-52-8-1"
                 d="m 323.73298,190.08367 c 0.44211,0.0229 -0.11799,1.13415 -1.14513,2.65243 -1.56686,2.31232 -8.18278,10.82859 -13.86505,14.09157 0.2708,0.40764 0.47673,0.8434 0.68927,1.29132 7.21673,-0.55235 15.19519,-1.76851 19.39452,-3.66822 4.47101,-2.02264 2.56986,0.15411 0.0752,1.63253 -4.35622,2.58107 -12.30382,5.09979 -18.33787,6.03631 0.0358,0.33657 0.10327,0.652 0.11447,0.99157 6.48112,1.71908 12.53502,2.66999 16.93419,2.93934 4.7908,0.29314 2.50017,1.57043 -0.31625,1.87141 -2.63962,0.28325 -11.02265,0.42783 -17.17398,-0.60041 -0.18701,0.68295 -0.42958,1.36305 -0.72251,2.01723 4.59278,2.75673 8.97143,4.73956 12.36001,5.97463 4.1624,1.51671 1.72896,2.19531 -0.86083,1.75896 -2.22492,-0.37447 -8.57437,-2.19021 -13.5963,-4.46566 -0.42878,0.49177 -0.88463,0.96818 -1.39734,1.40222 2.86925,5.56328 4.32485,8.48779 6.01223,11.32706 1.74509,2.93797 0.58026,2.12947 -0.8676,0.83905 -1.92501,-1.71459 -5.5336,-6.54704 -8.12985,-10.23874 -0.0346,-0.023 -0.0397,-0.0984 -0.0676,-0.13024 l -2.49742,-3.57703 c 9.47939,-4.5799 3.83004,-19.59275 -7.19138,-13.86026 -0.36673,0.18973 -0.75701,0.42163 -1.13595,0.65975 -0.37853,0.23876 -0.76936,0.52356 -1.15862,0.81148 l -0.77109,-4.42693 c -0.56133,-3.71984 -0.50857,-5.94586 -0.73709,-8.31751 -0.30459,-3.16288 0.48939,-1.82749 1.3494,0.64845 0.58376,1.67987 1.46962,3.78649 2.22704,6.31078 0.7698,-0.32537 1.53365,-0.60617 2.25562,-0.83065 1.80285,-6.82186 3.13104,-12.64883 3.89462,-15.978 0.77248,-3.36724 1.04176,-1.83765 1.05099,0.86412 0.009,2.5657 -0.52797,9.5228 -1.33903,14.34753 1.03165,-0.0968 2.02203,-0.0888 2.92256,0.0288 4.00884,-5.96162 9.12727,-13.42343 10.96067,-16.35668 1.84358,-2.9519 1.84511,-1.28954 0.67384,1.19802 -1.26952,2.69724 -5.42539,10.88776 -8.35905,16.17231 0.44982,0.22727 0.8759,0.47652 1.27364,0.76204 l 0.0537,0.0357 c 6.41865,-3.91958 12.76054,-10.45522 15.49036,-12.92728 1.03441,-0.93696 1.48792,-1.20919 1.75297,-1.19494 z"
                 style="fill:url(#linearGradient533);fill-opacity:1;stroke:none;stroke-width:0.8983;stroke-miterlimit:4;stroke-dasharray:none" />
              <path
                 inkscape:connector-curvature="0"
                 id="rect8672-5-5-8-7-0-1-2-1-4-5-7-5-3-2"
                 d="m 299.31123,211.19542 c 1.84934,1.02483 2.46054,3.3762 1.3993,5.34418 l 0.0154,0.0955 c -1.11936,1.97651 -3.58506,2.7364 -5.46301,1.69499 -1.87681,-1.04312 -2.49496,-3.5193 -1.37572,-5.49588 1.11927,-1.97639 3.54668,-2.67872 5.42419,-1.63666 z"
                 style="fill:url(#linearGradient3546);fill-opacity:1;stroke:none;stroke-width:1.56678;stroke-miterlimit:4;stroke-dasharray:none" />
            </g>
            <path
               style="fill:none;stroke:#001817;stroke-width:0.455416px;stroke-linecap:butt;stroke-linejoin:miter;stroke-opacity:0.87451"
               d="m 183.49883,253.36811 v 68.77731 -0.32908"
               id="path2981-6-4-8-2"
               inkscape:connector-curvature="0" />
            <g
               id="g2720-4-7-0-6"
               transform="matrix(0.33281399,0,0,0.33281399,117.37335,223.55993)">
              <g
                 inkscape:transform-center-y="-11.700245"
                 inkscape:transform-center-x="-7.1323907"
                 style="display:inline;opacity:1;fill:url(#linearGradient539);fill-opacity:1;stroke:none"
                 transform="matrix(0.20680913,-0.10180954,0.10180954,0.20680913,11.134665,328.56275)"
                 id="g5162-7-8-9-8-8-3-4-40-9">
                <path
                   style="fill:url(#linearGradient535);fill-opacity:1;stroke:none;stroke-width:3.897;stroke-miterlimit:4;stroke-dasharray:none"
                   d="m 1062.3638,-391.15918 c 1.6518,-0.97979 2.2991,4.37996 2.2375,12.33195 -0.103,12.11697 -3.5351,58.7745 -16.2182,84.21415 1.9576,0.82165 3.7485,1.90072 5.5925,3.00785 24.7389,-19.33633 50.634,-42.90062 61.2367,-59.85288 11.2886,-18.04909 9.6524,-5.61854 4.1945,5.71581 -9.5321,19.79026 -32.1858,47.98515 -51.7298,65.86717 0.9379,1.12974 1.9397,2.10679 2.7961,3.30638 27.54,-9.36452 51.6911,-20.47702 68.2277,-30.07502 18.0083,-10.45315 12.804,-0.3355 3.3546,7.51927 -8.8534,7.36589 -38.7847,28.0319 -63.4735,39.09922 0.9656,2.91613 1.7237,5.95547 2.2376,9.02219 23.2129,-1.07907 43.7928,-4.43887 58.9998,-8.12044 18.6787,-4.52373 11.52,3.77472 1.1174,8.42171 -8.936,3.99378 -36.2327,12.69277 -59.8392,16.54141 -0.367,2.80655 -0.8687,5.62267 -1.6776,8.42239 23.7316,13.19943 36.0165,20.26478 48.9337,26.46531 13.3628,6.41832 7.2128,6.29712 -1.1175,5.11533 -11.073,-1.56727 -35.7189,-10.35044 -53.9672,-17.44591 -0.1802,0 -0.3799,-0.26 -0.557,-0.30805 l -17.6158,-6.91879 c 23.2335,-39.32043 -33.2462,-79.97044 -59.27975,-32.78159 -0.8687,1.56654 -1.7211,3.34194 -2.5176,5.11258 -0.7935,1.77197 -1.5208,3.73975 -2.2349,5.71508 l -13.4227,-14.13679 c -10.966,-12.08684 -16.1244,-20.25383 -22.6487,-28.27087 -8.7003,-10.69213 -2.6237,-7.77669 6.4321,-0.90037 6.1451,4.66479 14.4068,10.14506 23.2082,17.44252 1.9986,-3.02498 4.0828,-5.87469 6.1511,-8.42034 -9.8807,-28.972 -19.0852,-53.21 -24.327,-67.0695 -5.3011,-14.01837 -0.653,-9.14065 5.8725,0.59567 6.1968,9.24606 20.9756,35.66413 29.63965,55.03951 3.4937,-2.82847 7.0899,-5.17968 10.6251,-6.91879 0.1542,-31.16575 0.7113,-70.4163 0.285,-85.41648 -0.4344,-15.09195 3.5657,-9.09134 5.3126,2.70796 1.8959,12.79274 6.5665,52.36236 8.6688,78.49902 2.1708,-0.26 4.3087,-0.38356 6.4314,-0.30805 h 0.2799 c 13.7651,-29.58068 20.9667,-68.4259 24.8864,-83.91429 1.4847,-5.86983 2.4686,-7.94283 3.4602,-8.52826 z"
                   id="path5108-2-5-3-2-7-84-0-4-9-1"
                   inkscape:connector-curvature="0"
                   sodipodi:nodetypes="ccccccccccccccccccccccccccccccccccccccccc" />
                <path
                   style="fill:url(#linearGradient537);fill-opacity:1;stroke:none;stroke-width:6.797;stroke-miterlimit:4;stroke-dasharray:none"
                   d="m 1024.8848,-256.22185 c 9.1422,-0.74224 17,6.28201 17.8958,15.94025 l 0.2849,0.30804 c 0.7064,9.8287 -6.3735,18.49826 -15.6589,19.24937 -9.2854,0.7422 -17.4682,-6.71615 -18.1752,-16.54484 -0.7064,-9.82805 6.3735,-18.19771 15.6589,-18.9454 z"
                   id="rect8672-5-5-8-7-0-1-2-1-3-3-30-1-0"
                   inkscape:connector-curvature="0" />
              </g>
            </g>
            <g
               id="g2715-0-7-9-4"
               transform="matrix(0.33281399,0,0,0.33281399,117.37335,223.55993)">
              <g
                 inkscape:transform-center-y="3.0166395"
                 inkscape:transform-center-x="12.512706"
                 style="display:inline;opacity:1;fill:url(#linearGradient545);fill-opacity:1;stroke:none"
                 transform="matrix(-0.19191926,0.12768005,0.12768005,0.19191926,327.82556,130.34902)"
                 id="g5162-7-8-9-8-3-5-6-9-8-62-2">
                <path
                   style="fill:url(#linearGradient541);fill-opacity:1;stroke:none;stroke-width:3.897;stroke-miterlimit:4;stroke-dasharray:none"
                   d="m 1062.3638,-391.15918 c 1.6518,-0.97979 2.2991,4.37996 2.2375,12.33195 -0.103,12.11697 -3.5351,58.7745 -16.2182,84.21415 1.9576,0.82165 3.7485,1.90072 5.5925,3.00785 24.7389,-19.33633 50.634,-42.90062 61.2367,-59.85288 11.2886,-18.04909 9.6524,-5.61854 4.1945,5.71581 -9.5321,19.79026 -32.1858,47.98515 -51.7298,65.86717 0.9379,1.12974 1.9397,2.10679 2.7961,3.30638 27.54,-9.36452 51.6911,-20.47702 68.2277,-30.07502 18.0083,-10.45315 12.804,-0.3355 3.3546,7.51927 -8.8534,7.36589 -38.7847,28.0319 -63.4735,39.09922 0.9656,2.91613 1.7237,5.95547 2.2376,9.02219 23.2129,-1.07907 43.7928,-4.43887 58.9998,-8.12044 18.6787,-4.52373 11.52,3.77472 1.1174,8.42171 -8.936,3.99378 -36.2327,12.69277 -59.8392,16.54141 -0.367,2.80655 -0.8687,5.62267 -1.6776,8.42239 23.7316,13.19943 36.0165,20.26478 48.9337,26.46531 13.3628,6.41832 7.2128,6.29712 -1.1175,5.11533 -11.073,-1.56727 -35.7189,-10.35044 -53.9672,-17.44591 -0.1802,0 -0.3799,-0.26 -0.557,-0.30805 l -17.6158,-6.91879 c 23.2335,-39.32043 -33.2462,-79.97044 -59.27975,-32.78159 -0.8687,1.56654 -1.7211,3.34194 -2.5176,5.11258 -0.7935,1.77197 -1.5208,3.73975 -2.2349,5.71508 l -13.4227,-14.13679 c -10.966,-12.08684 -16.1244,-20.25383 -22.6487,-28.27087 -8.7003,-10.69213 -2.6237,-7.77669 6.4321,-0.90037 6.1451,4.66479 14.4068,10.14506 23.2082,17.44252 1.9986,-3.02498 4.0828,-5.87469 6.1511,-8.42034 -9.8807,-28.972 -19.0852,-53.21 -24.327,-67.0695 -5.3011,-14.01837 -0.653,-9.14065 5.8725,0.59567 6.1968,9.24606 20.9756,35.66413 29.63965,55.03951 3.4937,-2.82847 7.0899,-5.17968 10.6251,-6.91879 0.1542,-31.16575 0.7113,-70.4163 0.285,-85.41648 -0.4344,-15.09195 3.5657,-9.09134 5.3126,2.70796 1.8959,12.79274 6.5665,52.36236 8.6688,78.49902 2.1708,-0.26 4.3087,-0.38356 6.4314,-0.30805 h 0.2799 c 13.7651,-29.58068 20.9667,-68.4259 24.8864,-83.91429 1.4847,-5.86983 2.4686,-7.94283 3.4602,-8.52826 z"
                   id="path5108-2-5-3-2-7-7-2-8-2-6-5-7"
                   inkscape:connector-curvature="0"
                   sodipodi:nodetypes="ccccccccccccccccccccccccccccccccccccccccc" />
                <path
                   style="fill:url(#linearGradient543);fill-opacity:1;stroke:none;stroke-width:6.797;stroke-miterlimit:4;stroke-dasharray:none"
                   d="m 1024.8848,-256.22185 c 9.1422,-0.74224 17,6.28201 17.8958,15.94025 l 0.2849,0.30804 c 0.7064,9.8287 -6.3735,18.49826 -15.6589,19.24937 -9.2854,0.7422 -17.4682,-6.71615 -18.1752,-16.54484 -0.7064,-9.82805 6.3735,-18.19771 15.6589,-18.9454 z"
                   id="rect8672-5-5-8-7-0-1-2-1-4-5-9-5-8-4-4"
                   inkscape:connector-curvature="0" />
              </g>
            </g>
            <g
               id="g2737-4-8-4-0"
               transform="matrix(0.33281399,0,0,0.33281399,117.37335,223.55993)">
              <g
                 inkscape:transform-center-y="11.700242"
                 inkscape:transform-center-x="-7.1323907"
                 style="display:inline;opacity:1;fill:url(#linearGradient551);fill-opacity:1;stroke:none"
                 transform="matrix(0.20680913,0.10180954,0.10180954,-0.20680913,9.7683654,299.23858)"
                 id="g5162-7-8-9-8-8-6-0-4-9-3">
                <path
                   style="fill:url(#linearGradient547);fill-opacity:1;stroke:none;stroke-width:3.897;stroke-miterlimit:4;stroke-dasharray:none"
                   d="m 1062.3638,-391.15918 c 1.6518,-0.97979 2.2991,4.37996 2.2375,12.33195 -0.103,12.11697 -3.5351,58.7745 -16.2182,84.21415 1.9576,0.82165 3.7485,1.90072 5.5925,3.00785 24.7389,-19.33633 50.634,-42.90062 61.2367,-59.85288 11.2886,-18.04909 9.6524,-5.61854 4.1945,5.71581 -9.5321,19.79026 -32.1858,47.98515 -51.7298,65.86717 0.9379,1.12974 1.9397,2.10679 2.7961,3.30638 27.54,-9.36452 51.6911,-20.47702 68.2277,-30.07502 18.0083,-10.45315 12.804,-0.3355 3.3546,7.51927 -8.8534,7.36589 -38.7847,28.0319 -63.4735,39.09922 0.9656,2.91613 1.7237,5.95547 2.2376,9.02219 23.2129,-1.07907 43.7928,-4.43887 58.9998,-8.12044 18.6787,-4.52373 11.52,3.77472 1.1174,8.42171 -8.936,3.99378 -36.2327,12.69277 -59.8392,16.54141 -0.367,2.80655 -0.8687,5.62267 -1.6776,8.42239 23.7316,13.19943 36.0165,20.26478 48.9337,26.46531 13.3628,6.41832 7.2128,6.29712 -1.1175,5.11533 -11.073,-1.56727 -35.7189,-10.35044 -53.9672,-17.44591 -0.1802,0 -0.3799,-0.26 -0.557,-0.30805 l -17.6158,-6.91879 c 23.2335,-39.32043 -33.2462,-79.97044 -59.27975,-32.78159 -0.8687,1.56654 -1.7211,3.34194 -2.5176,5.11258 -0.7935,1.77197 -1.5208,3.73975 -2.2349,5.71508 l -13.4227,-14.13679 c -10.966,-12.08684 -16.1244,-20.25383 -22.6487,-28.27087 -8.7003,-10.69213 -2.6237,-7.77669 6.4321,-0.90037 6.1451,4.66479 14.4068,10.14506 23.2082,17.44252 1.9986,-3.02498 4.0828,-5.87469 6.1511,-8.42034 -9.8807,-28.972 -19.0852,-53.21 -24.327,-67.0695 -5.3011,-14.01837 -0.653,-9.14065 5.8725,0.59567 6.1968,9.24606 20.9756,35.66413 29.63965,55.03951 3.4937,-2.82847 7.0899,-5.17968 10.6251,-6.91879 0.1542,-31.16575 0.7113,-70.4163 0.285,-85.41648 -0.4344,-15.09195 3.5657,-9.09134 5.3126,2.70796 1.8959,12.79274 6.5665,52.36236 8.6688,78.49902 2.1708,-0.26 4.3087,-0.38356 6.4314,-0.30805 h 0.2799 c 13.7651,-29.58068 20.9667,-68.4259 24.8864,-83.91429 1.4847,-5.86983 2.4686,-7.94283 3.4602,-8.52826 z"
                   id="path5108-2-5-3-2-7-84-4-5-3-9-2"
                   inkscape:connector-curvature="0"
                   sodipodi:nodetypes="ccccccccccccccccccccccccccccccccccccccccc" />
                <path
                   style="fill:url(#linearGradient549);fill-opacity:1;stroke:none;stroke-width:6.797;stroke-miterlimit:4;stroke-dasharray:none"
                   d="m 1024.8848,-256.22185 c 9.1422,-0.74224 17,6.28201 17.8958,15.94025 l 0.2849,0.30804 c 0.7064,9.8287 -6.3735,18.49826 -15.6589,19.24937 -9.2854,0.7422 -17.4682,-6.71615 -18.1752,-16.54484 -0.7064,-9.82805 6.3735,-18.19771 15.6589,-18.9454 z"
                   id="rect8672-5-5-8-7-0-1-2-1-3-9-9-1-3-8"
                   inkscape:connector-curvature="0" />
              </g>
            </g>
            <g
               id="g2732-4-4-6-0"
               transform="matrix(0.33281399,0,0,0.33281399,117.37335,223.55993)">
              <g
                 inkscape:transform-center-y="12.512707"
                 inkscape:transform-center-x="3.0166355"
                 style="display:inline;opacity:1;fill:url(#linearGradient557);fill-opacity:1;stroke:none"
                 transform="matrix(-0.12768005,0.19191926,-0.19191926,-0.12768005,382.15808,182.30613)"
                 id="g5162-7-8-9-8-3-5-6-1-6-92-0-3">
                <path
                   style="fill:url(#linearGradient553);fill-opacity:1;stroke:none;stroke-width:3.897;stroke-miterlimit:4;stroke-dasharray:none"
                   d="m 1062.3638,-391.15918 c 1.6518,-0.97979 2.2991,4.37996 2.2375,12.33195 -0.103,12.11697 -3.5351,58.7745 -16.2182,84.21415 1.9576,0.82165 3.7485,1.90072 5.5925,3.00785 24.7389,-19.33633 50.634,-42.90062 61.2367,-59.85288 11.2886,-18.04909 9.6524,-5.61854 4.1945,5.71581 -9.5321,19.79026 -32.1858,47.98515 -51.7298,65.86717 0.9379,1.12974 1.9397,2.10679 2.7961,3.30638 27.54,-9.36452 51.6911,-20.47702 68.2277,-30.07502 18.0083,-10.45315 12.804,-0.3355 3.3546,7.51927 -8.8534,7.36589 -38.7847,28.0319 -63.4735,39.09922 0.9656,2.91613 1.7237,5.95547 2.2376,9.02219 23.2129,-1.07907 43.7928,-4.43887 58.9998,-8.12044 18.6787,-4.52373 11.52,3.77472 1.1174,8.42171 -8.936,3.99378 -36.2327,12.69277 -59.8392,16.54141 -0.367,2.80655 -0.8687,5.62267 -1.6776,8.42239 23.7316,13.19943 36.0165,20.26478 48.9337,26.46531 13.3628,6.41832 7.2128,6.29712 -1.1175,5.11533 -11.073,-1.56727 -35.7189,-10.35044 -53.9672,-17.44591 -0.1802,0 -0.3799,-0.26 -0.557,-0.30805 l -17.6158,-6.91879 c 23.2335,-39.32043 -33.2462,-79.97044 -59.27975,-32.78159 -0.8687,1.56654 -1.7211,3.34194 -2.5176,5.11258 -0.7935,1.77197 -1.5208,3.73975 -2.2349,5.71508 l -13.4227,-14.13679 c -10.966,-12.08684 -16.1244,-20.25383 -22.6487,-28.27087 -8.7003,-10.69213 -2.6237,-7.77669 6.4321,-0.90037 6.1451,4.66479 14.4068,10.14506 23.2082,17.44252 1.9986,-3.02498 4.0828,-5.87469 6.1511,-8.42034 -9.8807,-28.972 -19.0852,-53.21 -24.327,-67.0695 -5.3011,-14.01837 -0.653,-9.14065 5.8725,0.59567 6.1968,9.24606 20.9756,35.66413 29.63965,55.03951 3.4937,-2.82847 7.0899,-5.17968 10.6251,-6.91879 0.1542,-31.16575 0.7113,-70.4163 0.285,-85.41648 -0.4344,-15.09195 3.5657,-9.09134 5.3126,2.70796 1.8959,12.79274 6.5665,52.36236 8.6688,78.49902 2.1708,-0.26 4.3087,-0.38356 6.4314,-0.30805 h 0.2799 c 13.7651,-29.58068 20.9667,-68.4259 24.8864,-83.91429 1.4847,-5.86983 2.4686,-7.94283 3.4602,-8.52826 z"
                   id="path5108-2-5-3-2-7-7-2-8-7-9-0-5-7"
                   inkscape:connector-curvature="0"
                   sodipodi:nodetypes="ccccccccccccccccccccccccccccccccccccccccc" />
                <path
                   style="fill:url(#linearGradient555);fill-opacity:1;stroke:none;stroke-width:6.797;stroke-miterlimit:4;stroke-dasharray:none"
                   d="m 1024.8848,-256.22185 c 9.1422,-0.74224 17,6.28201 17.8958,15.94025 l 0.2849,0.30804 c 0.7064,9.8287 -6.3735,18.49826 -15.6589,19.24937 -9.2854,0.7422 -17.4682,-6.71615 -18.1752,-16.54484 -0.7064,-9.82805 6.3735,-18.19771 15.6589,-18.9454 z"
                   id="rect8672-5-5-8-7-0-1-2-1-4-5-9-2-2-6-02-0"
                   inkscape:connector-curvature="0" />
              </g>
            </g>
            <g
               id="g2742-2-8-94-0"
               transform="matrix(0.33281399,0,0,0.33281399,117.37335,223.55993)">
              <g
                 inkscape:transform-center-y="12.512708"
                 inkscape:transform-center-x="-3.0166375"
                 style="display:inline;opacity:1;fill:url(#linearGradient3558);fill-opacity:1;stroke:none"
                 transform="matrix(0.12768005,0.19191926,0.19191926,-0.12768005,15.491739,184.58953)"
                 id="g5162-7-8-9-8-3-5-0-4-9-3-3">
                <path
                   style="fill:url(#linearGradient559);fill-opacity:1;stroke:none;stroke-width:3.897;stroke-miterlimit:4;stroke-dasharray:none"
                   d="m 1062.3638,-391.15918 c 1.6518,-0.97979 2.2991,4.37996 2.2375,12.33195 -0.103,12.11697 -3.5351,58.7745 -16.2182,84.21415 1.9576,0.82165 3.7485,1.90072 5.5925,3.00785 24.7389,-19.33633 50.634,-42.90062 61.2367,-59.85288 11.2886,-18.04909 9.6524,-5.61854 4.1945,5.71581 -9.5321,19.79026 -32.1858,47.98515 -51.7298,65.86717 0.9379,1.12974 1.9397,2.10679 2.7961,3.30638 27.54,-9.36452 51.6911,-20.47702 68.2277,-30.07502 18.0083,-10.45315 12.804,-0.3355 3.3546,7.51927 -8.8534,7.36589 -38.7847,28.0319 -63.4735,39.09922 0.9656,2.91613 1.7237,5.95547 2.2376,9.02219 23.2129,-1.07907 43.7928,-4.43887 58.9998,-8.12044 18.6787,-4.52373 11.52,3.77472 1.1174,8.42171 -8.936,3.99378 -36.2327,12.69277 -59.8392,16.54141 -0.367,2.80655 -0.8687,5.62267 -1.6776,8.42239 23.7316,13.19943 36.0165,20.26478 48.9337,26.46531 13.3628,6.41832 7.2128,6.29712 -1.1175,5.11533 -11.073,-1.56727 -35.7189,-10.35044 -53.9672,-17.44591 -0.1802,0 -0.3799,-0.26 -0.557,-0.30805 l -17.6158,-6.91879 c 23.2335,-39.32043 -33.2462,-79.97044 -59.27975,-32.78159 -0.8687,1.56654 -1.7211,3.34194 -2.5176,5.11258 -0.7935,1.77197 -1.5208,3.73975 -2.2349,5.71508 l -13.4227,-14.13679 c -10.966,-12.08684 -16.1244,-20.25383 -22.6487,-28.27087 -8.7003,-10.69213 -2.6237,-7.77669 6.4321,-0.90037 6.1451,4.66479 14.4068,10.14506 23.2082,17.44252 1.9986,-3.02498 4.0828,-5.87469 6.1511,-8.42034 -9.8807,-28.972 -19.0852,-53.21 -24.327,-67.0695 -5.3011,-14.01837 -0.653,-9.14065 5.8725,0.59567 6.1968,9.24606 20.9756,35.66413 29.63965,55.03951 3.4937,-2.82847 7.0899,-5.17968 10.6251,-6.91879 0.1542,-31.16575 0.7113,-70.4163 0.285,-85.41648 -0.4344,-15.09195 3.5657,-9.09134 5.3126,2.70796 1.8959,12.79274 6.5665,52.36236 8.6688,78.49902 2.1708,-0.26 4.3087,-0.38356 6.4314,-0.30805 h 0.2799 c 13.7651,-29.58068 20.9667,-68.4259 24.8864,-83.91429 1.4847,-5.86983 2.4686,-7.94283 3.4602,-8.52826 z"
                   id="path5108-2-5-3-2-7-7-2-6-7-2-5-4"
                   inkscape:connector-curvature="0"
                   sodipodi:nodetypes="ccccccccccccccccccccccccccccccccccccccccc" />
                <path
                   style="fill:url(#linearGradient561);fill-opacity:1;stroke:none;stroke-width:6.797;stroke-miterlimit:4;stroke-dasharray:none"
                   d="m 1024.8848,-256.22185 c 9.1422,-0.74224 17,6.28201 17.8958,15.94025 l 0.2849,0.30804 c 0.7064,9.8287 -6.3735,18.49826 -15.6589,19.24937 -9.2854,0.7422 -17.4682,-6.71615 -18.1752,-16.54484 -0.7064,-9.82805 6.3735,-18.19771 15.6589,-18.9454 z"
                   id="rect8672-5-5-8-7-0-1-2-1-4-5-1-7-6-1-9"
                   inkscape:connector-curvature="0" />
              </g>
            </g>
            <g
               id="g2747-5-6-7-2"
               transform="matrix(0.33281399,0,0,0.33281399,117.37335,223.55993)">
              <g
                 inkscape:transform-center-y="7.1323877"
                 inkscape:transform-center-x="11.700242"
                 style="display:inline;opacity:1;fill:url(#linearGradient567);fill-opacity:1;stroke:none"
                 transform="matrix(-0.10180954,0.20680913,0.20680913,0.10180954,212.81947,124.50385)"
                 id="g5162-7-8-9-8-8-4-4-4-4-7">
                <path
                   style="fill:url(#linearGradient563);fill-opacity:1;stroke:none;stroke-width:3.897;stroke-miterlimit:4;stroke-dasharray:none"
                   d="m 1062.3638,-391.15918 c 1.6518,-0.97979 2.2991,4.37996 2.2375,12.33195 -0.103,12.11697 -3.5351,58.7745 -16.2182,84.21415 1.9576,0.82165 3.7485,1.90072 5.5925,3.00785 24.7389,-19.33633 50.634,-42.90062 61.2367,-59.85288 11.2886,-18.04909 9.6524,-5.61854 4.1945,5.71581 -9.5321,19.79026 -32.1858,47.98515 -51.7298,65.86717 0.9379,1.12974 1.9397,2.10679 2.7961,3.30638 27.54,-9.36452 51.6911,-20.47702 68.2277,-30.07502 18.0083,-10.45315 12.804,-0.3355 3.3546,7.51927 -8.8534,7.36589 -38.7847,28.0319 -63.4735,39.09922 0.9656,2.91613 1.7237,5.95547 2.2376,9.02219 23.2129,-1.07907 43.7928,-4.43887 58.9998,-8.12044 18.6787,-4.52373 11.52,3.77472 1.1174,8.42171 -8.936,3.99378 -36.2327,12.69277 -59.8392,16.54141 -0.367,2.80655 -0.8687,5.62267 -1.6776,8.42239 23.7316,13.19943 36.0165,20.26478 48.9337,26.46531 13.3628,6.41832 7.2128,6.29712 -1.1175,5.11533 -11.073,-1.56727 -35.7189,-10.35044 -53.9672,-17.44591 -0.1802,0 -0.3799,-0.26 -0.557,-0.30805 l -17.6158,-6.91879 c 23.2335,-39.32043 -33.2462,-79.97044 -59.27975,-32.78159 -0.8687,1.56654 -1.7211,3.34194 -2.5176,5.11258 -0.7935,1.77197 -1.5208,3.73975 -2.2349,5.71508 l -13.4227,-14.13679 c -10.966,-12.08684 -16.1244,-20.25383 -22.6487,-28.27087 -8.7003,-10.69213 -2.6237,-7.77669 6.4321,-0.90037 6.1451,4.66479 14.4068,10.14506 23.2082,17.44252 1.9986,-3.02498 4.0828,-5.87469 6.1511,-8.42034 -9.8807,-28.972 -19.0852,-53.21 -24.327,-67.0695 -5.3011,-14.01837 -0.653,-9.14065 5.8725,0.59567 6.1968,9.24606 20.9756,35.66413 29.63965,55.03951 3.4937,-2.82847 7.0899,-5.17968 10.6251,-6.91879 0.1542,-31.16575 0.7113,-70.4163 0.285,-85.41648 -0.4344,-15.09195 3.5657,-9.09134 5.3126,2.70796 1.8959,12.79274 6.5665,52.36236 8.6688,78.49902 2.1708,-0.26 4.3087,-0.38356 6.4314,-0.30805 h 0.2799 c 13.7651,-29.58068 20.9667,-68.4259 24.8864,-83.91429 1.4847,-5.86983 2.4686,-7.94283 3.4602,-8.52826 z"
                   id="path5108-2-5-3-2-7-84-9-8-9-3-4"
                   inkscape:connector-curvature="0"
                   sodipodi:nodetypes="ccccccccccccccccccccccccccccccccccccccccc" />
                <path
                   style="fill:url(#linearGradient565);fill-opacity:1;stroke:none;stroke-width:6.797;stroke-miterlimit:4;stroke-dasharray:none"
                   d="m 1024.8848,-256.22185 c 9.1422,-0.74224 17,6.28201 17.8958,15.94025 l 0.2849,0.30804 c 0.7064,9.8287 -6.3735,18.49826 -15.6589,19.24937 -9.2854,0.7422 -17.4682,-6.71615 -18.1752,-16.54484 -0.7064,-9.82805 6.3735,-18.19771 15.6589,-18.9454 z"
                   id="rect8672-5-5-8-7-0-1-2-1-3-0-1-50-1-2"
                   inkscape:connector-curvature="0" />
              </g>
            </g>
            <g
               id="g2727-2-4-4-5"
               transform="matrix(0.33281399,0,0,0.33281399,117.37335,223.55993)">
              <g
                 inkscape:transform-center-y="7.1323877"
                 inkscape:transform-center-x="-11.700239"
                 style="display:inline;opacity:1;fill:url(#linearGradient3552);fill-opacity:1;stroke:none"
                 transform="matrix(0.10180954,0.20680913,-0.20680913,0.10180954,183.35598,125.65097)"
                 id="g5162-7-8-9-8-8-4-1-8-8-6-2">
                <path
                   style="fill:url(#linearGradient569);fill-opacity:1;stroke:none;stroke-width:3.897;stroke-miterlimit:4;stroke-dasharray:none"
                   d="m 1062.3638,-391.15918 c 1.6518,-0.97979 2.2991,4.37996 2.2375,12.33195 -0.103,12.11697 -3.5351,58.7745 -16.2182,84.21415 1.9576,0.82165 3.7485,1.90072 5.5925,3.00785 24.7389,-19.33633 50.634,-42.90062 61.2367,-59.85288 11.2886,-18.04909 9.6524,-5.61854 4.1945,5.71581 -9.5321,19.79026 -32.1858,47.98515 -51.7298,65.86717 0.9379,1.12974 1.9397,2.10679 2.7961,3.30638 27.54,-9.36452 51.6911,-20.47702 68.2277,-30.07502 18.0083,-10.45315 12.804,-0.3355 3.3546,7.51927 -8.8534,7.36589 -38.7847,28.0319 -63.4735,39.09922 0.9656,2.91613 1.7237,5.95547 2.2376,9.02219 23.2129,-1.07907 43.7928,-4.43887 58.9998,-8.12044 18.6787,-4.52373 11.52,3.77472 1.1174,8.42171 -8.936,3.99378 -36.2327,12.69277 -59.8392,16.54141 -0.367,2.80655 -0.8687,5.62267 -1.6776,8.42239 23.7316,13.19943 36.0165,20.26478 48.9337,26.46531 13.3628,6.41832 7.2128,6.29712 -1.1175,5.11533 -11.073,-1.56727 -35.7189,-10.35044 -53.9672,-17.44591 -0.1802,0 -0.3799,-0.26 -0.557,-0.30805 l -17.6158,-6.91879 c 23.2335,-39.32043 -33.2462,-79.97044 -59.27975,-32.78159 -0.8687,1.56654 -1.7211,3.34194 -2.5176,5.11258 -0.7935,1.77197 -1.5208,3.73975 -2.2349,5.71508 l -13.4227,-14.13679 c -10.966,-12.08684 -16.1244,-20.25383 -22.6487,-28.27087 -8.7003,-10.69213 -2.6237,-7.77669 6.4321,-0.90037 6.1451,4.66479 14.4068,10.14506 23.2082,17.44252 1.9986,-3.02498 4.0828,-5.87469 6.1511,-8.42034 -9.8807,-28.972 -19.0852,-53.21 -24.327,-67.0695 -5.3011,-14.01837 -0.653,-9.14065 5.8725,0.59567 6.1968,9.24606 20.9756,35.66413 29.63965,55.03951 3.4937,-2.82847 7.0899,-5.17968 10.6251,-6.91879 0.1542,-31.16575 0.7113,-70.4163 0.285,-85.41648 -0.4344,-15.09195 3.5657,-9.09134 5.3126,2.70796 1.8959,12.79274 6.5665,52.36236 8.6688,78.49902 2.1708,-0.26 4.3087,-0.38356 6.4314,-0.30805 h 0.2799 c 13.7651,-29.58068 20.9667,-68.4259 24.8864,-83.91429 1.4847,-5.86983 2.4686,-7.94283 3.4602,-8.52826 z"
                   id="path5108-2-5-3-2-7-84-9-5-9-7-9-4"
                   inkscape:connector-curvature="0"
                   sodipodi:nodetypes="ccccccccccccccccccccccccccccccccccccccccc" />
                <path
                   style="fill:url(#linearGradient571);fill-opacity:1;stroke:none;stroke-width:6.797;stroke-miterlimit:4;stroke-dasharray:none"
                   d="m 1024.8848,-256.22185 c 9.1422,-0.74224 17,6.28201 17.8958,15.94025 l 0.2849,0.30804 c 0.7064,9.8287 -6.3735,18.49826 -15.6589,19.24937 -9.2854,0.7422 -17.4682,-6.71615 -18.1752,-16.54484 -0.7064,-9.82805 6.3735,-18.19771 15.6589,-18.9454 z"
                   id="rect8672-5-5-8-7-0-1-2-1-3-0-9-3-1-4-4"
                   inkscape:connector-curvature="0" />
              </g>
            </g>
            <circle
               style="opacity:0.813;fill:#000000;fill-opacity:0;stroke:#5fd38d;stroke-width:0.56613;stroke-miterlimit:4;stroke-dasharray:none;stroke-opacity:1"
               id="path1725-2-5-6-7-2-3"
               cx="182.92561"
               cy="328.06879"
               r="63.924171" />
            <g
               transform="matrix(0.13820835,-0.15759428,0.15759428,0.13820835,152.38347,217.21758)"
               id="g2626-3-1-9-0-80-2-2-8">
              <path
                 d="m -76.271996,248.49266 0.761399,1.42801 c 0.06853,0.16634 0.135951,0.33305 0.200073,0.50118 l 0.03546,-0.0592 0.08839,0.16522 c 9.900256,-10.86316 25.139387,5.59 11.512408,14.20542 l 0.552471,1.18893 -0.02072,0.0245 c 0.103343,0.22067 0.218672,0.44488 0.344216,0.67193 l 0.128254,0.27584 0.01861,-0.0158 c 2.928634,5.028 11.100417,11.69445 23.835691,21.67831 -8.525463,-8.71127 -16.999717,-16.35072 -20.562243,-24.84016 0.148415,-0.18243 0.290791,-0.3655 0.427718,-0.54895 4.072483,4.04101 14.031279,7.9808 29.725608,13.82027 -10.596662,-5.61852 -20.831541,-10.26365 -26.847467,-17.08657 5.269586,2.465 15.784957,3.28677 31.946269,4.23459 -11.341809,-2.17986 -22.097309,-3.59546 -29.800632,-7.94553 5.981566,0.16857 15.794609,-2.24956 30.15991,-6.05009 -12.368912,1.58393 -23.810991,3.80039 -32.829103,1.2586 5.610923,-1.17171 14.374504,-7.34438 27.891409,-17.28568 -10.023095,5.5122 -19.124946,11.23446 -27.756521,12.87075 4.321013,-4.16175 9.518101,-12.76305 16.909465,-25.47329 -7.438854,9.62403 -13.827396,19.05077 -21.722752,23.75851 2.596023,-5.21998 3.734854,-15.67986 5.169505,-31.71942 -2.640585,11.78044 -4.427512,22.94645 -9.496305,30.55279 -0.02088,-5.83271 -3.675805,-15.69171 -9.554719,-30.66123 2.91592,11.76586 6.324833,22.59276 5.149072,31.68521 -0.106371,0.0261 -0.213237,0.0531 -0.320217,0.0821 -1.696737,-5.43334 -8.928011,-13.44488 -20.61271,-25.85646 6.507591,9.04015 13.107544,17.18898 15.912031,25.33938 -3.78641,-4.67743 -11.784582,-10.64041 -23.555197,-19.11858 8.751752,8.24379 18.273207,14.76168 22.383349,22.85587 l -0.07451,0.0625 z m 19.04026,2.71908 -0.04187,-0.0905 0.0723,0.0999 -0.03039,-0.009 z"
                 id="path166-95-2-7-0-2-6-9-2-0-9-2-72-6-6"
                 style="fill:#01b0ae;fill-opacity:0.984314;fill-rule:evenodd;stroke-width:2.8398"
                 inkscape:connector-curvature="0" />
              <path
                 d="m -24.403466,215.3525 c -16.637873,18.53482 -27.343793,30.11463 -34.778504,34.56446 l -1.856875,-0.52266 c 13.115313,-6.62551 22.484923,-20.83147 36.635379,-34.0418 z m -82.552304,-4.58972 c 18.037205,17.17621 29.296911,28.21791 33.526187,35.78075 l -0.577037,1.84067 c -6.236611,-13.30501 -20.160692,-23.08838 -32.94915,-37.62142 z m 13.749806,-8.20516 c 13.545314,20.90215 21.926521,34.26085 24.280171,42.59993 l -0.989695,1.65591 c -2.969627,-14.39068 -14.234603,-27.14591 -23.290476,-44.25584 z m 24.732353,-6.32289 c 2.757719,24.75433 4.273422,40.45153 2.645347,48.96187 l -1.625726,1.03807 c 3.785456,-14.19817 -0.579706,-30.64599 -1.019621,-49.99994 z m 24.701439,5.44985 c -8.181162,23.52556 -13.579086,38.34316 -18.715944,45.32114 l -1.914892,0.23551 c 9.535686,-11.17997 12.685939,-27.90325 20.630836,-45.55665 z m 32.553812,32.78746 c -22.570412,10.53348 -36.956953,16.99256 -45.54103,18.17368 l -1.503729,-1.20836 c 14.663002,-0.95668 28.849438,-10.35564 47.044759,-16.96532 z m 1.13657,39.79708 c -24.267737,-5.60858 -39.57914,-9.38435 -47.068008,-13.7429 l -0.43988,-1.8782 c 12.138903,8.28024 29.103815,9.6171 47.507888,15.6211 z m -10.346623,18.14392 C -41.423733,279.01262 -54.591305,270.3342 -60.191752,263.7226 l 0.213723,-1.91734 c 8.671386,11.86267 24.212418,18.79556 39.549616,30.60778 z m 13.0476625,-37.31631 c -24.8341145,1.9072 -40.5741355,2.8839 -49.0238935,0.96512 l -0.981449,-1.66045 c 14.059963,4.26998 30.64785,0.4715 50.0053425,0.69533 z"
                 id="path326-37-1-2-2-1-65-4-9-8-6-1-2-4-0"
                 style="fill:#01b0ae;fill-opacity:0.984314;fill-rule:evenodd;stroke-width:2.8398"
                 inkscape:connector-curvature="0" />
              <path
                 d="m -61.964662,255.79206 c 0.251401,2.96635 -1.927426,5.57313 -4.865179,5.82208 -2.939985,0.24929 -5.524651,-1.95399 -5.776023,-4.92036 -0.251386,-2.96629 1.925737,-5.57273 4.865737,-5.82186 2.937738,-0.2491 5.524108,1.95383 5.775465,4.92014 z"
                 id="path147-4-2-9-2-0-9-6-8-3-8-3-0-6-1-8"
                 style="display:inline;fill:#8fc394;fill-opacity:1;fill-rule:nonzero;stroke-width:0.67875"
                 inkscape:connector-curvature="0" />
            </g>
            <path
               style="fill:none;stroke:#001817;stroke-width:0.455416px;stroke-linecap:butt;stroke-linejoin:miter;stroke-opacity:0.87451"
               d="m 183.49883,335.144 v 68.77729 -0.32907"
               id="path2981-3-5-1-2-9"
               inkscape:connector-curvature="0" />
            <g
               transform="matrix(0.13820835,0.15759428,0.15759428,-0.13820835,152.25015,439.5253)"
               id="g2626-3-1-9-0-8-1-06-88-2">
              <path
                 d="m -76.271996,248.49266 0.761399,1.42801 c 0.06853,0.16634 0.135951,0.33305 0.200073,0.50118 l 0.03546,-0.0592 0.08839,0.16522 c 9.900256,-10.86316 25.139387,5.59 11.512408,14.20542 l 0.552471,1.18893 -0.02072,0.0245 c 0.103343,0.22067 0.218672,0.44488 0.344216,0.67193 l 0.128254,0.27584 0.01861,-0.0158 c 2.928634,5.028 11.100417,11.69445 23.835691,21.67831 -8.525463,-8.71127 -16.999717,-16.35072 -20.562243,-24.84016 0.148415,-0.18243 0.290791,-0.3655 0.427718,-0.54895 4.072483,4.04101 14.031279,7.9808 29.725608,13.82027 -10.596662,-5.61852 -20.831541,-10.26365 -26.847467,-17.08657 5.269586,2.465 15.784957,3.28677 31.946269,4.23459 -11.341809,-2.17986 -22.097309,-3.59546 -29.800632,-7.94553 5.981566,0.16857 15.794609,-2.24956 30.15991,-6.05009 -12.368912,1.58393 -23.810991,3.80039 -32.829103,1.2586 5.610923,-1.17171 14.374504,-7.34438 27.891409,-17.28568 -10.023095,5.5122 -19.124946,11.23446 -27.756521,12.87075 4.321013,-4.16175 9.518101,-12.76305 16.909465,-25.47329 -7.438854,9.62403 -13.827396,19.05077 -21.722752,23.75851 2.596023,-5.21998 3.734854,-15.67986 5.169505,-31.71942 -2.640585,11.78044 -4.427512,22.94645 -9.496305,30.55279 -0.02088,-5.83271 -3.675805,-15.69171 -9.554719,-30.66123 2.91592,11.76586 6.324833,22.59276 5.149072,31.68521 -0.106371,0.0261 -0.213237,0.0531 -0.320217,0.0821 -1.696737,-5.43334 -8.928011,-13.44488 -20.61271,-25.85646 6.507591,9.04015 13.107544,17.18898 15.912031,25.33938 -3.78641,-4.67743 -11.784582,-10.64041 -23.555197,-19.11858 8.751752,8.24379 18.273207,14.76168 22.383349,22.85587 l -0.07451,0.0625 z m 19.04026,2.71908 -0.04187,-0.0905 0.0723,0.0999 -0.03039,-0.009 z"
                 id="path166-95-2-7-0-2-6-9-2-0-9-5-1-1-9-2"
                 style="fill:#01b0ae;fill-opacity:0.984314;fill-rule:evenodd;stroke-width:2.8398"
                 inkscape:connector-curvature="0" />
              <path
                 d="m -24.403466,215.3525 c -16.637873,18.53482 -27.343793,30.11463 -34.778504,34.56446 l -1.856875,-0.52266 c 13.115313,-6.62551 22.484923,-20.83147 36.635379,-34.0418 z m -82.552304,-4.58972 c 18.037205,17.17621 29.296911,28.21791 33.526187,35.78075 l -0.577037,1.84067 c -6.236611,-13.30501 -20.160692,-23.08838 -32.94915,-37.62142 z m 13.749806,-8.20516 c 13.545314,20.90215 21.926521,34.26085 24.280171,42.59993 l -0.989695,1.65591 c -2.969627,-14.39068 -14.234603,-27.14591 -23.290476,-44.25584 z m 24.732353,-6.32289 c 2.757719,24.75433 4.273422,40.45153 2.645347,48.96187 l -1.625726,1.03807 c 3.785456,-14.19817 -0.579706,-30.64599 -1.019621,-49.99994 z m 24.701439,5.44985 c -8.181162,23.52556 -13.579086,38.34316 -18.715944,45.32114 l -1.914892,0.23551 c 9.535686,-11.17997 12.685939,-27.90325 20.630836,-45.55665 z m 32.553812,32.78746 c -22.570412,10.53348 -36.956953,16.99256 -45.54103,18.17368 l -1.503729,-1.20836 c 14.663002,-0.95668 28.849438,-10.35564 47.044759,-16.96532 z m 1.13657,39.79708 c -24.267737,-5.60858 -39.57914,-9.38435 -47.068008,-13.7429 l -0.43988,-1.8782 c 12.138903,8.28024 29.103815,9.6171 47.507888,15.6211 z m -10.346623,18.14392 C -41.423733,279.01262 -54.591305,270.3342 -60.191752,263.7226 l 0.213723,-1.91734 c 8.671386,11.86267 24.212418,18.79556 39.549616,30.60778 z m 13.0476625,-37.31631 c -24.8341145,1.9072 -40.5741355,2.8839 -49.0238935,0.96512 l -0.981449,-1.66045 c 14.059963,4.26998 30.64785,0.4715 50.0053425,0.69533 z"
                 id="path326-37-1-2-2-1-65-4-9-8-6-6-0-59-28-3"
                 style="fill:#01b0ae;fill-opacity:0.984314;fill-rule:evenodd;stroke-width:2.8398"
                 inkscape:connector-curvature="0" />
              <path
                 d="m -61.964662,255.79206 c 0.251401,2.96635 -1.927426,5.57313 -4.865179,5.82208 -2.939985,0.24929 -5.524651,-1.95399 -5.776023,-4.92036 -0.251386,-2.96629 1.925737,-5.57273 4.865737,-5.82186 2.937738,-0.2491 5.524108,1.95383 5.775465,4.92014 z"
                 id="path147-4-2-9-2-0-9-6-8-3-8-3-1-8-4-8-1"
                 style="display:inline;fill:#8fc394;fill-opacity:1;fill-rule:nonzero;stroke-width:0.67875"
                 inkscape:connector-curvature="0" />
            </g>
            <path
               style="fill:none;stroke:#000000;stroke-width:0.471071px;stroke-linecap:butt;stroke-linejoin:miter;stroke-opacity:1"
               d="m 189.67392,328.48529 68.2163,0.0114"
               id="path2919-4-47-6-5-9-86-8"
               inkscape:connector-curvature="0"
               sodipodi:nodetypes="cc" />
            <g
               transform="matrix(0.17164838,0.12030933,-0.12030933,0.17164838,290.80014,292.48937)"
               id="g2626-3-1-9-0-9-0-0-8-3">
              <path
                 d="m -76.271996,248.49266 0.761399,1.42801 c 0.06853,0.16634 0.135951,0.33305 0.200073,0.50118 l 0.03546,-0.0592 0.08839,0.16522 c 9.900256,-10.86316 25.139387,5.59 11.512408,14.20542 l 0.552471,1.18893 -0.02072,0.0245 c 0.103343,0.22067 0.218672,0.44488 0.344216,0.67193 l 0.128254,0.27584 0.01861,-0.0158 c 2.928634,5.028 11.100417,11.69445 23.835691,21.67831 -8.525463,-8.71127 -16.999717,-16.35072 -20.562243,-24.84016 0.148415,-0.18243 0.290791,-0.3655 0.427718,-0.54895 4.072483,4.04101 14.031279,7.9808 29.725608,13.82027 -10.596662,-5.61852 -20.831541,-10.26365 -26.847467,-17.08657 5.269586,2.465 15.784957,3.28677 31.946269,4.23459 -11.341809,-2.17986 -22.097309,-3.59546 -29.800632,-7.94553 5.981566,0.16857 15.794609,-2.24956 30.15991,-6.05009 -12.368912,1.58393 -23.810991,3.80039 -32.829103,1.2586 5.610923,-1.17171 14.374504,-7.34438 27.891409,-17.28568 -10.023095,5.5122 -19.124946,11.23446 -27.756521,12.87075 4.321013,-4.16175 9.518101,-12.76305 16.909465,-25.47329 -7.438854,9.62403 -13.827396,19.05077 -21.722752,23.75851 2.596023,-5.21998 3.734854,-15.67986 5.169505,-31.71942 -2.640585,11.78044 -4.427512,22.94645 -9.496305,30.55279 -0.02088,-5.83271 -3.675805,-15.69171 -9.554719,-30.66123 2.91592,11.76586 6.324833,22.59276 5.149072,31.68521 -0.106371,0.0261 -0.213237,0.0531 -0.320217,0.0821 -1.696737,-5.43334 -8.928011,-13.44488 -20.61271,-25.85646 6.507591,9.04015 13.107544,17.18898 15.912031,25.33938 -3.78641,-4.67743 -11.784582,-10.64041 -23.555197,-19.11858 8.751752,8.24379 18.273207,14.76168 22.383349,22.85587 l -0.07451,0.0625 z m 19.04026,2.71908 -0.04187,-0.0905 0.0723,0.0999 -0.03039,-0.009 z"
                 id="path166-95-2-7-0-2-6-9-2-0-9-8-6-9-3-4"
                 style="fill:#01b0ae;fill-opacity:0.984314;fill-rule:evenodd;stroke-width:2.8398"
                 inkscape:connector-curvature="0" />
              <path
                 d="m -24.403466,215.3525 c -16.637873,18.53482 -27.343793,30.11463 -34.778504,34.56446 l -1.856875,-0.52266 c 13.115313,-6.62551 22.484923,-20.83147 36.635379,-34.0418 z m -82.552304,-4.58972 c 18.037205,17.17621 29.296911,28.21791 33.526187,35.78075 l -0.577037,1.84067 c -6.236611,-13.30501 -20.160692,-23.08838 -32.94915,-37.62142 z m 13.749806,-8.20516 c 13.545314,20.90215 21.926521,34.26085 24.280171,42.59993 l -0.989695,1.65591 c -2.969627,-14.39068 -14.234603,-27.14591 -23.290476,-44.25584 z m 24.732353,-6.32289 c 2.757719,24.75433 4.273422,40.45153 2.645347,48.96187 l -1.625726,1.03807 c 3.785456,-14.19817 -0.579706,-30.64599 -1.019621,-49.99994 z m 24.701439,5.44985 c -8.181162,23.52556 -13.579086,38.34316 -18.715944,45.32114 l -1.914892,0.23551 c 9.535686,-11.17997 12.685939,-27.90325 20.630836,-45.55665 z m 32.553812,32.78746 c -22.570412,10.53348 -36.956953,16.99256 -45.54103,18.17368 l -1.503729,-1.20836 c 14.663002,-0.95668 28.849438,-10.35564 47.044759,-16.96532 z m 1.13657,39.79708 c -24.267737,-5.60858 -39.57914,-9.38435 -47.068008,-13.7429 l -0.43988,-1.8782 c 12.138903,8.28024 29.103815,9.6171 47.507888,15.6211 z m -10.346623,18.14392 C -41.423733,279.01262 -54.591305,270.3342 -60.191752,263.7226 l 0.213723,-1.91734 c 8.671386,11.86267 24.212418,18.79556 39.549616,30.60778 z m 13.0476625,-37.31631 c -24.8341145,1.9072 -40.5741355,2.8839 -49.0238935,0.96512 l -0.981449,-1.66045 c 14.059963,4.26998 30.64785,0.4715 50.0053425,0.69533 z"
                 id="path326-37-1-2-2-1-65-4-9-8-6-4-4-1-83-2"
                 style="fill:#01b0ae;fill-opacity:0.984314;fill-rule:evenodd;stroke-width:2.8398"
                 inkscape:connector-curvature="0" />
              <path
                 d="m -61.964662,255.79206 c 0.251401,2.96635 -1.927426,5.57313 -4.865179,5.82208 -2.939985,0.24929 -5.524651,-1.95399 -5.776023,-4.92036 -0.251386,-2.96629 1.925737,-5.57273 4.865737,-5.82186 2.937738,-0.2491 5.524108,1.95383 5.775465,4.92014 z"
                 id="path147-4-2-9-2-0-9-6-8-3-8-3-8-6-7-3-2"
                 style="display:inline;fill:#8fc394;fill-opacity:1;fill-rule:nonzero;stroke-width:0.67875"
                 inkscape:connector-curvature="0" />
            </g>
            <circle
               style="opacity:0.813;fill:none;fill-opacity:1;stroke:#008066;stroke-width:0.452489;stroke-miterlimit:4;stroke-dasharray:none;stroke-opacity:1"
               id="path1725-2-4-2-7-3-4"
               cx="183.49883"
               cy="328.01129"
               r="77.688484" />
            <g
               transform="matrix(-0.17164838,0.12030933,0.12030933,0.17164838,75.094904,292.48937)"
               id="g2626-3-1-9-0-9-1-5-11-8-5">
              <path
                 d="m -76.271996,248.49266 0.761399,1.42801 c 0.06853,0.16634 0.135951,0.33305 0.200073,0.50118 l 0.03546,-0.0592 0.08839,0.16522 c 9.900256,-10.86316 25.139387,5.59 11.512408,14.20542 l 0.552471,1.18893 -0.02072,0.0245 c 0.103343,0.22067 0.218672,0.44488 0.344216,0.67193 l 0.128254,0.27584 0.01861,-0.0158 c 2.928634,5.028 11.100417,11.69445 23.835691,21.67831 -8.525463,-8.71127 -16.999717,-16.35072 -20.562243,-24.84016 0.148415,-0.18243 0.290791,-0.3655 0.427718,-0.54895 4.072483,4.04101 14.031279,7.9808 29.725608,13.82027 -10.596662,-5.61852 -20.831541,-10.26365 -26.847467,-17.08657 5.269586,2.465 15.784957,3.28677 31.946269,4.23459 -11.341809,-2.17986 -22.097309,-3.59546 -29.800632,-7.94553 5.981566,0.16857 15.794609,-2.24956 30.15991,-6.05009 -12.368912,1.58393 -23.810991,3.80039 -32.829103,1.2586 5.610923,-1.17171 14.374504,-7.34438 27.891409,-17.28568 -10.023095,5.5122 -19.124946,11.23446 -27.756521,12.87075 4.321013,-4.16175 9.518101,-12.76305 16.909465,-25.47329 -7.438854,9.62403 -13.827396,19.05077 -21.722752,23.75851 2.596023,-5.21998 3.734854,-15.67986 5.169505,-31.71942 -2.640585,11.78044 -4.427512,22.94645 -9.496305,30.55279 -0.02088,-5.83271 -3.675805,-15.69171 -9.554719,-30.66123 2.91592,11.76586 6.324833,22.59276 5.149072,31.68521 -0.106371,0.0261 -0.213237,0.0531 -0.320217,0.0821 -1.696737,-5.43334 -8.928011,-13.44488 -20.61271,-25.85646 6.507591,9.04015 13.107544,17.18898 15.912031,25.33938 -3.78641,-4.67743 -11.784582,-10.64041 -23.555197,-19.11858 8.751752,8.24379 18.273207,14.76168 22.383349,22.85587 l -0.07451,0.0625 z m 19.04026,2.71908 -0.04187,-0.0905 0.0723,0.0999 -0.03039,-0.009 z"
                 id="path166-95-2-7-0-2-6-9-2-0-9-8-0-8-5-0-1"
                 style="fill:#01b0ae;fill-opacity:0.984314;fill-rule:evenodd;stroke-width:2.8398"
                 inkscape:connector-curvature="0" />
              <path
                 d="m -24.403466,215.3525 c -16.637873,18.53482 -27.343793,30.11463 -34.778504,34.56446 l -1.856875,-0.52266 c 13.115313,-6.62551 22.484923,-20.83147 36.635379,-34.0418 z m -82.552304,-4.58972 c 18.037205,17.17621 29.296911,28.21791 33.526187,35.78075 l -0.577037,1.84067 c -6.236611,-13.30501 -20.160692,-23.08838 -32.94915,-37.62142 z m 13.749806,-8.20516 c 13.545314,20.90215 21.926521,34.26085 24.280171,42.59993 l -0.989695,1.65591 c -2.969627,-14.39068 -14.234603,-27.14591 -23.290476,-44.25584 z m 24.732353,-6.32289 c 2.757719,24.75433 4.273422,40.45153 2.645347,48.96187 l -1.625726,1.03807 c 3.785456,-14.19817 -0.579706,-30.64599 -1.019621,-49.99994 z m 24.701439,5.44985 c -8.181162,23.52556 -13.579086,38.34316 -18.715944,45.32114 l -1.914892,0.23551 c 9.535686,-11.17997 12.685939,-27.90325 20.630836,-45.55665 z m 32.553812,32.78746 c -22.570412,10.53348 -36.956953,16.99256 -45.54103,18.17368 l -1.503729,-1.20836 c 14.663002,-0.95668 28.849438,-10.35564 47.044759,-16.96532 z m 1.13657,39.79708 c -24.267737,-5.60858 -39.57914,-9.38435 -47.068008,-13.7429 l -0.43988,-1.8782 c 12.138903,8.28024 29.103815,9.6171 47.507888,15.6211 z m -10.346623,18.14392 C -41.423733,279.01262 -54.591305,270.3342 -60.191752,263.7226 l 0.213723,-1.91734 c 8.671386,11.86267 24.212418,18.79556 39.549616,30.60778 z m 13.0476625,-37.31631 c -24.8341145,1.9072 -40.5741355,2.8839 -49.0238935,0.96512 l -0.981449,-1.66045 c 14.059963,4.26998 30.64785,0.4715 50.0053425,0.69533 z"
                 id="path326-37-1-2-2-1-65-4-9-8-6-4-3-6-9-4-7"
                 style="fill:#01b0ae;fill-opacity:0.984314;fill-rule:evenodd;stroke-width:2.8398"
                 inkscape:connector-curvature="0" />
              <path
                 d="m -61.964662,255.79206 c 0.251401,2.96635 -1.927426,5.57313 -4.865179,5.82208 -2.939985,0.24929 -5.524651,-1.95399 -5.776023,-4.92036 -0.251386,-2.96629 1.925737,-5.57273 4.865737,-5.82186 2.937738,-0.2491 5.524108,1.95383 5.775465,4.92014 z"
                 id="path147-4-2-9-2-0-9-6-8-3-8-3-8-0-2-7-7-5"
                 style="display:inline;fill:#8fc394;fill-opacity:1;fill-rule:nonzero;stroke-width:0.67875"
                 inkscape:connector-curvature="0" />
            </g>
            <g
               id="g2708-8-76-68-7"
               transform="matrix(0.58179956,0,0,0.58179956,214.81869,31.746144)"
               style="fill:#001818;fill-opacity:0.835294">
              <g
                 transform="rotate(-74.708021,106.49016,373.38479)"
                 id="g2626-4-7-9-1"
                 style="fill:#001818;fill-opacity:0.835294">
                <path
                   inkscape:connector-curvature="0"
                   style="fill:#001818;fill-opacity:0.835294;fill-rule:evenodd;stroke-width:2.8398"
                   id="path166-95-2-7-0-2-6-7-3-0-6"
                   d="m -76.271996,248.49266 0.761399,1.42801 c 0.06853,0.16634 0.135951,0.33305 0.200073,0.50118 l 0.03546,-0.0592 0.08839,0.16522 c 9.900256,-10.86316 25.139387,5.59 11.512408,14.20542 l 0.552471,1.18893 -0.02072,0.0245 c 0.103343,0.22067 0.218672,0.44488 0.344216,0.67193 l 0.128254,0.27584 0.01861,-0.0158 c 2.928634,5.028 11.100417,11.69445 23.835691,21.67831 -8.525463,-8.71127 -16.999717,-16.35072 -20.562243,-24.84016 0.148415,-0.18243 0.290791,-0.3655 0.427718,-0.54895 4.072483,4.04101 14.031279,7.9808 29.725608,13.82027 -10.596662,-5.61852 -20.831541,-10.26365 -26.847467,-17.08657 5.269586,2.465 15.784957,3.28677 31.946269,4.23459 -11.341809,-2.17986 -22.097309,-3.59546 -29.800632,-7.94553 5.981566,0.16857 15.794609,-2.24956 30.15991,-6.05009 -12.368912,1.58393 -23.810991,3.80039 -32.829103,1.2586 5.610923,-1.17171 14.374504,-7.34438 27.891409,-17.28568 -10.023095,5.5122 -19.124946,11.23446 -27.756521,12.87075 4.321013,-4.16175 9.518101,-12.76305 16.909465,-25.47329 -7.438854,9.62403 -13.827396,19.05077 -21.722752,23.75851 2.596023,-5.21998 3.734854,-15.67986 5.169505,-31.71942 -2.640585,11.78044 -4.427512,22.94645 -9.496305,30.55279 -0.02088,-5.83271 -3.675805,-15.69171 -9.554719,-30.66123 2.91592,11.76586 6.324833,22.59276 5.149072,31.68521 -0.106371,0.0261 -0.213237,0.0531 -0.320217,0.0821 -1.696737,-5.43334 -8.928011,-13.44488 -20.61271,-25.85646 6.507591,9.04015 13.107544,17.18898 15.912031,25.33938 -3.78641,-4.67743 -11.784582,-10.64041 -23.555197,-19.11858 8.751752,8.24379 18.273207,14.76168 22.383349,22.85587 l -0.07451,0.0625 z m 19.04026,2.71908 -0.04187,-0.0905 0.0723,0.0999 -0.03039,-0.009 z" />
                <path
                   inkscape:connector-curvature="0"
                   style="fill:#001818;fill-opacity:0.835294;fill-rule:evenodd;stroke-width:2.8398"
                   id="path326-37-1-2-2-1-65-2-6-6-9"
                   d="m -24.403466,215.3525 c -16.637873,18.53482 -27.343793,30.11463 -34.778504,34.56446 l -1.856875,-0.52266 c 13.115313,-6.62551 22.484923,-20.83147 36.635379,-34.0418 z m -82.552304,-4.58972 c 18.037205,17.17621 29.296911,28.21791 33.526187,35.78075 l -0.577037,1.84067 c -6.236611,-13.30501 -20.160692,-23.08838 -32.94915,-37.62142 z m 13.749806,-8.20516 c 13.545314,20.90215 21.926521,34.26085 24.280171,42.59993 l -0.989695,1.65591 c -2.969627,-14.39068 -14.234603,-27.14591 -23.290476,-44.25584 z m 24.732353,-6.32289 c 2.757719,24.75433 4.273422,40.45153 2.645347,48.96187 l -1.625726,1.03807 c 3.785456,-14.19817 -0.579706,-30.64599 -1.019621,-49.99994 z m 24.701439,5.44985 c -8.181162,23.52556 -13.579086,38.34316 -18.715944,45.32114 l -1.914892,0.23551 c 9.535686,-11.17997 12.685939,-27.90325 20.630836,-45.55665 z m 32.553812,32.78746 c -22.570412,10.53348 -36.956953,16.99256 -45.54103,18.17368 l -1.503729,-1.20836 c 14.663002,-0.95668 28.849438,-10.35564 47.044759,-16.96532 z m 1.13657,39.79708 c -24.267737,-5.60858 -39.57914,-9.38435 -47.068008,-13.7429 l -0.43988,-1.8782 c 12.138903,8.28024 29.103815,9.6171 47.507888,15.6211 z m -10.346623,18.14392 C -41.423733,279.01262 -54.591305,270.3342 -60.191752,263.7226 l 0.213723,-1.91734 c 8.671386,11.86267 24.212418,18.79556 39.549616,30.60778 z m 13.0476625,-37.31631 c -24.8341145,1.9072 -40.5741355,2.8839 -49.0238935,0.96512 l -0.981449,-1.66045 c 14.059963,4.26998 30.64785,0.4715 50.0053425,0.69533 z" />
                <path
                   inkscape:connector-curvature="0"
                   style="display:inline;fill:#001818;fill-opacity:0.835294;fill-rule:nonzero;stroke-width:0.67875"
                   id="path147-4-2-9-2-0-9-6-4-5-8-8"
                   d="m -61.964662,255.79206 c 0.251401,2.96635 -1.927426,5.57313 -4.865179,5.82208 -2.939985,0.24929 -5.524651,-1.95399 -5.776023,-4.92036 -0.251386,-2.96629 1.925737,-5.57273 4.865737,-5.82186 2.937738,-0.2491 5.524108,1.95383 5.775465,4.92014 z" />
              </g>
              <g
                 id="g2626-3-1-0-6-7-1"
                 transform="rotate(96.289847,-173.75113,389.92428)"
                 style="fill:#001818;fill-opacity:0.835294">
                <path
                   inkscape:connector-curvature="0"
                   style="fill:#001818;fill-opacity:0.835294;fill-rule:evenodd;stroke-width:2.8398"
                   id="path166-95-2-7-0-2-6-9-2-6-3-9-3"
                   d="m -76.271996,248.49266 0.761399,1.42801 c 0.06853,0.16634 0.135951,0.33305 0.200073,0.50118 l 0.03546,-0.0592 0.08839,0.16522 c 9.900256,-10.86316 25.139387,5.59 11.512408,14.20542 l 0.552471,1.18893 -0.02072,0.0245 c 0.103343,0.22067 0.218672,0.44488 0.344216,0.67193 l 0.128254,0.27584 0.01861,-0.0158 c 2.928634,5.028 11.100417,11.69445 23.835691,21.67831 -8.525463,-8.71127 -16.999717,-16.35072 -20.562243,-24.84016 0.148415,-0.18243 0.290791,-0.3655 0.427718,-0.54895 4.072483,4.04101 14.031279,7.9808 29.725608,13.82027 -10.596662,-5.61852 -20.831541,-10.26365 -26.847467,-17.08657 5.269586,2.465 15.784957,3.28677 31.946269,4.23459 -11.341809,-2.17986 -22.097309,-3.59546 -29.800632,-7.94553 5.981566,0.16857 15.794609,-2.24956 30.15991,-6.05009 -12.368912,1.58393 -23.810991,3.80039 -32.829103,1.2586 5.610923,-1.17171 14.374504,-7.34438 27.891409,-17.28568 -10.023095,5.5122 -19.124946,11.23446 -27.756521,12.87075 4.321013,-4.16175 9.518101,-12.76305 16.909465,-25.47329 -7.438854,9.62403 -13.827396,19.05077 -21.722752,23.75851 2.596023,-5.21998 3.734854,-15.67986 5.169505,-31.71942 -2.640585,11.78044 -4.427512,22.94645 -9.496305,30.55279 -0.02088,-5.83271 -3.675805,-15.69171 -9.554719,-30.66123 2.91592,11.76586 6.324833,22.59276 5.149072,31.68521 -0.106371,0.0261 -0.213237,0.0531 -0.320217,0.0821 -1.696737,-5.43334 -8.928011,-13.44488 -20.61271,-25.85646 6.507591,9.04015 13.107544,17.18898 15.912031,25.33938 -3.78641,-4.67743 -11.784582,-10.64041 -23.555197,-19.11858 8.751752,8.24379 18.273207,14.76168 22.383349,22.85587 l -0.07451,0.0625 z m 19.04026,2.71908 -0.04187,-0.0905 0.0723,0.0999 -0.03039,-0.009 z" />
                <path
                   inkscape:connector-curvature="0"
                   style="fill:#001818;fill-opacity:0.835294;fill-rule:evenodd;stroke-width:2.8398"
                   id="path326-37-1-2-2-1-65-4-9-2-9-0-3"
                   d="m -24.403466,215.3525 c -16.637873,18.53482 -27.343793,30.11463 -34.778504,34.56446 l -1.856875,-0.52266 c 13.115313,-6.62551 22.484923,-20.83147 36.635379,-34.0418 z m -82.552304,-4.58972 c 18.037205,17.17621 29.296911,28.21791 33.526187,35.78075 l -0.577037,1.84067 c -6.236611,-13.30501 -20.160692,-23.08838 -32.94915,-37.62142 z m 13.749806,-8.20516 c 13.545314,20.90215 21.926521,34.26085 24.280171,42.59993 l -0.989695,1.65591 c -2.969627,-14.39068 -14.234603,-27.14591 -23.290476,-44.25584 z m 24.732353,-6.32289 c 2.757719,24.75433 4.273422,40.45153 2.645347,48.96187 l -1.625726,1.03807 c 3.785456,-14.19817 -0.579706,-30.64599 -1.019621,-49.99994 z m 24.701439,5.44985 c -8.181162,23.52556 -13.579086,38.34316 -18.715944,45.32114 l -1.914892,0.23551 c 9.535686,-11.17997 12.685939,-27.90325 20.630836,-45.55665 z m 32.553812,32.78746 c -22.570412,10.53348 -36.956953,16.99256 -45.54103,18.17368 l -1.503729,-1.20836 c 14.663002,-0.95668 28.849438,-10.35564 47.044759,-16.96532 z m 1.13657,39.79708 c -24.267737,-5.60858 -39.57914,-9.38435 -47.068008,-13.7429 l -0.43988,-1.8782 c 12.138903,8.28024 29.103815,9.6171 47.507888,15.6211 z m -10.346623,18.14392 C -41.423733,279.01262 -54.591305,270.3342 -60.191752,263.7226 l 0.213723,-1.91734 c 8.671386,11.86267 24.212418,18.79556 39.549616,30.60778 z m 13.0476625,-37.31631 c -24.8341145,1.9072 -40.5741355,2.8839 -49.0238935,0.96512 l -0.981449,-1.66045 c 14.059963,4.26998 30.64785,0.4715 50.0053425,0.69533 z" />
                <path
                   inkscape:connector-curvature="0"
                   style="display:inline;fill:#001818;fill-opacity:0.835294;fill-rule:nonzero;stroke-width:0.67875"
                   id="path147-4-2-9-2-0-9-6-8-3-9-4-3-3"
                   d="m -61.964662,255.79206 c 0.251401,2.96635 -1.927426,5.57313 -4.865179,5.82208 -2.939985,0.24929 -5.524651,-1.95399 -5.776023,-4.92036 -0.251386,-2.96629 1.925737,-5.57273 4.865737,-5.82186 2.937738,-0.2491 5.524108,1.95383 5.775465,4.92014 z" />
              </g>
            </g>
            <circle
               style="opacity:0.813;fill:#4b614b;fill-opacity:1;stroke:#4faf75;stroke-width:0.18681;stroke-miterlimit:4;stroke-dasharray:none;stroke-opacity:0.964706"
               id="path3562-8-3-7"
               cx="184.25349"
               cy="328.73132"
               r="1.5903563" />
          </g>
        </g>
      </g>
    </g>
    <rect
       style="fill:#ee3d8f;fill-opacity:1;stroke:#9195d6;stroke-width:0.0168791;stroke-miterlimit:4;stroke-dasharray:none;stroke-opacity:0"
       id="rect983-0-9-3"
       width="136.85452"
       height="15.751149"
       x="-636.06689"
       y="-230.8382"
       ry="5.3084407" />
    <text
       xml:space="preserve"
       style="font-style:normal;font-weight:normal;font-size:11.6233px;line-height:1.25;font-family:sans-serif;letter-spacing:0px;word-spacing:0px;fill:#ffffff;fill-opacity:1;stroke:none;stroke-width:0.290582"
       x="-617.77692"
       y="-224.25095"
       id="text1061-2-0-0-8-4-3"
       transform="scale(1.0225856,0.97791326)"><tspan
         sodipodi:role="line"
         id="tspan1059-5-1-6-9-8-8"
         x="-617.77692"
         y="-224.25095"
         style="font-style:normal;font-variant:normal;font-weight:bold;font-stretch:normal;font-family:'Liberation Sans';-inkscape-font-specification:'Liberation Sans Bold';fill:#ffffff;stroke-width:0.290582">Libro vivo de Hechizos</tspan></text>
    <rect
       style="fill:#da8205;fill-opacity:1;stroke:#9195d6;stroke-width:0.0119396;stroke-miterlimit:4;stroke-dasharray:none;stroke-opacity:0"
       id="rect2291-2-1-7-5-6-9-1-7-8-2"
       width="88.494461"
       height="10.152198"
       x="-555.99573"
       y="-216.21959"
       ry="0" />
    <text
       xml:space="preserve"
       style="font-style:normal;font-variant:normal;font-weight:bold;font-stretch:normal;font-size:6.91335px;line-height:1.25;font-family:'Liberation Sans';-inkscape-font-specification:'Liberation Sans Bold';letter-spacing:0px;word-spacing:0px;fill:#ffffff;fill-opacity:1;stroke:none;stroke-width:0.172834"
       x="-543.37622"
       y="-213.24829"
       id="text1702-5-0"
       transform="scale(1.0225856,0.97791326)"><tspan
         sodipodi:role="line"
         id="tspan1700-7-7"
         x="-543.37622"
         y="-213.24829"
         style="font-style:normal;font-variant:normal;font-weight:bold;font-stretch:normal;font-family:'Liberation Sans';-inkscape-font-specification:'Liberation Sans Bold';fill:#ffffff;stroke-width:0.172834">¡UN MANUAL INTEGRAL!</tspan></text>
  </g>
</svg>
