<?xml version="1.0" encoding="UTF-8" standalone="no"?>
<svg
   xmlns:dc="http://purl.org/dc/elements/1.1/"
   xmlns:cc="http://creativecommons.org/ns#"
   xmlns:rdf="http://www.w3.org/1999/02/22-rdf-syntax-ns#"
   xmlns:svg="http://www.w3.org/2000/svg"
   xmlns="http://www.w3.org/2000/svg"
   xmlns:sodipodi="http://sodipodi.sourceforge.net/DTD/sodipodi-0.dtd"
   xmlns:inkscape="http://www.inkscape.org/namespaces/inkscape"
   width="303.35767mm"
   height="213.63969mm"
   viewBox="0 0 303.35767 213.63969"
   version="1.1"
   id="svg2722"
   inkscape:version="0.92.4 (5da689c313, 2019-01-14)"
   sodipodi:docname="motion.svg">
  <defs
     id="defs2716" />
  <sodipodi:namedview
     id="base"
     pagecolor="#ffffff"
     bordercolor="#666666"
     borderopacity="1.0"
     inkscape:pageopacity="0.0"
     inkscape:pageshadow="2"
     inkscape:zoom="0.81"
     inkscape:cx="337.7425"
     inkscape:cy="277.91887"
     inkscape:document-units="mm"
     inkscape:current-layer="layer1"
     inkscape:document-rotation="0"
     showgrid="false"
     fit-margin-top="0"
     fit-margin-left="0"
     fit-margin-right="0"
     fit-margin-bottom="0"
     showborder="false"
     inkscape:window-width="1920"
     inkscape:window-height="1001"
     inkscape:window-x="0"
     inkscape:window-y="26"
     inkscape:window-maximized="1" />
  <metadata
     id="metadata2719">
    <rdf:RDF>
      <cc:Work
         rdf:about="">
        <dc:format>image/svg+xml</dc:format>
        <dc:type
           rdf:resource="http://purl.org/dc/dcmitype/StillImage" />
        <dc:title />
      </cc:Work>
    </rdf:RDF>
  </metadata>
  <g
     inkscape:label="Capa 1"
     inkscape:groupmode="layer"
     id="layer1"
     transform="translate(208.37527,52.391273)">
    <rect
       style="opacity:0.5;fill:#ee3d8f;fill-opacity:1;stroke:none;stroke-width:0.698746;stroke-miterlimit:4;stroke-dasharray:none;stroke-opacity:0"
       id="rect2397-4"
       width="283.9165"
       height="105.02013"
       x="-197.01155"
       y="44.91024"
       ry="9.2197771" />
    <rect
       style="fill:#ee3d8f;fill-opacity:1;stroke:#9195d6;stroke-width:0.02243901;stroke-miterlimit:4;stroke-dasharray:none;stroke-opacity:0"
       id="rect983-0"
       width="183.595"
       height="20.750063"
       x="-141.85559"
       y="1.1176449"
       ry="6.9931712" />
    <text
       xml:space="preserve"
       style="font-style:normal;font-weight:normal;font-size:14.9744997px;line-height:1.25;font-family:sans-serif;letter-spacing:0px;word-spacing:0px;fill:#ffffff;fill-opacity:1;stroke:none;stroke-width:0.37436101"
       x="-136.39172"
       y="16.320456"
       id="text1061-2-0-0-8"><tspan
         sodipodi:role="line"
         id="tspan1059-5-1-6-9"
         x="-136.39172"
         y="16.320456"
         style="font-style:normal;font-variant:normal;font-weight:normal;font-stretch:normal;font-family:'Liberation Sans';-inkscape-font-specification:'Liberation Sans';fill:#ffffff;stroke-width:0.37436101"><tspan
   style="font-style:normal;font-variant:normal;font-weight:bold;font-stretch:normal;font-family:'Liberation Sans';-inkscape-font-specification:'Liberation Sans Bold'"
   id="tspan1698">Huayra motion San Juan</tspan>  </tspan></text>
    <g
       style="display:inline"
       id="g45275-2-4-8-6-3-8"
       transform="matrix(0,1.0150202,-1.0150202,0,693.72304,-83.689438)">
      <path
         d="m 113.8342,742.94106 c 0.50342,0 0.9117,0.40827 0.9117,0.91169 0,0.50393 -0.40828,0.9122 -0.9117,0.9122 -0.50342,0 -0.91169,-0.40827 -0.91169,-0.9122 0,-0.50342 0.40827,-0.91169 0.91169,-0.91169"
         style="fill:#e7408a;fill-opacity:1;fill-rule:nonzero;stroke:none;stroke-width:0.50342101"
         id="path3498-3-2-8-7-9-4-49-6"
         inkscape:connector-curvature="0" />
      <path
         d="m 113.8342,734.43259 c 0.50342,0 0.9117,0.40827 0.9117,0.91169 0,0.50393 -0.40828,0.9122 -0.9117,0.9122 -0.50342,0 -0.91169,-0.40827 -0.91169,-0.9122 0,-0.50342 0.40827,-0.91169 0.91169,-0.91169"
         style="fill:#f19106;fill-opacity:1;fill-rule:nonzero;stroke:none;stroke-width:0.50342101"
         id="path3510-5-2-6-6-6-3-0-7"
         inkscape:connector-curvature="0" />
      <path
         d="m 105.36852,742.65593 c 0.50343,0 0.9112,0.40827 0.9112,0.91119 0,0.50342 -0.40777,0.91119 -0.9112,0.91119 -0.50342,0 -0.91119,-0.40777 -0.91119,-0.91119 0,-0.50292 0.40777,-0.91119 0.91119,-0.91119"
         style="fill:#f19106;fill-opacity:1;fill-rule:nonzero;stroke:none;stroke-width:0.50342101"
         id="path3514-0-5-7-3-4-0-2-0"
         inkscape:connector-curvature="0" />
      <path
         d="m 109.59172,744.97712 c 0.50342,0 0.91119,0.40827 0.91119,0.9112 0,0.50291 -0.40777,0.91119 -0.91119,0.91119 -0.50342,0 -0.91119,-0.40828 -0.91119,-0.91119 0,-0.50293 0.40777,-0.9112 0.91119,-0.9112"
         style="fill:#dddc08;fill-opacity:1;fill-rule:nonzero;stroke:none;stroke-width:0.50342101"
         id="path3518-3-0-2-1-3-3-0-48"
         inkscape:connector-curvature="0" />
      <path
         d="m 109.59172,753.48555 c 0.50342,0 0.91119,0.40827 0.91119,0.91119 0,0.50291 -0.40777,0.91119 -0.91119,0.91119 -0.50342,0 -0.91119,-0.40828 -0.91119,-0.91119 0,-0.50292 0.40777,-0.91119 0.91119,-0.91119"
         style="fill:#9b86bd;fill-opacity:1;fill-rule:nonzero;stroke:none;stroke-width:0.50342101"
         id="path3538-7-3-5-7-3-0-1-4"
         inkscape:connector-curvature="0" />
      <path
         d="m 109.59172,732.21363 c 0.50342,0 0.91119,0.40827 0.91119,0.91119 0,0.50292 -0.40777,0.9112 -0.91119,0.9112 -0.50342,0 -0.91119,-0.40828 -0.91119,-0.9112 0,-0.50292 0.40777,-0.91119 0.91119,-0.91119"
         style="fill:#57b6b0;fill-opacity:1;fill-rule:nonzero;stroke:none;stroke-width:0.50342101"
         id="path3550-6-2-9-5-3-9-9-8"
         inkscape:connector-curvature="0" />
      <path
         d="m 105.36852,738.40172 c 0.50343,0 0.9112,0.40827 0.9112,0.91119 0,0.50292 -0.40777,0.91119 -0.9112,0.91119 -0.50342,0 -0.91119,-0.40827 -0.91119,-0.91119 0,-0.50292 0.40777,-0.91119 0.91119,-0.91119"
         style="fill:#57b6b0;fill-opacity:1;fill-rule:nonzero;stroke:none;stroke-width:0.50342101"
         id="path3554-5-7-4-9-8-2-6-1"
         inkscape:connector-curvature="0" />
      <path
         d="m 113.8342,747.19527 c 0.50342,0 0.9117,0.40828 0.9117,0.9117 0,0.50392 -0.40828,0.9122 -0.9117,0.9122 -0.50342,0 -0.91169,-0.40828 -0.91169,-0.9122 0,-0.50342 0.40827,-0.9117 0.91169,-0.9117"
         style="fill:#57b6b0;fill-opacity:1;fill-rule:nonzero;stroke:none;stroke-width:0.50342101"
         id="path3558-8-6-1-6-6-5-21-6"
         inkscape:connector-curvature="0" />
      <path
         d="m 109.59172,736.37214 c 0.50342,0 0.91119,0.40828 0.91119,0.9112 0,0.50291 -0.40777,0.91119 -0.91119,0.91119 -0.50342,0 -0.91119,-0.40828 -0.91119,-0.91119 0,-0.50292 0.40777,-0.9112 0.91119,-0.9112"
         style="fill:#ffd102;fill-opacity:1;fill-rule:nonzero;stroke:none;stroke-width:0.50342101"
         id="path3566-7-3-4-2-0-4-2-8"
         inkscape:connector-curvature="0" />
      <path
         d="m 105.36852,729.80937 c 0.49638,0 0.89861,0.40223 0.89861,0.8986 0,0.49638 -0.40223,0.89862 -0.89861,0.89862 -0.49637,0 -0.8986,-0.40224 -0.8986,-0.89862 0,-0.49637 0.40223,-0.8986 0.8986,-0.8986"
         style="fill:#49b9eb;fill-opacity:1;fill-rule:nonzero;stroke:none;stroke-width:0.50342101"
         id="path3582-7-85-9-1-4-0-0-5"
         inkscape:connector-curvature="0" />
      <path
         d="m 113.8342,730.09456 c 0.49637,0 0.89911,0.40273 0.89911,0.89911 0,0.49687 -0.40274,0.89961 -0.89911,0.89961 -0.49637,0 -0.89911,-0.40274 -0.89911,-0.89961 0,-0.49638 0.40274,-0.89911 0.89911,-0.89911"
         style="fill:#49b9eb;fill-opacity:1;fill-rule:nonzero;stroke:none;stroke-width:0.50342101"
         id="path3586-2-5-6-7-8-5-7-2"
         inkscape:connector-curvature="0" />
      <path
         d="m 105.36852,734.14242 c 0.49638,0 0.89861,0.40223 0.89861,0.8986 0,0.49638 -0.40223,0.89861 -0.89861,0.89861 -0.49637,0 -0.8986,-0.40223 -0.8986,-0.89861 0,-0.49637 0.40223,-0.8986 0.8986,-0.8986"
         style="fill:#49b9eb;fill-opacity:1;fill-rule:nonzero;stroke:none;stroke-width:0.50342101"
         id="path3602-8-8-6-8-8-9-3-19"
         inkscape:connector-curvature="0" />
      <path
         d="m 109.59172,740.71782 c 0.49637,0 0.89861,0.40224 0.89861,0.89861 0,0.49638 -0.40224,0.89861 -0.89861,0.89861 -0.49637,0 -0.8986,-0.40223 -0.8986,-0.89861 0,-0.49637 0.40223,-0.89861 0.8986,-0.89861"
         style="fill:#49b9eb;fill-opacity:1;fill-rule:nonzero;stroke:none;stroke-width:0.50342101"
         id="path3606-8-5-5-5-8-4-1-9"
         inkscape:connector-curvature="0" />
      <path
         d="m 113.8342,738.70744 c 0.49637,0 0.89911,0.40273 0.89911,0.89911 0,0.49688 -0.40274,0.89961 -0.89911,0.89961 -0.49637,0 -0.89911,-0.40273 -0.89911,-0.89961 0,-0.49638 0.40274,-0.89911 0.89911,-0.89911"
         style="fill:#49b9eb;fill-opacity:1;fill-rule:nonzero;stroke:none;stroke-width:0.50342101"
         id="path3614-9-45-9-7-9-6-1-6"
         inkscape:connector-curvature="0" />
      <path
         d="m 109.59172,749.22121 c 0.49637,0 0.89861,0.40224 0.89861,0.89861 0,0.49638 -0.40224,0.89861 -0.89861,0.89861 -0.49637,0 -0.8986,-0.40223 -0.8986,-0.89861 0,-0.49637 0.40223,-0.89861 0.8986,-0.89861"
         style="fill:#49b9eb;fill-opacity:1;fill-rule:nonzero;stroke:none;stroke-width:0.50342101"
         id="path3622-4-6-7-4-7-9-9-0"
         inkscape:connector-curvature="0" />
      <path
         d="m 105.36852,746.98203 c 0.49638,0 0.89861,0.40223 0.89861,0.8986 0,0.49638 -0.40223,0.89861 -0.89861,0.89861 -0.49637,0 -0.8986,-0.40223 -0.8986,-0.89861 0,-0.49637 0.40223,-0.8986 0.8986,-0.8986"
         style="fill:#49b9eb;fill-opacity:1;fill-rule:nonzero;stroke:none;stroke-width:0.50342101"
         id="path3638-2-6-9-1-7-2-0-6"
         inkscape:connector-curvature="0" />
    </g>
    <rect
       style="fill:#09a5ce;fill-opacity:1;stroke:#9195d6;stroke-width:0.0105015;stroke-miterlimit:4;stroke-dasharray:none;stroke-opacity:0"
       id="rect2291-2-1-7-5-6-9-1-7-7"
       width="43.711262"
       height="15.900334"
       x="37.606617"
       y="50.00988"
       ry="0" />
    <rect
       style="fill:#09a5ce;fill-opacity:1;stroke:#9195d6;stroke-width:0.0156449;stroke-miterlimit:4;stroke-dasharray:none;stroke-opacity:0"
       id="rect2291-2-1-7-5-6-9-1-7-7-1"
       width="97.04567"
       height="15.895191"
       x="-78.365761"
       y="65.798943"
       ry="0" />
    <rect
       style="fill:#09a5ce;fill-opacity:1;stroke:#9195d6;stroke-width:0.0132347;stroke-miterlimit:4;stroke-dasharray:none;stroke-opacity:0"
       id="rect2291-2-1-7-5-6-9-1-7-7-1-1"
       width="69.437019"
       height="15.897601"
       x="-194.24356"
       y="91.427849"
       ry="0" />
    <rect
       style="fill:#09a5ce;fill-opacity:1;stroke:#9195d6;stroke-width:0.0194868;stroke-miterlimit:4;stroke-dasharray:none;stroke-opacity:0"
       id="rect2291-2-1-7-5-6-9-1-7-7-1-1-5"
       width="150.59685"
       height="15.891349"
       x="-138.36682"
       y="134.52664"
       ry="0" />
    <text
       xml:space="preserve"
       style="font-style:normal;font-weight:normal;font-size:10.5833px;line-height:1.25;font-family:sans-serif;letter-spacing:0px;word-spacing:0px;fill:#ffffff;fill-opacity:1;stroke:none;stroke-width:0.264583"
       x="-192.033"
       y="62.006645"
       id="text1678"><tspan
         sodipodi:role="line"
         x="-192.033"
         y="62.006645"
         style="font-style:normal;font-variant:normal;font-weight:normal;font-stretch:normal;font-size:11.2889px;font-family:'Liberation Sans';-inkscape-font-specification:'Liberation Sans';fill:#ffffff;stroke-width:0.264583"
         id="tspan1692">El ya conocido programa para <tspan
   style="font-style:normal;font-variant:normal;font-weight:bold;font-stretch:normal;font-family:'Liberation Sans';-inkscape-font-specification:'Liberation Sans Bold';fill:#ffffff"
   id="tspan1771"><tspan
   style="font-style:normal;font-variant:normal;font-weight:normal;font-stretch:normal;font-family:'Liberation Sans';-inkscape-font-specification:'Liberation Sans'"
   id="tspan1816">stop motion</tspan> </tspan>de <tspan
   style="font-style:normal;font-variant:normal;font-weight:bold;font-stretch:normal;font-family:'Liberation Sans';-inkscape-font-specification:'Liberation Sans Bold';fill:#ffffff"
   id="tspan1773">Huayra, </tspan></tspan><tspan
         sodipodi:role="line"
         x="-192.033"
         y="76.117767"
         style="font-style:normal;font-variant:normal;font-weight:normal;font-stretch:normal;font-size:11.2889px;font-family:'Liberation Sans';-inkscape-font-specification:'Liberation Sans';fill:#ffffff;stroke-width:0.264583"
         id="tspan1796">ahora permite agregar <tspan
   style="font-style:normal;font-variant:normal;font-weight:bold;font-stretch:normal;font-family:'Liberation Sans';-inkscape-font-specification:'Liberation Sans Bold';fill:#ffffff"
   id="tspan1775">cámaras externas</tspan> USB.</tspan><tspan
         sodipodi:role="line"
         x="-192.033"
         y="89.42411"
         id="tspan1799" /><tspan
         sodipodi:role="line"
         x="-192.033"
         y="103.45802"
         style="font-style:normal;font-variant:normal;font-weight:normal;font-stretch:normal;font-size:11.2889px;font-family:'Liberation Sans';-inkscape-font-specification:'Liberation Sans';fill:#ffffff;stroke-width:0.264583"
         id="tspan1759"><tspan
   style="font-style:normal;font-variant:normal;font-weight:bold;font-stretch:normal;font-family:'Liberation Sans';-inkscape-font-specification:'Liberation Sans Bold'"
   id="tspan1818">Stop motion</tspan> es una técnica de <tspan
   style="font-style:normal;font-variant:normal;font-weight:bold;font-stretch:normal;font-family:'Liberation Sans';-inkscape-font-specification:'Liberation Sans Bold'"
   id="tspan1806">animación </tspan>cuadro a </tspan><tspan
         sodipodi:role="line"
         x="-192.033"
         y="117.56915"
         style="font-style:normal;font-variant:normal;font-weight:normal;font-stretch:normal;font-size:11.2889px;font-family:'Liberation Sans';-inkscape-font-specification:'Liberation Sans';fill:#ffffff;stroke-width:0.264583"
         id="tspan1794">cuadro en donde se utilizan secuencias de </tspan><tspan
         sodipodi:role="line"
         x="-192.033"
         y="131.68027"
         style="font-style:normal;font-variant:normal;font-weight:normal;font-stretch:normal;font-size:11.2889px;font-family:'Liberation Sans';-inkscape-font-specification:'Liberation Sans';fill:#ffffff;stroke-width:0.264583"
         id="tspan1696">imágenes fijas para crear ilusión de movimiento con </tspan><tspan
         sodipodi:role="line"
         x="-192.033"
         y="145.7914"
         style="font-style:normal;font-variant:normal;font-weight:normal;font-stretch:normal;font-size:11.2889px;font-family:'Liberation Sans';-inkscape-font-specification:'Liberation Sans';fill:#ffffff;stroke-width:0.264583"
         id="tspan1769">resultados <tspan
   style="font-style:normal;font-variant:normal;font-weight:bold;font-stretch:normal;font-family:'Liberation Sans';-inkscape-font-specification:'Liberation Sans Bold'"
   id="tspan1814">impresionantes y creativos.</tspan></tspan><tspan
         sodipodi:role="line"
         x="-192.033"
         y="159.09773"
         id="tspan1688" /><tspan
         sodipodi:role="line"
         x="-192.033"
         y="172.32686"
         id="tspan1690" /></text>
    <rect
       style="fill:#da8205;fill-opacity:1;stroke:#9195d6;stroke-width:0.0132087;stroke-miterlimit:4;stroke-dasharray:none;stroke-opacity:0"
       id="rect2291-2-1-7-5-6-9-1-7"
       width="82.198364"
       height="13.376803"
       x="-44.480862"
       y="19.708288"
       ry="0" />
    <text
       xml:space="preserve"
       style="font-style:normal;font-variant:normal;font-weight:bold;font-stretch:normal;font-size:8.90657043px;line-height:1.25;font-family:'Liberation Sans';-inkscape-font-specification:'Liberation Sans Bold';letter-spacing:0px;word-spacing:0px;fill:#ffffff;fill-opacity:1;stroke:none;stroke-width:0.222664"
       x="-43.38615"
       y="29.191473"
       id="text1702"><tspan
         sodipodi:role="line"
         id="tspan1700"
         x="-43.38615"
         y="29.191473"
         style="font-style:normal;font-variant:normal;font-weight:bold;font-stretch:normal;font-family:'Liberation Sans';-inkscape-font-specification:'Liberation Sans Bold';fill:#ffffff;stroke-width:0.222664">¡NUEVA VERSIÓN!</tspan></text>
    <g
       id="g2395"
       transform="translate(-250.17804,-134.60853)">
      <path
         sodipodi:nodetypes="csscczccc"
         inkscape:connector-curvature="0"
         id="path5408-0-1-2-4-4-0"
         d="m 116.28673,112.58724 c -1.34203,0 -2.48977,1.14764 -2.48977,2.48976 0,1.34203 1.14777,2.3712 2.48977,2.3712 0.0794,0 0.1605,0.006 0.23712,0 0.01,-0.001 -0.01,-0.11696 0,-0.11827 0.0713,-0.35477 -0.0362,-1.07843 0.31625,-1.76028 0.35237,-0.68186 0.68847,-1.25219 1.26266,-1.47595 -0.21534,-1.11872 -0.64162,-1.50611 -1.81598,-1.50611 z"
         style="fill:#ffffff;fill-opacity:1;fill-rule:evenodd;stroke:none;stroke-width:0.424805" />
      <path
         inkscape:connector-curvature="0"
         id="path5408-06-3-6-9-8"
         d="m 118.79355,115.44708 c -0.47178,0.32553 -0.92929,0.89107 -1.2074,1.66872 -0.55599,1.55548 -0.25481,3.30657 0.62883,3.8686 0.8836,0.56199 2.02936,-0.20179 2.58539,-1.75727 0.38643,-1.08124 0.38339,-2.28655 0.0443,-3.08157 -0.70061,0.0721 -1.40566,-0.26119 -1.95008,-0.7396 -0.0343,0.0208 -0.0675,0.0179 -0.10096,0.0409 z"
         style="fill:#ffffff;fill-opacity:1;fill-rule:evenodd;stroke:none;stroke-width:0.424805" />
      <path
         inkscape:connector-curvature="0"
         id="path5408-06-7-0-6-50-8"
         d="m 121.81045,109.06019 c -0.37186,0.12128 -0.69803,0.31054 -1.03916,0.58281 -1.3642,1.08985 -1.79788,3.05697 -0.96714,4.30335 0.83081,1.24632 2.60705,1.29641 3.97126,0.20656 1.17285,-0.93706 1.55835,-2.40081 1.14312,-3.60398 -0.93978,-0.0475 -1.84413,-0.66122 -2.36134,-1.55636 -0.24578,0.0149 -0.49906,-0.0138 -0.74685,0.0674 z"
         style="fill:#ffffff;fill-opacity:1;fill-rule:evenodd;stroke:none;stroke-width:0.424805" />
      <path
         inkscape:connector-curvature="0"
         id="path5428-82-7-3-4-5"
         d="m 124.56737,104.00413 c -1.20823,1.28245 -1.1476,3.31684 0.13484,4.52508 1.28245,1.20824 3.31683,1.14761 4.52505,-0.13484 0.54214,-0.57543 0.74247,-1.30386 0.77801,-2.03616 -0.94575,0.0639 -2.01694,-0.2714 -2.88401,-1.0883 -0.63659,-0.59977 -0.97887,-1.34334 -1.15177,-2.06253 -0.52568,0.15414 -0.99933,0.36909 -1.40211,0.79661 z"
         style="fill:#ffffff;fill-opacity:1;fill-rule:evenodd;stroke:none;stroke-width:0.424805" />
      <circle
         r="0.88715792"
         cy="107.97248"
         cx="111.21976"
         id="path5428-8-1-8-5-7-9-8-0"
         style="fill:#ffffff;fill-opacity:1;fill-rule:evenodd;stroke:none;stroke-width:0.939992" />
      <circle
         r="1.6712093"
         cy="110.5257"
         cx="113.93481"
         id="path5428-8-1-6-7-9-71-9"
         style="fill:#ffffff;fill-opacity:1;fill-rule:evenodd;stroke:none;stroke-width:1.77074" />
      <circle
         r="4.8045387"
         cy="100.80957"
         cx="131.78708"
         id="path4457-6-5-7-6"
         style="fill:#ffffff;fill-opacity:1;fill-rule:evenodd;stroke:none;stroke-width:0.479557;stroke-miterlimit:4;stroke-dasharray:none;stroke-opacity:1" />
      <ellipse
         ry="3.7553384"
         rx="3.6164069"
         cy="100.26323"
         cx="132.69273"
         id="path4983-9-2-2-3"
         style="fill:#ffffff;fill-opacity:1;fill-rule:evenodd;stroke:none;stroke-width:0.203233" />
      <path
         sodipodi:nodetypes="scccczccs"
         inkscape:connector-curvature="0"
         id="path5408-0-1-4-1-13-7-8"
         d="m 116.1042,121.09979 c -1.60762,0.17303 -2.70652,0.55977 -2.72688,1.06711 -0.0268,0.67645 1.92004,1.29053 4.38672,1.30411 3.83084,0.056 6.31124,-0.55185 6.33836,-1.22818 0.016,-0.41539 -1.40113,-0.99377 -3.30375,-0.98184 -0.72928,0.93032 -2.03968,1.27799 -2.78942,1.11691 -0.74973,-0.16106 -1.12218,-0.83637 -1.31228,-1.27811 -0.18848,0.0129 -0.41498,-0.0189 -0.59283,0 z"
         style="fill:#ffffff;fill-opacity:1;fill-rule:evenodd;stroke:none;stroke-width:0.424805" />
      <path
         sodipodi:nodetypes="ccscccsssssczccccssssscsscsccccccccscc"
         inkscape:connector-curvature="0"
         id="path5408-0-1-6-1-09-2-5"
         d="m 125.99661,103.77728 c -2.45281,0.95948 -2.00882,3.69579 -0.92233,5.03076 0.37394,-0.70988 0.22914,-1.99948 0.91957,-2.55184 0.3501,-0.28007 0.78417,-0.28513 1.1042,-0.71783 -0.0217,-0.014 -0.50789,-0.63872 -0.52947,-0.65318 -0.72671,-0.48664 -0.28294,-0.42704 -0.57197,-1.10791 z m -14.92316,3.44927 c -0.48995,0 0.24584,0.44007 0.24584,0.93005 0,0.48995 -0.73579,0.84258 -0.24584,0.84258 0.48997,0 0.88632,-0.39635 0.88632,-0.88631 0,-0.48997 -0.39635,-0.88632 -0.88632,-0.88632 z m 11.89712,2.44077 c -0.548,0.18549 -1.18967,0.19263 -2.23253,0.92924 -1.04285,0.73657 -1.76342,2.11725 -0.93993,3.36843 0.13482,0.20479 0.46839,0.69507 0.64827,0.83646 0.99435,-1.50977 1.17587,-3.47603 3.19642,-4.25437 -0.074,-0.10144 -0.60933,-0.76942 -0.67223,-0.87976 z m -9.37251,-0.67045 c -0.92298,0 0.39584,0.0156 0.24906,1.33015 -0.10239,0.91728 -0.62452,1.51835 0.27718,1.32128 0.33582,-0.0734 0.75338,-0.69347 0.70445,-1.20055 -0.0887,-0.91872 -0.3077,-1.45088 -1.23069,-1.45088 z m 2.53891,4.00224 c -1.29308,0.3425 -1.54915,0.66604 -1.98635,1.07645 -0.26086,0.24486 -0.33668,0.49215 -0.19177,0.79156 0.33467,-0.0738 0.94991,-0.52633 1.3102,-0.46978 1.11452,0.17487 1.00046,1.46332 1.38539,1.59539 0.0403,-0.20412 0.10049,-0.41563 0.20774,-0.6232 0.35237,-0.68185 0.17226,-0.93075 0.74645,-1.15451 -0.19089,-0.75175 -0.85998,-1.24037 -1.47166,-1.21591 z m 2.84228,2.65537 c -0.0343,0.0208 -0.0681,0.0185 -0.10155,0.0415 -0.47178,0.32553 -0.92672,0.8888 -1.20483,1.66644 -0.0179,0.05 -0.0301,0.10204 -0.0462,0.15234 -0.0119,2.6917 0.58371,0.0518 1.92957,-1.17713 0.0599,-0.0547 0.0869,-0.13856 0.12926,-0.20774 -0.25277,-0.12697 -0.49328,-0.2883 -0.70629,-0.47547 z"
         style="fill:#ffffff;fill-opacity:1;fill-rule:evenodd;stroke:none;stroke-width:0.424805" />
      <path
         sodipodi:nodetypes="cssscscssssssssssccccccccssccsccccccccccsc"
         inkscape:connector-curvature="0"
         id="path5408-0-1-9-9-9-2-6"
         d="m 125.83822,103.24566 c -0.52611,0.15266 -0.99948,0.36523 -1.40345,0.79162 -1.21178,1.2791 -1.15833,3.31319 0.12075,4.525 1.27908,1.2118 3.31772,1.15911 4.5295,-0.11998 0.54373,-0.57391 0.74372,-1.30299 0.78129,-2.03518 -0.94593,0.0612 -2.01554,-0.27886 -2.88035,-1.09816 -0.63491,-0.60152 -0.97685,-1.34365 -1.14774,-2.0633 z m -14.69401,3.82414 c -0.48997,0 -0.88631,0.39635 -0.88631,0.88632 0,0.48997 0.39634,0.88632 0.88631,0.88632 0.48997,0 0.88631,-0.39635 0.88631,-0.88632 0,-0.48997 -0.39634,-0.88632 -0.88631,-0.88632 z m 2.70047,1.64338 c -0.92298,0 -1.67106,0.74808 -1.67106,1.67107 0,0.92299 0.74808,1.67569 1.67106,1.67569 0.92299,0 1.67107,-0.7527 1.67107,-1.67569 0,-0.92299 -0.74808,-1.67107 -1.67107,-1.67107 z m 8.78035,0.19722 c -0.24545,0.0198 -0.74015,0.13702 -0.98626,0.22318 -0.36934,0.12872 -0.69107,0.32602 -1.02668,0.60508 -1.34209,1.11694 -1.73758,3.09206 -0.88203,4.32155 0.8556,1.22943 2.63315,1.24359 3.97525,0.12665 1.15385,-0.96036 1.50852,-2.43224 1.06928,-3.62686 -0.94054,-0.0288 -1.61453,-0.765 -2.14956,-1.6496 z m -6.34198,3.59865 c -1.34202,0 -2.48813,1.15061 -2.48813,2.49274 0,1.34203 1.14613,2.36811 2.48813,2.36811 0.0794,0 0.16341,0.006 0.24004,0 0.01,-0.001 -0.01,-0.11409 0,-0.1154 0.0712,-0.35477 -0.0384,-1.07692 0.31391,-1.75878 0.35236,-0.68185 0.69064,-1.25343 1.26483,-1.47719 -0.21535,-1.11872 -0.64441,-1.50487 -1.81878,-1.50487 z m 0.0611,8.58417 c -0.0492,-1.4e-4 -0.094,-1.1e-4 -0.13849,0.005 -1.60762,0.17304 -2.70782,0.55901 -2.72817,1.06635 -0.0268,0.67646 1.91872,1.29281 4.38539,1.30638 3.83084,0.0561 6.31091,-0.55621 6.33804,-1.23252 0.016,-0.41539 -1.39796,-0.99055 -3.30058,-0.97864 -0.72928,0.93032 -2.04307,1.2782 -2.7928,1.11713 -0.74973,-0.16107 -1.12092,-0.83695 -1.311,-1.2787 -0.14137,0.01 -0.30482,-0.005 -0.45239,-0.005 z"
         style="fill:#ffffff;fill-rule:evenodd;stroke:none;stroke-width:0.479557;stroke-miterlimit:4;stroke-dasharray:none;stroke-opacity:1" />
      <path
         sodipodi:nodetypes="cccccccc"
         inkscape:connector-curvature="0"
         id="path5408-0-1-9-5-0-1-6-1"
         d="m 118.89954,115.47548 c -0.0343,0.0208 -0.0682,0.0185 -0.10156,0.0415 -0.47178,0.32553 -0.93134,0.88881 -1.20945,1.66645 -0.55599,1.55547 -0.25583,3.30634 0.62781,3.86838 0.8836,0.56197 2.02904,-0.19867 2.58506,-1.75416 0.38644,-1.08123 0.38528,-2.28861 0.0462,-3.08362 -0.70059,0.0721 -1.4036,-0.26019 -1.94803,-0.73859 z"
         style="fill:#ffffff;fill-rule:evenodd;stroke:none;stroke-width:0.479557;stroke-miterlimit:4;stroke-dasharray:none;stroke-opacity:1" />
      <path
         sodipodi:nodetypes="ccsccccc"
         inkscape:connector-curvature="0"
         style="fill:#ffffff;fill-opacity:1;fill-rule:nonzero;stroke:none;stroke-width:0.289181"
         id="_121601064-35-7-4-9-8-3-7-5-8-6-9-1-5-6-2-0-0-5"
         d="m 160.61158,116.52648 -0.001,0.99856 -3.15437,0.0146 c -1.91097,0.008 -2.00793,2.07295 -2.00793,2.07295 l -1.02388,0.005 c 0,0 -0.16547,-3.06521 2.96029,-3.08066 l 3.22737,-0.01 z" />
      <path
         sodipodi:nodetypes="ccccccc"
         inkscape:connector-curvature="0"
         style="fill:#ffffff;fill-opacity:1;fill-rule:nonzero;stroke:none;stroke-width:0.292396"
         id="_121605664-7-0-6-4-4-9-9-3-4-7-0-6-00-7-0-1-2-8-3-5-9-6-9"
         d="m 132.38661,116.52188 h 1.04318 c 0,0 0.12241,2.17811 2.19794,2.24031 2.20955,-0.0674 2.22096,-2.24031 2.22096,-2.24031 h 1.04255 c 0,0 -0.1074,2.86194 -3.08221,3.09847 -3.4278,0.0603 -3.42242,-3.09847 -3.42242,-3.09847 z" />
      <path
         inkscape:connector-curvature="0"
         id="rect4782-2-4-3-1-8"
         d="m 125.18333,115.05108 v 4.53972 l -1.4e-4,0.0217 h 1.4e-4 1.00629 c 0,0 0.007,-0.12432 0.046,-0.3145 0.1241,-0.60563 0.57245,-1.87847 2.15196,-1.92581 2.20956,0.0674 2.22095,2.24031 2.22095,2.24031 h 1.04262 c 0,0 -0.10741,-2.86193 -3.08221,-3.09847 -1.08835,-0.0191 -1.82966,0.28682 -2.33586,0.71256 l 0.004,-2.17557 z"
         style="opacity:1;fill:#ffffff;fill-opacity:1;fill-rule:nonzero;stroke:none;stroke-width:0.104491;stroke-linecap:round;stroke-linejoin:miter;stroke-miterlimit:4;stroke-dasharray:none;stroke-dashoffset:0;stroke-opacity:1;paint-order:fill markers stroke" />
      <g
         id="g4846-0-7-6-5-4"
         transform="matrix(0.27353563,0,0,0.27353563,120.49629,49.271673)"
         style="fill:#ffffff;fill-opacity:1;stroke:none">
        <g
           id="g4826-61-4-0-9-8"
           style="fill:#ffffff;fill-opacity:1;stroke:none">
          <path
             sodipodi:nodetypes="ccccccc"
             inkscape:connector-curvature="0"
             style="fill:#ffffff;fill-opacity:1;fill-rule:nonzero;stroke:none;stroke-width:1.06895"
             id="_121605664-7-0-6-4-4-9-9-3-4-7-0-6-00-7-0-1-2-8-5-5-4-6-4-1"
             d="m 70.255421,257.15412 h 3.813675 c 0,0 0.447518,-7.96272 8.035306,-8.19011 8.077762,0.24636 8.119467,8.19011 8.119467,8.19011 h 3.811391 c 0,0 -0.392875,-10.4627 -11.268046,-11.32743 -12.531453,-0.22016 -12.511793,11.32743 -12.511793,11.32743 z" />
          <circle
             r="2.3438838"
             cy="254.81009"
             cx="82.14534"
             id="path4822-5-3-26-9-0"
             style="opacity:1;fill:#ffffff;fill-opacity:1;fill-rule:nonzero;stroke:none;stroke-width:0.415012;stroke-linecap:round;stroke-linejoin:miter;stroke-miterlimit:4;stroke-dasharray:none;stroke-dashoffset:0;stroke-opacity:1;paint-order:fill markers stroke" />
        </g>
      </g>
      <path
         inkscape:connector-curvature="0"
         id="rect4782-0-4-0-1-0-3"
         d="m 153.3714,121.08338 v -4.53971 l 1.4e-4,-0.0217 h -1.4e-4 -1.00631 c 0,0 -0.007,0.12434 -0.0459,0.31452 -0.1241,0.60563 -0.57245,1.87847 -2.15196,1.92579 -2.20957,-0.0674 -2.22095,-2.24031 -2.22095,-2.24031 h -1.04262 c 0,0 0.1074,2.86194 3.08221,3.09848 1.08836,0.0191 1.82965,-0.28682 2.33586,-0.71257 l -0.004,2.17557 z"
         style="opacity:1;fill:#ffffff;fill-opacity:1;fill-rule:nonzero;stroke:none;stroke-width:0.104491;stroke-linecap:round;stroke-linejoin:miter;stroke-miterlimit:4;stroke-dasharray:none;stroke-dashoffset:0;stroke-opacity:1;paint-order:fill markers stroke" />
      <g
         id="g4876-7-7-8-9-0"
         transform="matrix(0.27353563,0,0,0.27353563,120.23857,49.271673)"
         style="fill:#ffffff;fill-opacity:1;stroke:none">
        <g
           transform="translate(80.030828)"
           id="g4846-3-6-8-7-1-4"
           style="fill:#ffffff;fill-opacity:1;stroke:none">
          <g
             id="g4826-6-5-6-9-7-4"
             style="fill:#ffffff;fill-opacity:1;stroke:none">
            <path
               d="m 70.255421,257.15412 h 3.813675 c 0,0 0.447518,-7.96272 8.035306,-8.19011 8.077762,0.24636 8.119467,8.19011 8.119467,8.19011 h 3.811391 c 0,0 -0.392875,-10.4627 -11.268046,-11.32743 -12.531453,-0.22016 -12.511793,11.32743 -12.511793,11.32743 z"
               id="_121605664-7-0-6-4-4-9-9-3-4-7-0-6-00-7-0-1-2-8-5-1-6-8-2-7-4"
               style="fill:#ffffff;fill-opacity:1;fill-rule:nonzero;stroke:none;stroke-width:1.06895"
               inkscape:connector-curvature="0"
               sodipodi:nodetypes="ccccccc" />
            <circle
               style="opacity:1;fill:#ffffff;fill-opacity:1;fill-rule:nonzero;stroke:none;stroke-width:0.415012;stroke-linecap:round;stroke-linejoin:miter;stroke-miterlimit:4;stroke-dasharray:none;stroke-dashoffset:0;stroke-opacity:1;paint-order:fill markers stroke"
               id="path4822-0-9-8-0-1-4"
               cx="82.14534"
               cy="254.81009"
               r="2.3438838" />
          </g>
        </g>
      </g>
      <text
         id="text4891-7-36-8-3-1-7"
         y="130.58183"
         x="124.30284"
         style="font-style:normal;font-variant:normal;font-weight:bold;font-stretch:normal;font-size:2.04955px;line-height:0%;font-family:Gudea;-inkscape-font-specification:'Gudea Bold';text-align:start;letter-spacing:0px;word-spacing:0px;writing-mode:lr-tb;text-anchor:start;fill:#ffffff;fill-opacity:1;stroke:none;stroke-width:0.170796px;stroke-linecap:butt;stroke-linejoin:miter;stroke-opacity:1"
         xml:space="preserve"><tspan
           style="font-style:normal;font-variant:normal;font-weight:bold;font-stretch:normal;font-size:12.1091px;line-height:1.27;font-family:'Open Sans';-inkscape-font-specification:'Open Sans Bold';fill:#ffffff;fill-opacity:1;stroke:none;stroke-width:0.170796px"
           y="130.58183"
           x="124.30284"
           id="tspan4893-0-7-9-4-59-6"
           sodipodi:role="line">motion  </tspan></text>
    </g>
  </g>
</svg>
