<?xml version="1.0" encoding="UTF-8" standalone="no"?>
<svg
   xmlns:dc="http://purl.org/dc/elements/1.1/"
   xmlns:cc="http://creativecommons.org/ns#"
   xmlns:rdf="http://www.w3.org/1999/02/22-rdf-syntax-ns#"
   xmlns:svg="http://www.w3.org/2000/svg"
   xmlns="http://www.w3.org/2000/svg"
   xmlns:xlink="http://www.w3.org/1999/xlink"
   xmlns:sodipodi="http://sodipodi.sourceforge.net/DTD/sodipodi-0.dtd"
   xmlns:inkscape="http://www.inkscape.org/namespaces/inkscape"
   width="303.35767mm"
   height="213.63968mm"
   viewBox="0 0 303.35767 213.63968"
   version="1.1"
   id="svg4988"
   inkscape:version="1.0.2 (e86c870879, 2021-01-15)"
   sodipodi:docname="presentacion.svg">
  <defs
     id="defs4982">
    <linearGradient
       gradientTransform="matrix(0.22629387,0,0,0.22629387,-555.3642,-212.60709)"
       inkscape:collect="always"
       xlink:href="#linearGradient7171"
       id="linearGradient7181-5-4"
       x1="234.92522"
       y1="791.40247"
       x2="680.39661"
       y2="806.91644"
       gradientUnits="userSpaceOnUse" />
    <linearGradient
       inkscape:collect="always"
       id="linearGradient7171">
      <stop
         style="stop-color:#32bbed;stop-opacity:1;"
         offset="0"
         id="stop7167" />
      <stop
         style="stop-color:#32bbed;stop-opacity:0;"
         offset="1"
         id="stop7169" />
    </linearGradient>
    <linearGradient
       gradientTransform="matrix(0.22629387,0,0,0.22629387,-555.3642,-212.60709)"
       inkscape:collect="always"
       xlink:href="#linearGradient7171"
       id="linearGradient7173-7-4"
       x1="957.43109"
       y1="778.10486"
       x2="988.45892"
       y2="638.47949"
       gradientUnits="userSpaceOnUse" />
  </defs>
  <sodipodi:namedview
     id="base"
     pagecolor="#ffffff"
     bordercolor="#666666"
     borderopacity="1.0"
     inkscape:pageopacity="0.0"
     inkscape:pageshadow="2"
     inkscape:zoom="0.35"
     inkscape:cx="339.16563"
     inkscape:cy="598.01425"
     inkscape:document-units="mm"
     inkscape:current-layer="layer1"
     inkscape:document-rotation="0"
     showgrid="false"
     inkscape:window-width="1329"
     inkscape:window-height="688"
     inkscape:window-x="16"
     inkscape:window-y="26"
     inkscape:window-maximized="0" />
  <metadata
     id="metadata4985">
    <rdf:RDF>
      <cc:Work
         rdf:about="">
        <dc:format>image/svg+xml</dc:format>
        <dc:type
           rdf:resource="http://purl.org/dc/dcmitype/StillImage" />
        <dc:title></dc:title>
      </cc:Work>
    </rdf:RDF>
  </metadata>
  <g
     inkscape:label="Capa 1"
     inkscape:groupmode="layer"
     id="layer1"
     transform="translate(556.11336,221.7246)">
    <rect
       style="opacity:0.3;fill:#ee3d8f;fill-opacity:1;stroke:none;stroke-width:0.486848;stroke-miterlimit:4;stroke-dasharray:none;stroke-opacity:0"
       id="rect2397-4-1-8-5"
       width="222.10664"
       height="65.170082"
       x="-515.289"
       y="-159.11989"
       ry="5.7213187" />
    <path
       style="display:inline;opacity:0.438;fill:url(#linearGradient7181-5-4);fill-opacity:1;stroke:none;stroke-width:0.138913px;stroke-linecap:butt;stroke-linejoin:miter;stroke-opacity:1"
       d="m -541.02054,-9.451937 c 1.20456,-0.60228 -14.71163,0.3297 -13.79681,0.3297 l 36.27396,-35.39246 138.95911,35.32483 z"
       id="path6376-8-8-1"
       inkscape:connector-curvature="0"
       sodipodi:nodetypes="ccccc" />
    <path
       style="display:inline;opacity:0.328;fill:url(#linearGradient7173-7-4);fill-opacity:1;stroke:#ffffff;stroke-width:0.138913px;stroke-linecap:butt;stroke-linejoin:miter;stroke-opacity:1"
       d="m -416.50554,-8.911017 c 1.20457,-0.60228 -83.44631,0.75663 -82.5315,0.75663 l 246.20824,-55.01081 -2.24044,54.51625 z"
       id="path6376-6-0"
       inkscape:connector-curvature="0"
       sodipodi:nodetypes="ccccc" />
    <rect
       style="fill:#ee3d8f;fill-opacity:1;stroke:#9195d6;stroke-width:0.0167171;stroke-miterlimit:4;stroke-dasharray:none;stroke-opacity:0"
       id="rect983-0-6"
       width="101.87115"
       height="20.755785"
       x="-508.1814"
       y="-125.67799"
       ry="6.9950995" />
    <text
       xml:space="preserve"
       style="font-style:normal;font-weight:normal;font-size:14.9745px;line-height:1.25;font-family:sans-serif;letter-spacing:0px;word-spacing:0px;fill:#ffffff;fill-opacity:1;stroke:none;stroke-width:0.374361"
       x="-503.77301"
       y="-110.47224"
       id="text1061-2-0-0-8-3"><tspan
         sodipodi:role="line"
         id="tspan1059-5-1-6-9-2"
         x="-503.77301"
         y="-110.47224"
         style="font-style:normal;font-variant:normal;font-weight:normal;font-stretch:normal;font-family:'Liberation Sans';-inkscape-font-specification:'Liberation Sans';fill:#ffffff;stroke-width:0.374361"><tspan
   style="font-style:normal;font-variant:normal;font-weight:bold;font-stretch:normal;font-family:'Liberation Sans';-inkscape-font-specification:'Liberation Sans Bold';stroke-width:0.374361"
   id="tspan2417-0">NOVEDADES</tspan> de <tspan
   style="font-style:normal;font-variant:normal;font-weight:bold;font-stretch:normal;font-size:17.6389px;font-family:'Liberation Sans';-inkscape-font-specification:'Liberation Sans Bold';fill:#ffffff;stroke-width:0.374361"
   id="tspan957-2-6">Huayra</tspan><tspan
   style="font-size:17.6389px"
   id="tspan2116"> </tspan></tspan></text>
    <g
       style="display:inline"
       id="g45275-2-4-8-6-3-8-1"
       transform="matrix(0,1.1055424,-1.1055424,0,498.41624,-152.49704)">
      <path
         d="m 113.8342,742.94106 c 0.50342,0 0.9117,0.40827 0.9117,0.91169 0,0.50393 -0.40828,0.9122 -0.9117,0.9122 -0.50342,0 -0.91169,-0.40827 -0.91169,-0.9122 0,-0.50342 0.40827,-0.91169 0.91169,-0.91169"
         style="fill:#e7408a;fill-opacity:1;fill-rule:nonzero;stroke:none;stroke-width:0.503421"
         id="path3498-3-2-8-7-9-4-49-6-5"
         inkscape:connector-curvature="0" />
      <path
         d="m 113.8342,734.43259 c 0.50342,0 0.9117,0.40827 0.9117,0.91169 0,0.50393 -0.40828,0.9122 -0.9117,0.9122 -0.50342,0 -0.91169,-0.40827 -0.91169,-0.9122 0,-0.50342 0.40827,-0.91169 0.91169,-0.91169"
         style="fill:#f19106;fill-opacity:1;fill-rule:nonzero;stroke:none;stroke-width:0.503421"
         id="path3510-5-2-6-6-6-3-0-7-5"
         inkscape:connector-curvature="0" />
      <path
         d="m 105.36852,742.65593 c 0.50343,0 0.9112,0.40827 0.9112,0.91119 0,0.50342 -0.40777,0.91119 -0.9112,0.91119 -0.50342,0 -0.91119,-0.40777 -0.91119,-0.91119 0,-0.50292 0.40777,-0.91119 0.91119,-0.91119"
         style="fill:#f19106;fill-opacity:1;fill-rule:nonzero;stroke:none;stroke-width:0.503421"
         id="path3514-0-5-7-3-4-0-2-0-4"
         inkscape:connector-curvature="0" />
      <path
         d="m 109.59172,744.97712 c 0.50342,0 0.91119,0.40827 0.91119,0.9112 0,0.50291 -0.40777,0.91119 -0.91119,0.91119 -0.50342,0 -0.91119,-0.40828 -0.91119,-0.91119 0,-0.50293 0.40777,-0.9112 0.91119,-0.9112"
         style="fill:#dddc08;fill-opacity:1;fill-rule:nonzero;stroke:none;stroke-width:0.503421"
         id="path3518-3-0-2-1-3-3-0-48-7"
         inkscape:connector-curvature="0" />
      <path
         d="m 109.59172,753.48555 c 0.50342,0 0.91119,0.40827 0.91119,0.91119 0,0.50291 -0.40777,0.91119 -0.91119,0.91119 -0.50342,0 -0.91119,-0.40828 -0.91119,-0.91119 0,-0.50292 0.40777,-0.91119 0.91119,-0.91119"
         style="fill:#9b86bd;fill-opacity:1;fill-rule:nonzero;stroke:none;stroke-width:0.503421"
         id="path3538-7-3-5-7-3-0-1-4-6"
         inkscape:connector-curvature="0" />
      <path
         d="m 109.59172,732.21363 c 0.50342,0 0.91119,0.40827 0.91119,0.91119 0,0.50292 -0.40777,0.9112 -0.91119,0.9112 -0.50342,0 -0.91119,-0.40828 -0.91119,-0.9112 0,-0.50292 0.40777,-0.91119 0.91119,-0.91119"
         style="fill:#57b6b0;fill-opacity:1;fill-rule:nonzero;stroke:none;stroke-width:0.503421"
         id="path3550-6-2-9-5-3-9-9-8-5"
         inkscape:connector-curvature="0" />
      <path
         d="m 105.36852,738.40172 c 0.50343,0 0.9112,0.40827 0.9112,0.91119 0,0.50292 -0.40777,0.91119 -0.9112,0.91119 -0.50342,0 -0.91119,-0.40827 -0.91119,-0.91119 0,-0.50292 0.40777,-0.91119 0.91119,-0.91119"
         style="fill:#57b6b0;fill-opacity:1;fill-rule:nonzero;stroke:none;stroke-width:0.503421"
         id="path3554-5-7-4-9-8-2-6-1-6"
         inkscape:connector-curvature="0" />
      <path
         d="m 113.8342,747.19527 c 0.50342,0 0.9117,0.40828 0.9117,0.9117 0,0.50392 -0.40828,0.9122 -0.9117,0.9122 -0.50342,0 -0.91169,-0.40828 -0.91169,-0.9122 0,-0.50342 0.40827,-0.9117 0.91169,-0.9117"
         style="fill:#57b6b0;fill-opacity:1;fill-rule:nonzero;stroke:none;stroke-width:0.503421"
         id="path3558-8-6-1-6-6-5-21-6-9"
         inkscape:connector-curvature="0" />
      <path
         d="m 109.59172,736.37214 c 0.50342,0 0.91119,0.40828 0.91119,0.9112 0,0.50291 -0.40777,0.91119 -0.91119,0.91119 -0.50342,0 -0.91119,-0.40828 -0.91119,-0.91119 0,-0.50292 0.40777,-0.9112 0.91119,-0.9112"
         style="fill:#ffd102;fill-opacity:1;fill-rule:nonzero;stroke:none;stroke-width:0.503421"
         id="path3566-7-3-4-2-0-4-2-8-3"
         inkscape:connector-curvature="0" />
      <path
         d="m 105.36852,729.80937 c 0.49638,0 0.89861,0.40223 0.89861,0.8986 0,0.49638 -0.40223,0.89862 -0.89861,0.89862 -0.49637,0 -0.8986,-0.40224 -0.8986,-0.89862 0,-0.49637 0.40223,-0.8986 0.8986,-0.8986"
         style="fill:#49b9eb;fill-opacity:1;fill-rule:nonzero;stroke:none;stroke-width:0.503421"
         id="path3582-7-85-9-1-4-0-0-5-7"
         inkscape:connector-curvature="0" />
      <path
         d="m 113.8342,730.09456 c 0.49637,0 0.89911,0.40273 0.89911,0.89911 0,0.49687 -0.40274,0.89961 -0.89911,0.89961 -0.49637,0 -0.89911,-0.40274 -0.89911,-0.89961 0,-0.49638 0.40274,-0.89911 0.89911,-0.89911"
         style="fill:#49b9eb;fill-opacity:1;fill-rule:nonzero;stroke:none;stroke-width:0.503421"
         id="path3586-2-5-6-7-8-5-7-2-4"
         inkscape:connector-curvature="0" />
      <path
         d="m 105.36852,734.14242 c 0.49638,0 0.89861,0.40223 0.89861,0.8986 0,0.49638 -0.40223,0.89861 -0.89861,0.89861 -0.49637,0 -0.8986,-0.40223 -0.8986,-0.89861 0,-0.49637 0.40223,-0.8986 0.8986,-0.8986"
         style="fill:#49b9eb;fill-opacity:1;fill-rule:nonzero;stroke:none;stroke-width:0.503421"
         id="path3602-8-8-6-8-8-9-3-19-5"
         inkscape:connector-curvature="0" />
      <path
         d="m 109.59172,740.71782 c 0.49637,0 0.89861,0.40224 0.89861,0.89861 0,0.49638 -0.40224,0.89861 -0.89861,0.89861 -0.49637,0 -0.8986,-0.40223 -0.8986,-0.89861 0,-0.49637 0.40223,-0.89861 0.8986,-0.89861"
         style="fill:#49b9eb;fill-opacity:1;fill-rule:nonzero;stroke:none;stroke-width:0.503421"
         id="path3606-8-5-5-5-8-4-1-9-2"
         inkscape:connector-curvature="0" />
      <path
         d="m 113.8342,738.70744 c 0.49637,0 0.89911,0.40273 0.89911,0.89911 0,0.49688 -0.40274,0.89961 -0.89911,0.89961 -0.49637,0 -0.89911,-0.40273 -0.89911,-0.89961 0,-0.49638 0.40274,-0.89911 0.89911,-0.89911"
         style="fill:#49b9eb;fill-opacity:1;fill-rule:nonzero;stroke:none;stroke-width:0.503421"
         id="path3614-9-45-9-7-9-6-1-6-5"
         inkscape:connector-curvature="0" />
      <path
         d="m 109.59172,749.22121 c 0.49637,0 0.89861,0.40224 0.89861,0.89861 0,0.49638 -0.40224,0.89861 -0.89861,0.89861 -0.49637,0 -0.8986,-0.40223 -0.8986,-0.89861 0,-0.49637 0.40223,-0.89861 0.8986,-0.89861"
         style="fill:#49b9eb;fill-opacity:1;fill-rule:nonzero;stroke:none;stroke-width:0.503421"
         id="path3622-4-6-7-4-7-9-9-0-4"
         inkscape:connector-curvature="0" />
      <path
         d="m 105.36852,746.98203 c 0.49638,0 0.89861,0.40223 0.89861,0.8986 0,0.49638 -0.40223,0.89861 -0.89861,0.89861 -0.49637,0 -0.8986,-0.40223 -0.8986,-0.89861 0,-0.49637 0.40223,-0.8986 0.8986,-0.8986"
         style="fill:#49b9eb;fill-opacity:1;fill-rule:nonzero;stroke:none;stroke-width:0.503421"
         id="path3638-2-6-9-1-7-2-0-6-7"
         inkscape:connector-curvature="0" />
    </g>
    <g
       id="g6681-1-4"
       transform="matrix(0.33947867,0,0,0.33947867,-600.11093,-222.8513)">
      <g
         transform="matrix(0.62766579,0,0,-0.62766579,879.0727,316.79696)"
         id="g370-3-4-3-4-2-4-4-6-4-3-72-4"
         style="display:inline">
        <path
           inkscape:connector-curvature="0"
           id="path372-6-5-7-5-5-7-4-9-7-4-4-3"
           style="fill:#ee3d8f;fill-opacity:1;fill-rule:nonzero;stroke:none"
           d="m 0,0 c 0,-24.08 -19.521,-43.601 -43.602,-43.601 -24.08,0 -43.6,19.521 -43.6,43.601 0,24.08 19.52,43.601 43.6,43.601 C -19.521,43.601 0,24.08 0,0" />
      </g>
      <g
         id="text1284-1-0"
         style="font-style:normal;font-weight:normal;font-size:39.5516px;line-height:1.25;font-family:sans-serif;letter-spacing:0px;word-spacing:0px;display:inline;fill:#ffffff;fill-opacity:1;stroke:none;stroke-width:0.988789"
         aria-label="6"
         transform="translate(1368.1168,894.80737)">
        <path
           id="path9187-6-7"
           style="font-style:normal;font-variant:normal;font-weight:300;font-stretch:normal;font-family:Oswald;-inkscape-font-specification:'Oswald Light';stroke-width:0.988789"
           d="m -516.50746,-561.62398 q -7.39661,0 -7.39661,-10.04239 v -12.78474 q 0,-9.94583 7.39661,-9.94583 3.59208,0 5.36881,1.85398 1.77673,1.85398 1.81536,5.58125 0,0.0193 0,0.309 0.0193,0.28968 0.0193,0.309 h -2.85822 q 0,-3.05135 -0.98493,-4.34527 -0.96561,-1.31324 -3.28308,-1.31324 -4.57702,0 -4.57702,6.89449 v 6.04475 q 0.83043,-0.77249 2.2016,-1.33255 1.39049,-0.56006 2.9741,-0.56006 3.84314,0 5.36881,2.22092 1.54499,2.22091 1.54499,7.33867 0,9.77202 -7.58973,9.77202 z m 0,-2.43335 q 2.39472,0 3.51483,-1.60292 1.12012,-1.60292 1.12012,-5.1757 0,-1.44842 -0.0579,-2.41403 -0.0579,-0.98493 -0.23175,-1.95054 -0.1545,-0.96562 -0.46349,-1.54499 -0.309,-0.59868 -0.83043,-1.06217 -0.50212,-0.48281 -1.2553,-0.67593 -0.75318,-0.21244 -1.79604,-0.21244 -1.27462,0 -2.54923,0.57937 -1.2553,0.57937 -1.95054,1.2553 v 5.54263 q 0,3.82383 1.08149,5.54262 1.08149,1.7188 3.41828,1.7188 z"
           inkscape:connector-curvature="0" />
      </g>
    </g>
    <path
       style="fill:#e19932;fill-opacity:1;stroke:#ffffff;stroke-width:0.4122;stroke-miterlimit:4;stroke-dasharray:none;stroke-opacity:1"
       d="m -296.95732,-28.808497 c 0.01,-2.21305 -0.0207,-4.07818 0,-5.89373 -0.0126,-0.27409 -0.0833,-0.47861 0.27074,-0.47951 l 12.73585,0.004 0.007,-1.88459 c -0.0486,-0.43462 0.20252,-0.10607 0.37689,0.0528 1.2914,1.20054 2.63095,2.77735 4.98359,5.06664 0.29169,0.31039 0.31229,0.34721 0.0572,0.6357 -1.42285,1.60353 -2.7922,2.97569 -5.20289,5.27099 -0.25272,0.28146 -0.20902,0.11781 -0.21416,-0.20306 l 0.01,-2.09282 -12.68046,-0.15231 c -0.27754,-0.004 -0.34153,-0.037 -0.34052,-0.32406 z"
       id="path4542-6-5-0-0-8-9-7-7-6-3-7-6"
       inkscape:connector-curvature="0"
       sodipodi:nodetypes="cccccccccccccc"
       inkscape:export-xdpi="90"
       inkscape:export-ydpi="90" />
    <rect
       style="fill:#e19932;fill-opacity:1;fill-rule:nonzero;stroke:#ffffff;stroke-width:0.4122;stroke-linecap:round;stroke-linejoin:miter;stroke-miterlimit:4;stroke-dasharray:none;stroke-dashoffset:0;stroke-opacity:1;paint-order:fill markers stroke"
       id="rect11568-8-8"
       width="4.5838976"
       height="6.8999753"
       x="-303.47543"
       y="-35.203197"
       ry="0.032547031"
       inkscape:export-xdpi="90"
       inkscape:export-ydpi="90" />
    <rect
       style="fill:#00b4e1;fill-opacity:0.74902;stroke:#9195d6;stroke-width:0.0135175;stroke-miterlimit:4;stroke-dasharray:none;stroke-opacity:0"
       id="rect2291-2-1-7-5-6-9"
       width="72.437798"
       height="15.897317"
       x="-391.31271"
       y="-149.7466"
       ry="0" />
    <text
       xml:space="preserve"
       style="font-style:normal;font-weight:normal;font-size:14.9328px;line-height:1.25;font-family:sans-serif;letter-spacing:0px;word-spacing:0px;fill:#ffffff;fill-opacity:1;stroke:none;stroke-width:0.373321"
       x="-507.9415"
       y="-137.06532"
       id="text1254-8"><tspan
         sodipodi:role="line"
         id="tspan1252-4"
         x="-507.9415"
         y="-137.06532"
         style="font-style:normal;font-variant:normal;font-weight:normal;font-stretch:normal;font-family:'Liberation Sans';-inkscape-font-specification:'Liberation Sans';fill:#ffffff;stroke-width:0.373321"><tspan
   style="font-style:normal;font-variant:normal;font-weight:bold;font-stretch:normal;font-family:'Liberation Sans';-inkscape-font-specification:'Liberation Sans Bold'"
   id="tspan2114">Acompañanos</tspan> a <tspan
   style="font-style:normal;font-variant:normal;font-weight:bold;font-stretch:normal;font-family:'Liberation Sans';-inkscape-font-specification:'Liberation Sans Bold'"
   id="tspan2110">mostrarte</tspan> las </tspan></text>
    <g
       id="g10562-3-4-1-3"
       transform="matrix(0.32593007,0.4380851,-0.4380851,0.32593007,14.85462,-296.24818)"
       style="display:inline;opacity:0.74;fill:#ffffff"
       inkscape:export-xdpi="90"
       inkscape:export-ydpi="90">
      <g
         transform="matrix(0.43297686,-0.00206758,0.00206758,0.43297686,-134.76809,713.30886)"
         style="fill:#ffffff;fill-rule:evenodd"
         id="g3259-1-7-3-0-1-56-9-2-1">
        <path
           inkscape:connector-curvature="0"
           style="fill:#ffffff;fill-rule:evenodd"
           id="path166-95-2-5-7-9-4-5-9-7-4"
           d="m 79.950517,55.039789 0.2247,0.5237 c 0.0191,0.0604 0.0378,0.1209 0.0553,0.1818 l 0.0142,-0.0197 0.0261,0.0606 c 3.7968,-3.517297 8.6547,2.7089 3.6171,5.3267 l 0.1585,0.4336 -0.008,0.008 c 0.0297,0.0805 0.0635,0.1626 0.1008,0.246 l 0.0368,0.1006 0.007,-0.005 c 0.8781,1.8513 3.5472,4.4334 7.7189,8.3152 -2.7324,-3.3101 -5.4787,-6.2426 -6.4763,-9.3273 0.0575,-0.0596 0.1129,-0.1196 0.1664,-0.1799 1.3088,1.539 4.686,3.2175 10.0192,5.7331 -3.5511,-2.2865 -7.0042,-4.2207 -8.9122,-6.7936 1.7757,1.0216 5.4409,1.6226 11.0834,2.4357 -3.9148,-1.1021 -7.6466,-1.9186 -10.2202,-3.674 2.0938,0.237 5.6089,-0.3197 10.7624,-1.2261 -4.3871,0.188 -8.4678,0.6255 -11.5565,-0.5345 2.0036,-0.2443 5.2621,-2.149597 10.3005,-5.235897 -3.6808,1.6361 -7.0446,3.3733 -10.1219,3.690797 1.6399,-1.331797 3.7192,-4.195297 6.6906,-8.435297 -2.8963,3.1557 -5.4182,6.2734 -8.3285,7.6905 1.0661,-1.7544 1.7767,-5.3907 2.757,-10.976005 -1.2768,4.055005 -2.2358,7.919805 -4.2405,10.438005 0.1661,-2.0472 -0.8232,-5.6152 -2.4409,-11.042505 0.6733,4.215105 1.5475,8.115405 0.8646,11.270805 -0.0381,0.006 -0.0764,0.0123 -0.1148,0.0193 -0.4338,-1.9569 -2.7329,-4.983 -6.46379,-9.6854 2.01459,3.3655 4.08809,6.421 4.82979,9.3642 -1.1895,-1.7538 -3.8186,-4.0839 -7.69659,-7.4087 2.8257,3.1528 5.97279,5.7229 7.17429,8.685197 l -0.028,0.0197 z m 6.6,1.5202 -0.012,-0.033 0.0224,0.0372 -0.0104,-0.004 z" />
        <path
           inkscape:connector-curvature="0"
           style="fill:#ffffff;fill-opacity:1;fill-rule:evenodd"
           id="path168-5-1-9-1-6-0-9-0-0-9"
           d="m 65.133027,66.196789 c 7.7893,-6.6434 15.74869,-7.9042 17.20379,-8.4704 l 0.1299,0.333 c -5.6227,0.9892 -11.68369,3.7501 -17.33369,8.1374 z" />
        <path
           inkscape:connector-curvature="0"
           style="fill:#ffffff;fill-rule:nonzero"
           id="path170-30-6-6-2-3-3-9-8-9-2"
           d="m 68.791927,63.509789 c -1.5344,1.2088 -2.0154,2.1435 -2.8397,2.6819 -0.8244,0.5384 -1.7632,0.9447 -2.1064,0.5483 -0.3434,-0.39629 0.3665,-1.06669 1.1909,-1.60509 0.8243,-0.5384 1.992,-0.6804 3.7552,-1.6251 z m -1.1681,0.5674 m 0.4212,-0.1826 m -0.0681,0.0301 m -0.0156,0.0156" />
        <path
           inkscape:connector-curvature="0"
           style="fill:#ffffff;fill-opacity:1;fill-rule:evenodd"
           id="path326-37-1-2-2-8-1-07-9-3-0"
           d="m 99.135517,44.953792 c -6.389,6.0088 -10.4898,9.7536 -13.2308,11.093897 l -0.636,-0.2386 c 4.7989,-1.934797 8.5089,-6.640797 13.8668,-10.855297 z m -28.82949,-4.064995 c 5.81819,6.563095 9.44069,10.772195 10.69979,13.551595 l -0.2572,0.628697 c -1.7927,-4.853897 -6.38749,-8.700697 -10.44259,-14.180292 z m 5.0685,-2.4702 c 4.13129,7.736895 6.67489,12.673395 7.25279,15.669395 l -0.3965,0.5516 c -0.6141,-5.1377 -4.1875,-9.9482 -6.85629,-16.220995 z m 8.86609,-1.4832 c 0.2316,8.767795 0.2967,14.320695 -0.5276,17.258395 l -0.6013,0.3159 c 1.7504,-4.8693 0.7078,-10.7703 1.1289,-17.574295 z m 8.5052,2.6467 c -3.5701,8.011395 -5.9047,13.050095 -7.9146,15.345795 l -0.6789,0.0257 c 3.6783,-3.6393 5.2809,-9.4135 8.5935,-15.371495 z m 10.447603,12.472395 c -8.232703,3.024897 -13.472703,4.863497 -16.519803,5.022697 l -0.4917,-0.4687 c 5.1734,0.1003 10.4306,-2.775797 17.011503,-4.553997 z m -0.7845,13.997797 c -8.348303,-2.6895 -13.608503,-4.4696 -16.106603,-6.2216 l -0.0985,-0.6721 c 4.0131,3.2663 9.926,4.2398 16.205103,6.8937 z m -4.169903,6.0587 c -6.9684,-5.3262 -11.3306,-8.7628 -13.0991,-11.2492 l 0.132,-0.6664 c 2.6899,4.4202 7.9368,7.3149 12.9671,11.9156 z m 5.687703,-12.7056 c -8.770503,-0.0692 -14.322403,-0.1945 -17.230203,-1.119 l -0.295,-0.6118 c 4.8064,1.9163 10.7397,1.0767 17.525203,1.7308 z" />
      </g>
      <path
         d="m -97.95175,738.25772 c 0.0022,0.45389 -0.360643,0.82362 -0.810167,0.82576 -0.449849,0.002 -0.815925,-0.36409 -0.818092,-0.81799 -0.0022,-0.45388 0.360391,-0.82357 0.81024,-0.82572 0.449524,-0.002 0.815851,0.36407 0.818019,0.81795 z"
         id="path147-4-2-9-1-1-5-2-63-3-6-6"
         style="fill:#ffffff;fill-opacity:1;fill-rule:nonzero;stroke-width:0.103488"
         inkscape:connector-curvature="0" />
    </g>
    <g
       id="g10562-1-9-7-1-0-8"
       transform="matrix(0.44812953,0.65574648,-0.65574648,0.44812953,216.07445,-349.53569)"
       inkscape:transform-center-x="-15.583536"
       inkscape:transform-center-y="-7.3302958"
       style="display:inline;opacity:0.74;fill:#ffffff"
       inkscape:export-xdpi="90"
       inkscape:export-ydpi="90">
      <g
         transform="matrix(0.43297686,-0.00206758,0.00206758,0.43297686,-134.76809,713.30886)"
         style="fill:#ffffff;fill-rule:evenodd"
         id="g3259-1-7-3-0-1-2-2-6-4-6-9">
        <path
           inkscape:connector-curvature="0"
           style="fill:#ffffff;fill-rule:evenodd"
           id="path166-95-2-5-7-9-4-0-4-1-8-2-2"
           d="m 79.950517,55.039789 0.2247,0.5237 c 0.0191,0.0604 0.0378,0.1209 0.0553,0.1818 l 0.0142,-0.0197 0.0261,0.0606 c 3.7968,-3.517297 8.6547,2.7089 3.6171,5.3267 l 0.1585,0.4336 -0.008,0.008 c 0.0297,0.0805 0.0635,0.1626 0.1008,0.246 l 0.0368,0.1006 0.007,-0.005 c 0.8781,1.8513 3.5472,4.4334 7.7189,8.3152 -2.7324,-3.3101 -5.4787,-6.2426 -6.4763,-9.3273 0.0575,-0.0596 0.1129,-0.1196 0.1664,-0.1799 1.3088,1.539 4.686,3.2175 10.0192,5.7331 -3.5511,-2.2865 -7.0042,-4.2207 -8.9122,-6.7936 1.7757,1.0216 5.4409,1.6226 11.0834,2.4357 -3.9148,-1.1021 -7.6466,-1.9186 -10.2202,-3.674 2.0938,0.237 5.6089,-0.3197 10.7624,-1.2261 -4.3871,0.188 -8.4678,0.6255 -11.5565,-0.5345 2.0036,-0.2443 5.2621,-2.149597 10.3005,-5.235897 -3.6808,1.6361 -7.0446,3.3733 -10.1219,3.690797 1.6399,-1.331797 3.7192,-4.195297 6.6906,-8.435297 -2.8963,3.1557 -5.4182,6.2734 -8.3285,7.6905 1.0661,-1.7544 1.7767,-5.3907 2.757,-10.976005 -1.2768,4.055005 -2.2358,7.919805 -4.2405,10.438005 0.1661,-2.0472 -0.8232,-5.6152 -2.4409,-11.042505 0.6733,4.215105 1.5475,8.115405 0.8646,11.270805 -0.0381,0.006 -0.0764,0.0123 -0.1148,0.0193 -0.4338,-1.9569 -2.7329,-4.983 -6.46379,-9.6854 2.01459,3.3655 4.08809,6.421 4.82979,9.3642 -1.1895,-1.7538 -3.8186,-4.0839 -7.69659,-7.4087 2.8257,3.1528 5.97279,5.7229 7.17429,8.685197 l -0.028,0.0197 z m 6.6,1.5202 -0.012,-0.033 0.0224,0.0372 -0.0104,-0.004 z" />
        <path
           inkscape:connector-curvature="0"
           style="fill:#ffffff;fill-opacity:1;fill-rule:evenodd"
           id="path168-5-1-9-1-6-0-6-4-5-9-6-6"
           d="m 65.133027,66.196789 c 7.7893,-6.6434 15.74869,-7.9042 17.20379,-8.4704 l 0.1299,0.333 c -5.6227,0.9892 -11.68369,3.7501 -17.33369,8.1374 z" />
        <path
           inkscape:connector-curvature="0"
           style="fill:#ffffff;fill-rule:nonzero"
           id="path170-30-6-6-2-3-3-8-5-0-6-1-6"
           d="m 68.791927,63.509789 c -1.5344,1.2088 -2.0154,2.1435 -2.8397,2.6819 -0.8244,0.5384 -1.7632,0.9447 -2.1064,0.5483 -0.3434,-0.39629 0.3665,-1.06669 1.1909,-1.60509 0.8243,-0.5384 1.992,-0.6804 3.7552,-1.6251 z m -1.1681,0.5674 m 0.4212,-0.1826 m -0.0681,0.0301 m -0.0156,0.0156" />
        <path
           inkscape:connector-curvature="0"
           style="fill:#ffffff;fill-opacity:1;fill-rule:evenodd"
           id="path326-37-1-2-2-8-1-7-9-6-7-8-4"
           d="m 99.135517,44.953792 c -6.389,6.0088 -10.4898,9.7536 -13.2308,11.093897 l -0.636,-0.2386 c 4.7989,-1.934797 8.5089,-6.640797 13.8668,-10.855297 z m -28.82949,-4.064995 c 5.81819,6.563095 9.44069,10.772195 10.69979,13.551595 l -0.2572,0.628697 c -1.7927,-4.853897 -6.38749,-8.700697 -10.44259,-14.180292 z m 5.0685,-2.4702 c 4.13129,7.736895 6.67489,12.673395 7.25279,15.669395 l -0.3965,0.5516 c -0.6141,-5.1377 -4.1875,-9.9482 -6.85629,-16.220995 z m 8.86609,-1.4832 c 0.2316,8.767795 0.2967,14.320695 -0.5276,17.258395 l -0.6013,0.3159 c 1.7504,-4.8693 0.7078,-10.7703 1.1289,-17.574295 z m 8.5052,2.6467 c -3.5701,8.011395 -5.9047,13.050095 -7.9146,15.345795 l -0.6789,0.0257 c 3.6783,-3.6393 5.2809,-9.4135 8.5935,-15.371495 z m 10.447603,12.472395 c -8.232703,3.024897 -13.472703,4.863497 -16.519803,5.022697 l -0.4917,-0.4687 c 5.1734,0.1003 10.4306,-2.775797 17.011503,-4.553997 z m -0.7845,13.997797 c -8.348303,-2.6895 -13.608503,-4.4696 -16.106603,-6.2216 l -0.0985,-0.6721 c 4.0131,3.2663 9.926,4.2398 16.205103,6.8937 z m -4.169903,6.0587 c -6.9684,-5.3262 -11.3306,-8.7628 -13.0991,-11.2492 l 0.132,-0.6664 c 2.6899,4.4202 7.9368,7.3149 12.9671,11.9156 z m 5.687703,-12.7056 c -8.770503,-0.0692 -14.322403,-0.1945 -17.230203,-1.119 l -0.295,-0.6118 c 4.8064,1.9163 10.7397,1.0767 17.525203,1.7308 z" />
      </g>
      <path
         d="m -97.95175,738.25772 c 0.0022,0.45389 -0.360643,0.82362 -0.810167,0.82576 -0.449849,0.002 -0.815925,-0.36409 -0.818092,-0.81799 -0.0022,-0.45388 0.360391,-0.82357 0.81024,-0.82572 0.449524,-0.002 0.815851,0.36407 0.818019,0.81795 z"
         id="path147-4-2-9-1-1-5-2-4-1-50-7-7-9"
         style="fill:#ffffff;fill-opacity:1;fill-rule:nonzero;stroke-width:0.103488"
         inkscape:connector-curvature="0" />
    </g>
    <g
       id="g10562-4-8-3-9-5"
       transform="matrix(0.4779912,-0.26395716,0.26395716,0.4779912,-475.80424,-469.64471)"
       inkscape:transform-center-x="25.291094"
       inkscape:transform-center-y="3.2797226"
       style="display:inline;opacity:0.74;fill:#ffffff"
       inkscape:export-xdpi="90"
       inkscape:export-ydpi="90">
      <g
         transform="matrix(0.43297686,-0.00206758,0.00206758,0.43297686,-134.76809,713.30886)"
         style="fill:#ffffff;fill-rule:evenodd"
         id="g3259-1-7-3-0-1-5-1-7-2-0">
        <path
           inkscape:connector-curvature="0"
           style="fill:#ffffff;fill-rule:evenodd"
           id="path166-95-2-5-7-9-4-4-2-1-0-4"
           d="m 79.950517,55.039789 0.2247,0.5237 c 0.0191,0.0604 0.0378,0.1209 0.0553,0.1818 l 0.0142,-0.0197 0.0261,0.0606 c 3.7968,-3.517297 8.6547,2.7089 3.6171,5.3267 l 0.1585,0.4336 -0.008,0.008 c 0.0297,0.0805 0.0635,0.1626 0.1008,0.246 l 0.0368,0.1006 0.007,-0.005 c 0.8781,1.8513 3.5472,4.4334 7.7189,8.3152 -2.7324,-3.3101 -5.4787,-6.2426 -6.4763,-9.3273 0.0575,-0.0596 0.1129,-0.1196 0.1664,-0.1799 1.3088,1.539 4.686,3.2175 10.0192,5.7331 -3.5511,-2.2865 -7.0042,-4.2207 -8.9122,-6.7936 1.7757,1.0216 5.4409,1.6226 11.0834,2.4357 -3.9148,-1.1021 -7.6466,-1.9186 -10.2202,-3.674 2.0938,0.237 5.6089,-0.3197 10.7624,-1.2261 -4.3871,0.188 -8.4678,0.6255 -11.5565,-0.5345 2.0036,-0.2443 5.2621,-2.149597 10.3005,-5.235897 -3.6808,1.6361 -7.0446,3.3733 -10.1219,3.690797 1.6399,-1.331797 3.7192,-4.195297 6.6906,-8.435297 -2.8963,3.1557 -5.4182,6.2734 -8.3285,7.6905 1.0661,-1.7544 1.7767,-5.3907 2.757,-10.976005 -1.2768,4.055005 -2.2358,7.919805 -4.2405,10.438005 0.1661,-2.0472 -0.8232,-5.6152 -2.4409,-11.042505 0.6733,4.215105 1.5475,8.115405 0.8646,11.270805 -0.0381,0.006 -0.0764,0.0123 -0.1148,0.0193 -0.4338,-1.9569 -2.7329,-4.983 -6.46379,-9.6854 2.01459,3.3655 4.08809,6.421 4.82979,9.3642 -1.1895,-1.7538 -3.8186,-4.0839 -7.69659,-7.4087 2.8257,3.1528 5.97279,5.7229 7.17429,8.685197 l -0.028,0.0197 z m 6.6,1.5202 -0.012,-0.033 0.0224,0.0372 -0.0104,-0.004 z" />
        <path
           inkscape:connector-curvature="0"
           style="fill:#ffffff;fill-opacity:1;fill-rule:evenodd"
           id="path168-5-1-9-1-6-0-66-2-2-2-8"
           d="m 65.133027,66.196789 c 7.7893,-6.6434 15.74869,-7.9042 17.20379,-8.4704 l 0.1299,0.333 c -5.6227,0.9892 -11.68369,3.7501 -17.33369,8.1374 z" />
        <path
           inkscape:connector-curvature="0"
           style="fill:#ffffff;fill-rule:nonzero"
           id="path170-30-6-6-2-3-3-3-6-2-3-7"
           d="m 68.791927,63.509789 c -1.5344,1.2088 -2.0154,2.1435 -2.8397,2.6819 -0.8244,0.5384 -1.7632,0.9447 -2.1064,0.5483 -0.3434,-0.39629 0.3665,-1.06669 1.1909,-1.60509 0.8243,-0.5384 1.992,-0.6804 3.7552,-1.6251 z m -1.1681,0.5674 m 0.4212,-0.1826 m -0.0681,0.0301 m -0.0156,0.0156" />
        <path
           inkscape:connector-curvature="0"
           style="fill:#ffffff;fill-opacity:1;fill-rule:evenodd"
           id="path326-37-1-2-2-8-1-9-9-1-7-1"
           d="m 99.135517,44.953792 c -6.389,6.0088 -10.4898,9.7536 -13.2308,11.093897 l -0.636,-0.2386 c 4.7989,-1.934797 8.5089,-6.640797 13.8668,-10.855297 z m -28.82949,-4.064995 c 5.81819,6.563095 9.44069,10.772195 10.69979,13.551595 l -0.2572,0.628697 c -1.7927,-4.853897 -6.38749,-8.700697 -10.44259,-14.180292 z m 5.0685,-2.4702 c 4.13129,7.736895 6.67489,12.673395 7.25279,15.669395 l -0.3965,0.5516 c -0.6141,-5.1377 -4.1875,-9.9482 -6.85629,-16.220995 z m 8.86609,-1.4832 c 0.2316,8.767795 0.2967,14.320695 -0.5276,17.258395 l -0.6013,0.3159 c 1.7504,-4.8693 0.7078,-10.7703 1.1289,-17.574295 z m 8.5052,2.6467 c -3.5701,8.011395 -5.9047,13.050095 -7.9146,15.345795 l -0.6789,0.0257 c 3.6783,-3.6393 5.2809,-9.4135 8.5935,-15.371495 z m 10.447603,12.472395 c -8.232703,3.024897 -13.472703,4.863497 -16.519803,5.022697 l -0.4917,-0.4687 c 5.1734,0.1003 10.4306,-2.775797 17.011503,-4.553997 z m -0.7845,13.997797 c -8.348303,-2.6895 -13.608503,-4.4696 -16.106603,-6.2216 l -0.0985,-0.6721 c 4.0131,3.2663 9.926,4.2398 16.205103,6.8937 z m -4.169903,6.0587 c -6.9684,-5.3262 -11.3306,-8.7628 -13.0991,-11.2492 l 0.132,-0.6664 c 2.6899,4.4202 7.9368,7.3149 12.9671,11.9156 z m 5.687703,-12.7056 c -8.770503,-0.0692 -14.322403,-0.1945 -17.230203,-1.119 l -0.295,-0.6118 c 4.8064,1.9163 10.7397,1.0767 17.525203,1.7308 z" />
      </g>
      <path
         d="m -97.95175,738.25772 c 0.0022,0.45389 -0.360643,0.82362 -0.810167,0.82576 -0.449849,0.002 -0.815925,-0.36409 -0.818092,-0.81799 -0.0022,-0.45388 0.360391,-0.82357 0.81024,-0.82572 0.449524,-0.002 0.815851,0.36407 0.818019,0.81795 z"
         id="path147-4-2-9-1-1-5-2-9-1-5-5-7"
         style="fill:#ffffff;fill-opacity:1;fill-rule:nonzero;stroke-width:0.103488"
         inkscape:connector-curvature="0" />
    </g>
    <g
       id="g10562-1-5-04-0-9-2"
       transform="matrix(0.54485117,0.11900929,-0.11900929,0.54485117,-161.85112,-485.31349)"
       inkscape:transform-center-x="13.783231"
       inkscape:transform-center-y="-1.5754494"
       style="display:inline;opacity:0.74;fill:#ffffff"
       inkscape:export-xdpi="90"
       inkscape:export-ydpi="90">
      <g
         transform="matrix(0.43297686,-0.00206758,0.00206758,0.43297686,-134.76809,713.30886)"
         style="fill:#ffffff;fill-rule:evenodd"
         id="g3259-1-7-3-0-1-2-21-27-9-2-7">
        <path
           inkscape:connector-curvature="0"
           style="fill:#ffffff;fill-rule:evenodd"
           id="path166-95-2-5-7-9-4-0-3-4-0-2-2"
           d="m 79.950517,55.039789 0.2247,0.5237 c 0.0191,0.0604 0.0378,0.1209 0.0553,0.1818 l 0.0142,-0.0197 0.0261,0.0606 c 3.7968,-3.517297 8.6547,2.7089 3.6171,5.3267 l 0.1585,0.4336 -0.008,0.008 c 0.0297,0.0805 0.0635,0.1626 0.1008,0.246 l 0.0368,0.1006 0.007,-0.005 c 0.8781,1.8513 3.5472,4.4334 7.7189,8.3152 -2.7324,-3.3101 -5.4787,-6.2426 -6.4763,-9.3273 0.0575,-0.0596 0.1129,-0.1196 0.1664,-0.1799 1.3088,1.539 4.686,3.2175 10.0192,5.7331 -3.5511,-2.2865 -7.0042,-4.2207 -8.9122,-6.7936 1.7757,1.0216 5.4409,1.6226 11.0834,2.4357 -3.9148,-1.1021 -7.6466,-1.9186 -10.2202,-3.674 2.0938,0.237 5.6089,-0.3197 10.7624,-1.2261 -4.3871,0.188 -8.4678,0.6255 -11.5565,-0.5345 2.0036,-0.2443 5.2621,-2.149597 10.3005,-5.235897 -3.6808,1.6361 -7.0446,3.3733 -10.1219,3.690797 1.6399,-1.331797 3.7192,-4.195297 6.6906,-8.435297 -2.8963,3.1557 -5.4182,6.2734 -8.3285,7.6905 1.0661,-1.7544 1.7767,-5.3907 2.757,-10.976005 -1.2768,4.055005 -2.2358,7.919805 -4.2405,10.438005 0.1661,-2.0472 -0.8232,-5.6152 -2.4409,-11.042505 0.6733,4.215105 1.5475,8.115405 0.8646,11.270805 -0.0381,0.006 -0.0764,0.0123 -0.1148,0.0193 -0.4338,-1.9569 -2.7329,-4.983 -6.46379,-9.6854 2.01459,3.3655 4.08809,6.421 4.82979,9.3642 -1.1895,-1.7538 -3.8186,-4.0839 -7.69659,-7.4087 2.8257,3.1528 5.97279,5.7229 7.17429,8.685197 l -0.028,0.0197 z m 6.6,1.5202 -0.012,-0.033 0.0224,0.0372 -0.0104,-0.004 z" />
        <path
           inkscape:connector-curvature="0"
           style="fill:#ffffff;fill-opacity:1;fill-rule:evenodd"
           id="path168-5-1-9-1-6-0-6-0-0-4-8-2"
           d="m 65.133027,66.196789 c 7.7893,-6.6434 15.74869,-7.9042 17.20379,-8.4704 l 0.1299,0.333 c -5.6227,0.9892 -11.68369,3.7501 -17.33369,8.1374 z" />
        <path
           inkscape:connector-curvature="0"
           style="fill:#ffffff;fill-rule:nonzero"
           id="path170-30-6-6-2-3-3-8-9-32-0-9-6"
           d="m 68.791927,63.509789 c -1.5344,1.2088 -2.0154,2.1435 -2.8397,2.6819 -0.8244,0.5384 -1.7632,0.9447 -2.1064,0.5483 -0.3434,-0.39629 0.3665,-1.06669 1.1909,-1.60509 0.8243,-0.5384 1.992,-0.6804 3.7552,-1.6251 z m -1.1681,0.5674 m 0.4212,-0.1826 m -0.0681,0.0301 m -0.0156,0.0156" />
        <path
           inkscape:connector-curvature="0"
           style="fill:#ffffff;fill-opacity:1;fill-rule:evenodd"
           id="path326-37-1-2-2-8-1-7-91-8-1-7-1"
           d="m 99.135517,44.953792 c -6.389,6.0088 -10.4898,9.7536 -13.2308,11.093897 l -0.636,-0.2386 c 4.7989,-1.934797 8.5089,-6.640797 13.8668,-10.855297 z m -28.82949,-4.064995 c 5.81819,6.563095 9.44069,10.772195 10.69979,13.551595 l -0.2572,0.628697 c -1.7927,-4.853897 -6.38749,-8.700697 -10.44259,-14.180292 z m 5.0685,-2.4702 c 4.13129,7.736895 6.67489,12.673395 7.25279,15.669395 l -0.3965,0.5516 c -0.6141,-5.1377 -4.1875,-9.9482 -6.85629,-16.220995 z m 8.86609,-1.4832 c 0.2316,8.767795 0.2967,14.320695 -0.5276,17.258395 l -0.6013,0.3159 c 1.7504,-4.8693 0.7078,-10.7703 1.1289,-17.574295 z m 8.5052,2.6467 c -3.5701,8.011395 -5.9047,13.050095 -7.9146,15.345795 l -0.6789,0.0257 c 3.6783,-3.6393 5.2809,-9.4135 8.5935,-15.371495 z m 10.447603,12.472395 c -8.232703,3.024897 -13.472703,4.863497 -16.519803,5.022697 l -0.4917,-0.4687 c 5.1734,0.1003 10.4306,-2.775797 17.011503,-4.553997 z m -0.7845,13.997797 c -8.348303,-2.6895 -13.608503,-4.4696 -16.106603,-6.2216 l -0.0985,-0.6721 c 4.0131,3.2663 9.926,4.2398 16.205103,6.8937 z m -4.169903,6.0587 c -6.9684,-5.3262 -11.3306,-8.7628 -13.0991,-11.2492 l 0.132,-0.6664 c 2.6899,4.4202 7.9368,7.3149 12.9671,11.9156 z m 5.687703,-12.7056 c -8.770503,-0.0692 -14.322403,-0.1945 -17.230203,-1.119 l -0.295,-0.6118 c 4.8064,1.9163 10.7397,1.0767 17.525203,1.7308 z" />
      </g>
      <path
         d="m -97.95175,738.25772 c 0.0022,0.45389 -0.360643,0.82362 -0.810167,0.82576 -0.449849,0.002 -0.815925,-0.36409 -0.818092,-0.81799 -0.0022,-0.45388 0.360391,-0.82357 0.81024,-0.82572 0.449524,-0.002 0.815851,0.36407 0.818019,0.81795 z"
         id="path147-4-2-9-1-1-5-2-4-3-0-3-3-0"
         style="fill:#ffffff;fill-opacity:1;fill-rule:nonzero;stroke-width:0.103488"
         inkscape:connector-curvature="0" />
    </g>
    <g
       id="g10562-1-9-6-3-7-6-6"
       transform="matrix(0.62748385,0.32231671,-0.32231671,0.62748385,-33.41353,-532.21265)"
       inkscape:transform-center-x="2.2966509"
       inkscape:transform-center-y="1.0815654"
       style="display:inline;opacity:0.74;fill:#ffffff"
       inkscape:export-xdpi="90"
       inkscape:export-ydpi="90">
      <g
         transform="matrix(0.43297686,-0.00206758,0.00206758,0.43297686,-134.76809,713.30886)"
         style="fill:#ffffff;fill-rule:evenodd"
         id="g3259-1-7-3-0-1-2-2-8-7-4-1-1">
        <path
           inkscape:connector-curvature="0"
           style="fill:#ffffff;fill-rule:evenodd"
           id="path166-95-2-5-7-9-4-0-4-0-00-1-2-5"
           d="m 79.950517,55.039789 0.2247,0.5237 c 0.0191,0.0604 0.0378,0.1209 0.0553,0.1818 l 0.0142,-0.0197 0.0261,0.0606 c 3.7968,-3.517297 8.6547,2.7089 3.6171,5.3267 l 0.1585,0.4336 -0.008,0.008 c 0.0297,0.0805 0.0635,0.1626 0.1008,0.246 l 0.0368,0.1006 0.007,-0.005 c 0.8781,1.8513 3.5472,4.4334 7.7189,8.3152 -2.7324,-3.3101 -5.4787,-6.2426 -6.4763,-9.3273 0.0575,-0.0596 0.1129,-0.1196 0.1664,-0.1799 1.3088,1.539 4.686,3.2175 10.0192,5.7331 -3.5511,-2.2865 -7.0042,-4.2207 -8.9122,-6.7936 1.7757,1.0216 5.4409,1.6226 11.0834,2.4357 -3.9148,-1.1021 -7.6466,-1.9186 -10.2202,-3.674 2.0938,0.237 5.6089,-0.3197 10.7624,-1.2261 -4.3871,0.188 -8.4678,0.6255 -11.5565,-0.5345 2.0036,-0.2443 5.2621,-2.149597 10.3005,-5.235897 -3.6808,1.6361 -7.0446,3.3733 -10.1219,3.690797 1.6399,-1.331797 3.7192,-4.195297 6.6906,-8.435297 -2.8963,3.1557 -5.4182,6.2734 -8.3285,7.6905 1.0661,-1.7544 1.7767,-5.3907 2.757,-10.976005 -1.2768,4.055005 -2.2358,7.919805 -4.2405,10.438005 0.1661,-2.0472 -0.8232,-5.6152 -2.4409,-11.042505 0.6733,4.215105 1.5475,8.115405 0.8646,11.270805 -0.0381,0.006 -0.0764,0.0123 -0.1148,0.0193 -0.4338,-1.9569 -2.7329,-4.983 -6.46379,-9.6854 2.01459,3.3655 4.08809,6.421 4.82979,9.3642 -1.1895,-1.7538 -3.8186,-4.0839 -7.69659,-7.4087 2.8257,3.1528 5.97279,5.7229 7.17429,8.685197 l -0.028,0.0197 z m 6.6,1.5202 -0.012,-0.033 0.0224,0.0372 -0.0104,-0.004 z" />
        <path
           inkscape:connector-curvature="0"
           style="fill:#ffffff;fill-opacity:1;fill-rule:evenodd"
           id="path168-5-1-9-1-6-0-6-4-2-3-1-9-9"
           d="m 65.133027,66.196789 c 7.7893,-6.6434 15.74869,-7.9042 17.20379,-8.4704 l 0.1299,0.333 c -5.6227,0.9892 -11.68369,3.7501 -17.33369,8.1374 z" />
        <path
           inkscape:connector-curvature="0"
           style="fill:#ffffff;fill-rule:nonzero"
           id="path170-30-6-6-2-3-3-8-5-1-4-3-3-4"
           d="m 68.791927,63.509789 c -1.5344,1.2088 -2.0154,2.1435 -2.8397,2.6819 -0.8244,0.5384 -1.7632,0.9447 -2.1064,0.5483 -0.3434,-0.39629 0.3665,-1.06669 1.1909,-1.60509 0.8243,-0.5384 1.992,-0.6804 3.7552,-1.6251 z m -1.1681,0.5674 m 0.4212,-0.1826 m -0.0681,0.0301 m -0.0156,0.0156" />
        <path
           inkscape:connector-curvature="0"
           style="fill:#ffffff;fill-opacity:1;fill-rule:evenodd"
           id="path326-37-1-2-2-8-1-7-9-0-9-0-1-9"
           d="m 99.135517,44.953792 c -6.389,6.0088 -10.4898,9.7536 -13.2308,11.093897 l -0.636,-0.2386 c 4.7989,-1.934797 8.5089,-6.640797 13.8668,-10.855297 z m -28.82949,-4.064995 c 5.81819,6.563095 9.44069,10.772195 10.69979,13.551595 l -0.2572,0.628697 c -1.7927,-4.853897 -6.38749,-8.700697 -10.44259,-14.180292 z m 5.0685,-2.4702 c 4.13129,7.736895 6.67489,12.673395 7.25279,15.669395 l -0.3965,0.5516 c -0.6141,-5.1377 -4.1875,-9.9482 -6.85629,-16.220995 z m 8.86609,-1.4832 c 0.2316,8.767795 0.2967,14.320695 -0.5276,17.258395 l -0.6013,0.3159 c 1.7504,-4.8693 0.7078,-10.7703 1.1289,-17.574295 z m 8.5052,2.6467 c -3.5701,8.011395 -5.9047,13.050095 -7.9146,15.345795 l -0.6789,0.0257 c 3.6783,-3.6393 5.2809,-9.4135 8.5935,-15.371495 z m 10.447603,12.472395 c -8.232703,3.024897 -13.472703,4.863497 -16.519803,5.022697 l -0.4917,-0.4687 c 5.1734,0.1003 10.4306,-2.775797 17.011503,-4.553997 z m -0.7845,13.997797 c -8.348303,-2.6895 -13.608503,-4.4696 -16.106603,-6.2216 l -0.0985,-0.6721 c 4.0131,3.2663 9.926,4.2398 16.205103,6.8937 z m -4.169903,6.0587 c -6.9684,-5.3262 -11.3306,-8.7628 -13.0991,-11.2492 l 0.132,-0.6664 c 2.6899,4.4202 7.9368,7.3149 12.9671,11.9156 z m 5.687703,-12.7056 c -8.770503,-0.0692 -14.322403,-0.1945 -17.230203,-1.119 l -0.295,-0.6118 c 4.8064,1.9163 10.7397,1.0767 17.525203,1.7308 z" />
      </g>
      <path
         d="m -97.95175,738.25772 c 0.0022,0.45389 -0.360643,0.82362 -0.810167,0.82576 -0.449849,0.002 -0.815925,-0.36409 -0.818092,-0.81799 -0.0022,-0.45388 0.360391,-0.82357 0.81024,-0.82572 0.449524,-0.002 0.815851,0.36407 0.818019,0.81795 z"
         id="path147-4-2-9-1-1-5-2-4-1-5-2-3-9-0"
         style="fill:#ffffff;fill-opacity:1;fill-rule:nonzero;stroke-width:0.103488"
         inkscape:connector-curvature="0" />
    </g>
  </g>
</svg>
