<?xml version="1.0" encoding="UTF-8" standalone="no"?>
<svg
   xmlns:dc="http://purl.org/dc/elements/1.1/"
   xmlns:cc="http://creativecommons.org/ns#"
   xmlns:rdf="http://www.w3.org/1999/02/22-rdf-syntax-ns#"
   xmlns:svg="http://www.w3.org/2000/svg"
   xmlns="http://www.w3.org/2000/svg"
   xmlns:sodipodi="http://sodipodi.sourceforge.net/DTD/sodipodi-0.dtd"
   xmlns:inkscape="http://www.inkscape.org/namespaces/inkscape"
   width="301.0441mm"
   height="213.07564mm"
   viewBox="0 0 301.0441 213.07564"
   version="1.1"
   id="svg8538"
   inkscape:version="1.0.2 (e86c870879, 2021-01-15)"
   sodipodi:docname="seguinos.svg">
  <defs
     id="defs8532" />
  <sodipodi:namedview
     id="base"
     pagecolor="#ffffff"
     bordercolor="#666666"
     borderopacity="1.0"
     inkscape:pageopacity="0.0"
     inkscape:pageshadow="2"
     inkscape:zoom="0.35"
     inkscape:cx="1266.0451"
     inkscape:cy="494.09129"
     inkscape:document-units="mm"
     inkscape:current-layer="layer1"
     inkscape:document-rotation="0"
     showgrid="false"
     inkscape:window-width="1329"
     inkscape:window-height="688"
     inkscape:window-x="16"
     inkscape:window-y="26"
     inkscape:window-maximized="0"
     showborder="false" />
  <metadata
     id="metadata8535">
    <rdf:RDF>
      <cc:Work
         rdf:about="">
        <dc:format>image/svg+xml</dc:format>
        <dc:type
           rdf:resource="http://purl.org/dc/dcmitype/StillImage" />
        <dc:title />
      </cc:Work>
    </rdf:RDF>
  </metadata>
  <g
     inkscape:label="Capa 1"
     inkscape:groupmode="layer"
     id="layer1"
     transform="translate(229.1411,-17.438347)">
    <rect
       style="opacity:0.3;fill:#ee3d8f;fill-opacity:1;stroke:none;stroke-width:0.65956;stroke-miterlimit:4;stroke-dasharray:none;stroke-opacity:0"
       id="rect2397-4-1-8-7"
       width="262.15286"
       height="101.33922"
       x="-205.85156"
       y="68.434608"
       ry="8.8966274" />
    <rect
       style="fill:#ee3d8f;fill-opacity:1;stroke:#9195d6;stroke-width:0.0240042;stroke-miterlimit:4;stroke-dasharray:none;stroke-opacity:0"
       id="rect983-6"
       width="210.11601"
       height="20.748499"
       x="-183.64648"
       y="37.122234"
       ry="6.9926443" />
    <text
       xml:space="preserve"
       style="font-style:normal;font-variant:normal;font-weight:bold;font-stretch:normal;font-size:14.9745px;line-height:1.25;font-family:'Liberation Sans';-inkscape-font-specification:'Liberation Sans Bold';letter-spacing:0px;word-spacing:0px;fill:#ffffff;fill-opacity:1;stroke:none;stroke-width:0.374361"
       x="-178.18344"
       y="50.736858"
       id="text1061-2-0-0-4"><tspan
         sodipodi:role="line"
         id="tspan1059-5-1-6-74"
         x="-178.18344"
         y="50.736858"
         style="font-style:normal;font-variant:normal;font-weight:bold;font-stretch:normal;font-family:'Liberation Sans';-inkscape-font-specification:'Liberation Sans Bold';fill:#ffffff;stroke-width:0.374361">Seguí a Huayra en las redes</tspan></text>
    <rect
       style="fill:#00b4e1;fill-opacity:0.74902;stroke:#9195d6;stroke-width:0.018966;stroke-miterlimit:4;stroke-dasharray:none;stroke-opacity:0"
       id="rect2291-2-1-7-5-6-5-2-9"
       width="159.07727"
       height="14.250818"
       x="-107.3009"
       y="81.010536"
       ry="0" />
    <rect
       style="fill:#00b4e1;fill-opacity:0.74902;stroke:#9195d6;stroke-width:0.015964;stroke-miterlimit:4;stroke-dasharray:none;stroke-opacity:0"
       id="rect2291-2-1-7-5-6-5-2-9-9"
       width="112.68001"
       height="14.253821"
       x="-145.93607"
       y="123.15507"
       ry="0" />
    <rect
       style="fill:#00b4e1;fill-opacity:0.74902;stroke:#9195d6;stroke-width:0.0219135;stroke-miterlimit:4;stroke-dasharray:none;stroke-opacity:0"
       id="rect2291-2-1-7-5-6-5-2-9-9-3"
       width="212.40799"
       height="14.247871"
       x="-199.26672"
       y="150.85403"
       ry="0" />
    <text
       xml:space="preserve"
       style="font-style:normal;font-weight:normal;font-size:6.95222px;line-height:1.25;font-family:sans-serif;letter-spacing:0px;word-spacing:0px;fill:#ffffff;fill-opacity:1;stroke:none;stroke-width:0.173806"
       x="-198.04211"
       y="77.230385"
       id="text961-6"><tspan
         sodipodi:role="line"
         id="tspan959-6"
         x="-198.04211"
         y="77.230385"
         style="font-style:normal;font-variant:normal;font-weight:normal;font-stretch:normal;font-size:11.587px;font-family:'Liberation Sans';-inkscape-font-specification:'Liberation Sans';fill:#ffffff;stroke-width:0.173806"> </tspan><tspan
         sodipodi:role="line"
         x="-198.04211"
         y="91.445618"
         style="font-style:normal;font-variant:normal;font-weight:normal;font-stretch:normal;font-size:11.2889px;font-family:'Liberation Sans';-inkscape-font-specification:'Liberation Sans';fill:#ffffff;stroke-width:0.173806"
         id="tspan1811-0"><tspan
   style="font-style:normal;font-variant:normal;font-weight:bold;font-stretch:normal;font-family:'Liberation Sans';-inkscape-font-specification:'Liberation Sans Bold'"
   id="tspan2108">Contribuí</tspan> con tus <tspan
   style="font-style:normal;font-variant:normal;font-weight:bold;font-stretch:normal;font-family:'Liberation Sans';-inkscape-font-specification:'Liberation Sans Bold'"
   id="tspan5214">creaciones, proyectos, ideas</tspan> </tspan><tspan
         sodipodi:role="line"
         x="-198.04211"
         y="105.55675"
         style="font-style:normal;font-variant:normal;font-weight:normal;font-stretch:normal;font-size:11.2889px;font-family:'Liberation Sans';-inkscape-font-specification:'Liberation Sans';fill:#ffffff;stroke-width:0.173806"
         id="tspan5200">y todo lo que se te ocurra.</tspan><tspan
         sodipodi:role="line"
         x="-198.04211"
         y="119.66787"
         style="font-style:normal;font-variant:normal;font-weight:normal;font-stretch:normal;font-size:11.2889px;font-family:'Liberation Sans';-inkscape-font-specification:'Liberation Sans';fill:#ffffff;stroke-width:0.173806"
         id="tspan5202">También podés organizar talleres, hackatones y </tspan><tspan
         sodipodi:role="line"
         x="-198.04211"
         y="133.77899"
         style="font-style:normal;font-variant:normal;font-weight:normal;font-stretch:normal;font-size:11.2889px;font-family:'Liberation Sans';-inkscape-font-specification:'Liberation Sans';fill:#ffffff;stroke-width:0.173806"
         id="tspan5204">grupos de <tspan
   style="font-style:normal;font-variant:normal;font-weight:bold;font-stretch:normal;font-family:'Liberation Sans';-inkscape-font-specification:'Liberation Sans Bold'"
   id="tspan5216">trabajo colaborativo.</tspan> </tspan><tspan
         sodipodi:role="line"
         x="-198.04211"
         y="147.89012"
         id="tspan5212"
         style="font-style:normal;font-variant:normal;font-weight:normal;font-stretch:normal;font-size:11.2889px;font-family:'Liberation Sans';-inkscape-font-specification:'Liberation Sans';fill:#ffffff;stroke-width:0.173806" /><tspan
         sodipodi:role="line"
         x="-198.04211"
         y="162.00125"
         style="font-style:normal;font-variant:normal;font-weight:bold;font-stretch:normal;font-size:11.2889px;font-family:'Liberation Sans';-inkscape-font-specification:'Liberation Sans Bold';fill:#ffffff;stroke-width:0.173806"
         id="tspan5208">¡Tus profes también pueden participar!</tspan></text>
    <g
       style="display:inline"
       id="g45275-2-4-8-6-3-4"
       transform="matrix(0,1.0150202,-1.0150202,0,784.83056,63.0137)">
      <path
         d="m 113.8342,742.94106 c 0.50342,0 0.9117,0.40827 0.9117,0.91169 0,0.50393 -0.40828,0.9122 -0.9117,0.9122 -0.50342,0 -0.91169,-0.40827 -0.91169,-0.9122 0,-0.50342 0.40827,-0.91169 0.91169,-0.91169"
         style="fill:#e7408a;fill-opacity:1;fill-rule:nonzero;stroke:none;stroke-width:0.503421"
         id="path3498-3-2-8-7-9-4-49-5"
         inkscape:connector-curvature="0" />
      <path
         d="m 113.8342,734.43259 c 0.50342,0 0.9117,0.40827 0.9117,0.91169 0,0.50393 -0.40828,0.9122 -0.9117,0.9122 -0.50342,0 -0.91169,-0.40827 -0.91169,-0.9122 0,-0.50342 0.40827,-0.91169 0.91169,-0.91169"
         style="fill:#f19106;fill-opacity:1;fill-rule:nonzero;stroke:none;stroke-width:0.503421"
         id="path3510-5-2-6-6-6-3-0-2"
         inkscape:connector-curvature="0" />
      <path
         d="m 105.36852,742.65593 c 0.50343,0 0.9112,0.40827 0.9112,0.91119 0,0.50342 -0.40777,0.91119 -0.9112,0.91119 -0.50342,0 -0.91119,-0.40777 -0.91119,-0.91119 0,-0.50292 0.40777,-0.91119 0.91119,-0.91119"
         style="fill:#f19106;fill-opacity:1;fill-rule:nonzero;stroke:none;stroke-width:0.503421"
         id="path3514-0-5-7-3-4-0-2-02"
         inkscape:connector-curvature="0" />
      <path
         d="m 109.59172,744.97712 c 0.50342,0 0.91119,0.40827 0.91119,0.9112 0,0.50291 -0.40777,0.91119 -0.91119,0.91119 -0.50342,0 -0.91119,-0.40828 -0.91119,-0.91119 0,-0.50293 0.40777,-0.9112 0.91119,-0.9112"
         style="fill:#dddc08;fill-opacity:1;fill-rule:nonzero;stroke:none;stroke-width:0.503421"
         id="path3518-3-0-2-1-3-3-0-9"
         inkscape:connector-curvature="0" />
      <path
         d="m 109.59172,753.48555 c 0.50342,0 0.91119,0.40827 0.91119,0.91119 0,0.50291 -0.40777,0.91119 -0.91119,0.91119 -0.50342,0 -0.91119,-0.40828 -0.91119,-0.91119 0,-0.50292 0.40777,-0.91119 0.91119,-0.91119"
         style="fill:#9b86bd;fill-opacity:1;fill-rule:nonzero;stroke:none;stroke-width:0.503421"
         id="path3538-7-3-5-7-3-0-1-0"
         inkscape:connector-curvature="0" />
      <path
         d="m 109.59172,732.21363 c 0.50342,0 0.91119,0.40827 0.91119,0.91119 0,0.50292 -0.40777,0.9112 -0.91119,0.9112 -0.50342,0 -0.91119,-0.40828 -0.91119,-0.9112 0,-0.50292 0.40777,-0.91119 0.91119,-0.91119"
         style="fill:#57b6b0;fill-opacity:1;fill-rule:nonzero;stroke:none;stroke-width:0.503421"
         id="path3550-6-2-9-5-3-9-9-9"
         inkscape:connector-curvature="0" />
      <path
         d="m 105.36852,738.40172 c 0.50343,0 0.9112,0.40827 0.9112,0.91119 0,0.50292 -0.40777,0.91119 -0.9112,0.91119 -0.50342,0 -0.91119,-0.40827 -0.91119,-0.91119 0,-0.50292 0.40777,-0.91119 0.91119,-0.91119"
         style="fill:#57b6b0;fill-opacity:1;fill-rule:nonzero;stroke:none;stroke-width:0.503421"
         id="path3554-5-7-4-9-8-2-6-9"
         inkscape:connector-curvature="0" />
      <path
         d="m 113.8342,747.19527 c 0.50342,0 0.9117,0.40828 0.9117,0.9117 0,0.50392 -0.40828,0.9122 -0.9117,0.9122 -0.50342,0 -0.91169,-0.40828 -0.91169,-0.9122 0,-0.50342 0.40827,-0.9117 0.91169,-0.9117"
         style="fill:#57b6b0;fill-opacity:1;fill-rule:nonzero;stroke:none;stroke-width:0.503421"
         id="path3558-8-6-1-6-6-5-21-4"
         inkscape:connector-curvature="0" />
      <path
         d="m 109.59172,736.37214 c 0.50342,0 0.91119,0.40828 0.91119,0.9112 0,0.50291 -0.40777,0.91119 -0.91119,0.91119 -0.50342,0 -0.91119,-0.40828 -0.91119,-0.91119 0,-0.50292 0.40777,-0.9112 0.91119,-0.9112"
         style="fill:#ffd102;fill-opacity:1;fill-rule:nonzero;stroke:none;stroke-width:0.503421"
         id="path3566-7-3-4-2-0-4-2-5"
         inkscape:connector-curvature="0" />
      <path
         d="m 105.36852,729.80937 c 0.49638,0 0.89861,0.40223 0.89861,0.8986 0,0.49638 -0.40223,0.89862 -0.89861,0.89862 -0.49637,0 -0.8986,-0.40224 -0.8986,-0.89862 0,-0.49637 0.40223,-0.8986 0.8986,-0.8986"
         style="fill:#49b9eb;fill-opacity:1;fill-rule:nonzero;stroke:none;stroke-width:0.503421"
         id="path3582-7-85-9-1-4-0-0-1"
         inkscape:connector-curvature="0" />
      <path
         d="m 113.8342,730.09456 c 0.49637,0 0.89911,0.40273 0.89911,0.89911 0,0.49687 -0.40274,0.89961 -0.89911,0.89961 -0.49637,0 -0.89911,-0.40274 -0.89911,-0.89961 0,-0.49638 0.40274,-0.89911 0.89911,-0.89911"
         style="fill:#49b9eb;fill-opacity:1;fill-rule:nonzero;stroke:none;stroke-width:0.503421"
         id="path3586-2-5-6-7-8-5-7-0"
         inkscape:connector-curvature="0" />
      <path
         d="m 105.36852,734.14242 c 0.49638,0 0.89861,0.40223 0.89861,0.8986 0,0.49638 -0.40223,0.89861 -0.89861,0.89861 -0.49637,0 -0.8986,-0.40223 -0.8986,-0.89861 0,-0.49637 0.40223,-0.8986 0.8986,-0.8986"
         style="fill:#49b9eb;fill-opacity:1;fill-rule:nonzero;stroke:none;stroke-width:0.503421"
         id="path3602-8-8-6-8-8-9-3-3"
         inkscape:connector-curvature="0" />
      <path
         d="m 109.59172,740.71782 c 0.49637,0 0.89861,0.40224 0.89861,0.89861 0,0.49638 -0.40224,0.89861 -0.89861,0.89861 -0.49637,0 -0.8986,-0.40223 -0.8986,-0.89861 0,-0.49637 0.40223,-0.89861 0.8986,-0.89861"
         style="fill:#49b9eb;fill-opacity:1;fill-rule:nonzero;stroke:none;stroke-width:0.503421"
         id="path3606-8-5-5-5-8-4-1-78"
         inkscape:connector-curvature="0" />
      <path
         d="m 113.8342,738.70744 c 0.49637,0 0.89911,0.40273 0.89911,0.89911 0,0.49688 -0.40274,0.89961 -0.89911,0.89961 -0.49637,0 -0.89911,-0.40273 -0.89911,-0.89961 0,-0.49638 0.40274,-0.89911 0.89911,-0.89911"
         style="fill:#49b9eb;fill-opacity:1;fill-rule:nonzero;stroke:none;stroke-width:0.503421"
         id="path3614-9-45-9-7-9-6-1-8"
         inkscape:connector-curvature="0" />
      <path
         d="m 109.59172,749.22121 c 0.49637,0 0.89861,0.40224 0.89861,0.89861 0,0.49638 -0.40224,0.89861 -0.89861,0.89861 -0.49637,0 -0.8986,-0.40223 -0.8986,-0.89861 0,-0.49637 0.40223,-0.89861 0.8986,-0.89861"
         style="fill:#49b9eb;fill-opacity:1;fill-rule:nonzero;stroke:none;stroke-width:0.503421"
         id="path3622-4-6-7-4-7-9-9-60"
         inkscape:connector-curvature="0" />
      <path
         d="m 105.36852,746.98203 c 0.49638,0 0.89861,0.40223 0.89861,0.8986 0,0.49638 -0.40223,0.89861 -0.89861,0.89861 -0.49637,0 -0.8986,-0.40223 -0.8986,-0.89861 0,-0.49637 0.40223,-0.8986 0.8986,-0.8986"
         style="fill:#49b9eb;fill-opacity:1;fill-rule:nonzero;stroke:none;stroke-width:0.503421"
         id="path3638-2-6-9-1-7-2-0-4"
         inkscape:connector-curvature="0" />
    </g>
    <text
       xml:space="preserve"
       style="font-style:normal;font-variant:normal;font-weight:bold;font-stretch:normal;font-size:10.5833px;line-height:1.25;font-family:sans-serif;-inkscape-font-specification:'sans-serif Bold';letter-spacing:0px;word-spacing:0px;fill:#ffffff;fill-opacity:1;stroke:none;stroke-width:0.264583"
       x="-147.46936"
       y="200.46074"
       id="text5274"><tspan
         sodipodi:role="line"
         id="tspan5272"
         x="-147.46936"
         y="200.46074"
         style="fill:#ffffff;fill-opacity:1;stroke-width:0.264583">@Huayralinux</tspan><tspan
         sodipodi:role="line"
         x="-147.46936"
         y="213.68987"
         id="tspan5276"
         style="fill:#ffffff;fill-opacity:1;stroke-width:0.264583" /></text>
    <text
       xml:space="preserve"
       style="font-style:normal;font-variant:normal;font-weight:bold;font-stretch:normal;font-size:10.5833px;line-height:1.25;font-family:sans-serif;-inkscape-font-specification:'sans-serif Bold';letter-spacing:0px;word-spacing:0px;fill:#ffffff;fill-opacity:1;stroke:none;stroke-width:0.264583"
       x="-147.86166"
       y="217.4976"
       id="text5274-3"><tspan
         sodipodi:role="line"
         id="tspan5272-6"
         x="-147.86166"
         y="217.4976"
         style="fill:#ffffff;fill-opacity:1;stroke-width:0.264583">@HuayraGNUlinuxFederal</tspan><tspan
         sodipodi:role="line"
         x="-147.86166"
         y="230.72673"
         id="tspan5276-7"
         style="fill:#ffffff;fill-opacity:1;stroke-width:0.264583" /></text>
    <text
       xml:space="preserve"
       style="font-style:normal;font-variant:normal;font-weight:bold;font-stretch:normal;font-size:10.5833px;line-height:1.25;font-family:sans-serif;-inkscape-font-specification:'sans-serif Bold';letter-spacing:0px;word-spacing:0px;fill:#ffffff;fill-opacity:1;stroke:none;stroke-width:0.264583"
       x="-163.73904"
       y="183.18266"
       id="text5274-3-5"><tspan
         sodipodi:role="line"
         id="tspan5272-6-3"
         x="-163.73904"
         y="183.18266"
         style="fill:#ffffff;fill-opacity:1;stroke-width:0.264583">www.huayra.educar.gob.ar</tspan><tspan
         sodipodi:role="line"
         x="-163.73904"
         y="196.41179"
         id="tspan5276-7-5"
         style="fill:#ffffff;fill-opacity:1;stroke-width:0.264583" /></text>
    <rect
       style="fill:#da8205;fill-opacity:1;stroke:#9195d6;stroke-width:0.0160715;stroke-miterlimit:4;stroke-dasharray:none;stroke-opacity:0"
       id="rect2291-2-1-7-5-6-9-1-7-8-8-1-6"
       width="96.486397"
       height="16.871012"
       x="-64.971764"
       y="53.313274"
       ry="0" />
    <text
       xml:space="preserve"
       style="font-style:normal;font-weight:normal;font-size:13.3474px;line-height:1.25;font-family:sans-serif;letter-spacing:0px;word-spacing:0px;fill:#000000;fill-opacity:1;stroke:none;stroke-width:0.333685"
       x="-62.432667"
       y="66.394569"
       id="text4736-2"><tspan
         sodipodi:role="line"
         id="tspan4734-9"
         x="-62.432667"
         y="66.394569"
         style="font-style:normal;font-variant:normal;font-weight:bold;font-stretch:normal;font-family:'Liberation Sans';-inkscape-font-specification:'Liberation Sans Bold';fill:#ffffff;stroke-width:0.333685">¡Y PARTICIPÁ!</tspan></text>
    <g
       id="g2106"
       transform="translate(260.03081,-842.56322)">
      <path
         id="path2096"
         transform="matrix(0.26458333,0,0,0.26458333,0,87)"
         d="m -1596.4082,3578.7383 -0.7754,0.3926 c -0.9628,0.4883 -1.9002,1.4316 -2.4082,2.4218 l -0.3867,0.7539 v 19.5625 19.5606 l 0.3867,0.7558 c 0.6491,1.2673 1.7068,2.2074 2.9883,2.6583 v 0.01 c 0.5396,0.1852 2.7584,0.2233 19.9629,0.1855 l 19.3554,-0.037 0.754,-0.3867 c 0.9898,-0.5069 1.934,-1.4448 2.4218,-2.4082 l 0.3926,-0.7754 v -19.5606 -19.5625 l -0.3867,-0.7539 c -0.5066,-0.9898 -1.4448,-1.9339 -2.4082,-2.4218 l -0.7754,-0.3926 h -19.5606 z"
         style="fill:#ee3d8f;fill-opacity:1;stroke-width:0.137273"
         inkscape:connector-curvature="0" />
      <path
         id="path12694"
         transform="matrix(0.26458333,0,0,0.26458333,0,87)"
         d="m -1569.9707,3589.2422 c 1.3951,0.022 2.7694,0.4929 3.8496,1.4687 l 0.5527,0.5 0.7774,-0.1621 c 0.4281,-0.09 1.2949,-0.4125 1.9297,-0.7148 0.633,-0.3009 1.1769,-0.532 1.2109,-0.4942 0.084,0.084 -0.4877,1.1702 -0.9004,1.7129 -0.1929,0.2548 -0.6919,0.7401 -1.1113,1.084 -0.4195,0.3413 -0.6387,0.5864 -0.4883,0.541 0.1514,-0.042 0.5215,-0.1171 0.8242,-0.1738 0.3023,-0.051 0.9724,-0.2445 1.4883,-0.4297 0.5159,-0.189 0.9621,-0.3171 0.9961,-0.2793 0.096,0.096 -1.6629,2.0871 -2.3144,2.6211 l -0.6094,0.502 -0.078,1.6797 c -0.12,2.5938 -0.6718,4.7606 -1.8222,7.1738 -2.4877,5.2154 -6.9902,8.7612 -12.5567,9.8867 l -0.01,-0.014 c -0.9393,0.1852 -5.0037,0.3926 -5.4883,0.2754 -0.1128,-0.026 -0.671,-0.1241 -1.2363,-0.2148 -1.408,-0.2253 -3.3911,-0.8692 -4.873,-1.5801 -2.0165,-0.9736 -2.0163,-0.9737 -0.045,-1.0645 1.7815,-0.084 3.1807,-0.3806 4.7089,-1.0019 0.8687,-0.353 2.8599,-1.4441 2.7813,-1.5234 -0.025,-0.026 -0.4111,-0.1179 -0.8574,-0.1973 -1.2569,-0.2313 -2.2203,-0.7568 -3.2286,-1.7617 -0.7876,-0.7854 -1.6328,-2.059 -1.6328,-2.4649 0,-0.079 0.1626,-0.079 0.4454,0 0.5251,0.1588 1.5397,0.155 2.0253,0 0.1784,-0.057 0.2462,-0.125 0.1329,-0.125 -0.1149,-0.01 -0.6603,-0.2295 -1.211,-0.4941 -1.8905,-0.906 -3.2611,-2.7 -3.5683,-4.668 -0.071,-0.4528 -0.1028,-0.8391 -0.08,-0.8769 0.027,-0.03 0.5462,0.1102 1.1484,0.3105 1.5915,0.525 1.6546,0.4868 0.791,-0.4668 -1.7904,-1.9771 -2.3437,-4.1515 -1.664,-6.5137 0.3832,-1.3326 0.394,-1.3314 1.9238,0.1778 3.0375,2.9964 6.7014,4.7495 10.8164,5.1777 l 0.9453,0.1035 -0.1,-0.5332 c -0.2635,-1.3916 -0.045,-2.7679 0.6445,-4.0703 1.1735,-2.2141 3.5557,-3.4268 5.8809,-3.3906 z"
         style="fill:#ffffff;stroke-width:0.137273"
         inkscape:connector-curvature="0" />
    </g>
    <g
       id="g2102"
       transform="matrix(0.9219852,0,0,0.9219852,228.0709,-761.31452)">
      <g
         transform="matrix(0.34612992,0,0,0.34612992,-273.56425,686.87734)"
         id="g2091">
        <path
           style="fill:#ee3d8f;fill-opacity:1;stroke-width:2.50907"
           d="m -431.31343,1089.1175 c -0.73045,-0.065 -1.55007,-0.3291 -2.18596,-0.6934 -1.27707,-0.7313 -2.22387,-1.9106 -2.64842,-3.2973 -0.10567,-0.3458 -0.19002,-0.7907 -0.21969,-1.1454 -0.0185,-0.2104 -0.0278,-4.6991 -0.0278,-13.7578 4.7e-4,-11.2745 0.005,-13.4998 0.0371,-13.7846 0.12514,-1.2638 0.67946,-2.445 1.58038,-3.372 0.48294,-0.4959 0.93938,-0.8259 1.57286,-1.1365 0.56359,-0.2772 1.02439,-0.4172 1.76577,-0.5404 0.22896,-0.037 1.22516,-0.037 13.65264,-0.046 8.85923,0 13.53778,4e-4 13.79409,0.028 1.15952,0.074 2.13423,0.4125 3.03032,1.0544 0.75547,0.5413 1.37394,1.2731 1.78273,2.1113 0.26419,0.5423 0.40786,0.9744 0.51354,1.5637 l 0.0649,0.3031 v 13.8669 13.8668 l -0.0742,0.3393 c -0.21135,1.0754 -0.63312,1.9634 -1.29172,2.7151 -0.0936,0.095 -0.1752,0.2011 -0.20857,0.2382 -0.0936,0.097 -0.52651,0.4792 -0.75362,0.647 -0.79162,0.5868 -1.78476,0.9633 -2.78486,1.0554 -0.53578,0.046 -27.07242,0.046 -27.60051,0 z"
           id="path2049"
           inkscape:connector-curvature="0" />
        <path
           style="fill:#ffffff;stroke-width:0.0340638"
           d="m -408.74245,1083.8923 c 0.36849,-0.1379 0.69948,-0.5548 0.87553,-1.1027 0.048,-0.1494 0.22641,-0.9615 0.39644,-1.8045 0.17002,-0.8431 0.43148,-2.1384 0.58103,-2.8785 0.14954,-0.74 0.30122,-1.4911 0.33705,-1.6691 0.14242,-0.7074 0.81166,-4.0179 1.36344,-6.7446 0.32036,-1.5831 0.73409,-3.6295 0.91941,-4.5475 0.18531,-0.918 0.52942,-2.6224 0.76469,-3.7876 0.45023,-2.2297 0.47756,-2.4292 0.3895,-2.8447 -0.0777,-0.3665 -0.31352,-0.6775 -0.61825,-0.8153 -0.15256,-0.069 -0.22925,-0.08 -0.53572,-0.078 -0.29483,0 -0.39957,0.018 -0.59612,0.09 -0.13114,0.048 -1.05087,0.3968 -2.04383,0.775 -0.99296,0.3783 -1.87436,0.7108 -1.95867,0.739 -0.0843,0.028 -0.18394,0.065 -0.22141,0.082 -0.067,0.03 -0.24623,0.098 -1.73725,0.6606 -0.41218,0.1554 -0.97168,0.368 -1.24334,0.4724 -0.38571,0.1482 -4.50537,1.7087 -6.62541,2.5095 -0.18735,0.071 -0.81583,0.3085 -1.39662,0.5283 -0.58078,0.2199 -1.49284,0.565 -2.02679,0.767 -1.02671,0.3884 -3.90332,1.4779 -6.11446,2.3157 -0.33723,0.1278 -0.83541,0.3165 -1.10707,0.4194 -0.27166,0.1028 -1.13007,0.4279 -1.90757,0.7223 -0.77751,0.2945 -1.59162,0.6008 -1.80915,0.6807 -0.4484,0.1646 -0.70337,0.3148 -0.89432,0.5269 -0.46686,0.5186 -0.39266,1.252 0.16553,1.6361 0.15931,0.1096 0.35249,0.1786 1.48196,0.529 0.4028,0.1249 0.97763,0.3038 1.27739,0.3974 0.29976,0.093 0.65999,0.2056 0.8005,0.249 0.93729,0.2894 3.47794,1.0858 3.65926,1.147 l 0.13364,0.045 0.16183,0.4939 c 0.089,0.2717 0.27674,0.8465 0.41717,1.2774 0.14044,0.431 0.49302,1.5116 0.78351,2.4015 0.29049,0.89 0.72092,2.2091 0.95652,2.9314 0.55288,1.695 0.73478,2.072 1.087,2.2526 0.17805,0.091 0.56145,0.1206 0.80683,0.062 0.42198,-0.1013 0.82674,-0.4615 4.03358,-3.5897 l 0.50875,-0.4963 0.1044,0.079 c 0.11682,0.089 2.92671,2.1638 3.90253,2.8821 0.34659,0.2552 1.222,0.9024 1.94533,1.4384 0.72334,0.536 1.38145,1.0083 1.46247,1.0497 0.5809,0.2963 1.08357,0.3619 1.52069,0.1984 z"
           id="path1891"
           inkscape:connector-curvature="0" />
        <path
           style="fill:#ee3d8f;fill-opacity:1;stroke-width:0.0340638"
           d="m -422.72099,1080.2309 c -0.29829,-0.918 -1.18595,-3.6406 -1.44224,-4.4236 -0.74445,-2.2742 -1.08941,-3.3444 -1.08941,-3.3799 0,-0.022 0.14945,-0.1329 0.33212,-0.2475 0.18267,-0.1145 1.09089,-0.6848 2.01828,-1.2672 3.3173,-2.0831 4.24679,-2.6658 4.64971,-2.9146 0.22482,-0.1388 0.55783,-0.347 0.74001,-0.4625 0.46853,-0.2972 1.65364,-1.0422 3.56907,-2.2438 1.80715,-1.1336 3.69802,-2.3208 4.35169,-2.7322 0.22953,-0.1445 0.48679,-0.2864 0.57169,-0.3153 0.29114,-0.099 0.49296,0.01 0.49259,0.2602 -3.4e-4,0.1619 -0.10659,0.3197 -0.39235,0.5819 -0.26938,0.2472 -2.74943,2.4773 -3.04733,2.7403 -0.10614,0.094 -0.7282,0.6531 -1.38236,1.2433 -0.65416,0.5901 -1.26746,1.142 -1.36289,1.2263 -0.0954,0.084 -0.33317,0.2978 -0.52832,0.4744 -0.45825,0.4148 -0.77377,0.6988 -1.64925,1.4843 -0.39343,0.353 -0.85329,0.7669 -1.02191,0.9199 -0.16862,0.153 -1.06529,0.9589 -1.9926,1.7911 -0.92732,0.8321 -1.75723,1.5819 -1.84427,1.6661 l -0.15824,0.1533 -0.21082,1.8735 c -0.3169,2.8162 -0.44185,3.9124 -0.45182,3.9638 -0.005,0.025 -0.0731,-0.1508 -0.15135,-0.3918 z"
           id="path1887"
           inkscape:connector-curvature="0" />
      </g>
    </g>
  </g>
</svg>
